ISO-10303-21;
HEADER;
/* Generated by software containing ST-Developer
 * from STEP Tools, Inc. (www.steptools.com) 
 */
/* OPTION: using custom renumber hook */

FILE_DESCRIPTION(
/* description */ ('STEP AP242 Edition 2',
'CAx-IF Rec.Pracs.---Representation and Presentation of Product Manufa
cturing Information (PMI)---4.0---2014-10-13',
'CAx-IF Rec.Pracs.---3D Tessellated Geometry---0.4---2014-09-14','2;1',
'CAx-IF Rec.Pracs.---User Defined Attributes---1.5---2016-08-15'),
/* implementation_level */ '2;1');

FILE_NAME(
/* name */ 'encoder mount',
/* time_stamp */ '2026-05-03T07:57:59Z',
/* author */ (''),
/* organization */ (''),
/* preprocessor_version */ 'ST-DEVELOPER v20',
/* originating_system */ 'ONSHAPE BY PTC INC, 1.214',
/* authorisation */ '  ');

FILE_SCHEMA (('AP242_MANAGED_MODEL_BASED_3D_ENGINEERING_MIM_LF { 1 0 10303 442 3 1 4 }'));
ENDSEC;

DATA;
#10=SHAPE_REPRESENTATION_RELATIONSHIP('','',#337,#11);
#11=ADVANCED_BREP_SHAPE_REPRESENTATION('',(#335),#549);
#12=CYLINDRICAL_SURFACE('',#361,1.);
#13=CYLINDRICAL_SURFACE('',#366,0.4);
#14=CYLINDRICAL_SURFACE('',#367,0.4);
#15=CYLINDRICAL_SURFACE('',#368,0.2);
#16=CYLINDRICAL_SURFACE('',#369,0.2);
#17=CYLINDRICAL_SURFACE('',#370,0.2);
#18=CYLINDRICAL_SURFACE('',#371,0.2);
#19=CYLINDRICAL_SURFACE('',#372,0.2);
#20=CYLINDRICAL_SURFACE('',#373,0.2);
#21=CIRCLE('',#342,0.4);
#22=CIRCLE('',#343,0.4);
#23=CIRCLE('',#346,0.2);
#24=CIRCLE('',#347,0.2);
#25=CIRCLE('',#348,0.2);
#26=CIRCLE('',#349,0.2);
#27=CIRCLE('',#350,0.2);
#28=CIRCLE('',#351,0.2);
#29=CIRCLE('',#352,1.);
#30=CIRCLE('',#354,0.2);
#31=CIRCLE('',#355,0.2);
#32=CIRCLE('',#356,0.2);
#33=CIRCLE('',#357,0.2);
#34=CIRCLE('',#358,0.2);
#35=CIRCLE('',#359,0.2);
#36=CIRCLE('',#360,1.);
#37=CIRCLE('',#363,0.4);
#38=CIRCLE('',#364,0.4);
#39=ORIENTED_EDGE('',*,*,#111,.F.);
#40=ORIENTED_EDGE('',*,*,#112,.F.);
#41=ORIENTED_EDGE('',*,*,#113,.T.);
#42=ORIENTED_EDGE('',*,*,#114,.T.);
#43=ORIENTED_EDGE('',*,*,#115,.T.);
#44=ORIENTED_EDGE('',*,*,#116,.F.);
#45=ORIENTED_EDGE('',*,*,#117,.T.);
#46=ORIENTED_EDGE('',*,*,#118,.F.);
#47=ORIENTED_EDGE('',*,*,#119,.F.);
#48=ORIENTED_EDGE('',*,*,#112,.T.);
#49=ORIENTED_EDGE('',*,*,#120,.T.);
#50=ORIENTED_EDGE('',*,*,#121,.T.);
#51=ORIENTED_EDGE('',*,*,#118,.T.);
#52=ORIENTED_EDGE('',*,*,#122,.T.);
#53=ORIENTED_EDGE('',*,*,#123,.F.);
#54=ORIENTED_EDGE('',*,*,#124,.F.);
#55=ORIENTED_EDGE('',*,*,#125,.F.);
#56=ORIENTED_EDGE('',*,*,#114,.F.);
#57=ORIENTED_EDGE('',*,*,#126,.T.);
#58=ORIENTED_EDGE('',*,*,#123,.T.);
#59=ORIENTED_EDGE('',*,*,#127,.F.);
#60=ORIENTED_EDGE('',*,*,#128,.T.);
#61=ORIENTED_EDGE('',*,*,#129,.F.);
#62=ORIENTED_EDGE('',*,*,#130,.F.);
#63=ORIENTED_EDGE('',*,*,#131,.F.);
#64=ORIENTED_EDGE('',*,*,#132,.F.);
#65=ORIENTED_EDGE('',*,*,#133,.F.);
#66=ORIENTED_EDGE('',*,*,#134,.F.);
#67=ORIENTED_EDGE('',*,*,#135,.F.);
#68=ORIENTED_EDGE('',*,*,#113,.F.);
#69=ORIENTED_EDGE('',*,*,#119,.T.);
#70=ORIENTED_EDGE('',*,*,#124,.T.);
#71=ORIENTED_EDGE('',*,*,#126,.F.);
#72=ORIENTED_EDGE('',*,*,#136,.T.);
#73=ORIENTED_EDGE('',*,*,#137,.T.);
#74=ORIENTED_EDGE('',*,*,#138,.T.);
#75=ORIENTED_EDGE('',*,*,#139,.T.);
#76=ORIENTED_EDGE('',*,*,#140,.T.);
#77=ORIENTED_EDGE('',*,*,#141,.T.);
#78=ORIENTED_EDGE('',*,*,#142,.F.);
#79=ORIENTED_EDGE('',*,*,#125,.T.);
#80=ORIENTED_EDGE('',*,*,#143,.T.);
#81=ORIENTED_EDGE('',*,*,#115,.F.);
#82=ORIENTED_EDGE('',*,*,#111,.T.);
#83=ORIENTED_EDGE('',*,*,#135,.T.);
#84=ORIENTED_EDGE('',*,*,#142,.T.);
#85=ORIENTED_EDGE('',*,*,#144,.F.);
#86=ORIENTED_EDGE('',*,*,#145,.F.);
#87=ORIENTED_EDGE('',*,*,#143,.F.);
#88=ORIENTED_EDGE('',*,*,#128,.F.);
#89=ORIENTED_EDGE('',*,*,#146,.T.);
#90=ORIENTED_EDGE('',*,*,#116,.T.);
#91=ORIENTED_EDGE('',*,*,#146,.F.);
#92=ORIENTED_EDGE('',*,*,#127,.T.);
#93=ORIENTED_EDGE('',*,*,#122,.F.);
#94=ORIENTED_EDGE('',*,*,#117,.F.);
#95=ORIENTED_EDGE('',*,*,#145,.T.);
#96=ORIENTED_EDGE('',*,*,#121,.F.);
#97=ORIENTED_EDGE('',*,*,#144,.T.);
#98=ORIENTED_EDGE('',*,*,#120,.F.);
#99=ORIENTED_EDGE('',*,*,#134,.T.);
#100=ORIENTED_EDGE('',*,*,#141,.F.);
#101=ORIENTED_EDGE('',*,*,#133,.T.);
#102=ORIENTED_EDGE('',*,*,#140,.F.);
#103=ORIENTED_EDGE('',*,*,#132,.T.);
#104=ORIENTED_EDGE('',*,*,#139,.F.);
#105=ORIENTED_EDGE('',*,*,#131,.T.);
#106=ORIENTED_EDGE('',*,*,#138,.F.);
#107=ORIENTED_EDGE('',*,*,#130,.T.);
#108=ORIENTED_EDGE('',*,*,#137,.F.);
#109=ORIENTED_EDGE('',*,*,#129,.T.);
#110=ORIENTED_EDGE('',*,*,#136,.F.);
#111=EDGE_CURVE('',#147,#148,#177,.T.);
#112=EDGE_CURVE('',#149,#147,#178,.T.);
#113=EDGE_CURVE('',#149,#150,#179,.T.);
#114=EDGE_CURVE('',#150,#148,#180,.T.);
#115=EDGE_CURVE('',#147,#151,#181,.T.);
#116=EDGE_CURVE('',#152,#151,#182,.T.);
#117=EDGE_CURVE('',#152,#153,#183,.T.);
#118=EDGE_CURVE('',#154,#153,#184,.T.);
#119=EDGE_CURVE('',#149,#154,#185,.T.);
#120=EDGE_CURVE('',#155,#155,#21,.T.);
#121=EDGE_CURVE('',#156,#156,#22,.T.);
#122=EDGE_CURVE('',#153,#157,#186,.T.);
#123=EDGE_CURVE('',#158,#157,#187,.T.);
#124=EDGE_CURVE('',#154,#158,#188,.T.);
#125=EDGE_CURVE('',#148,#159,#189,.T.);
#126=EDGE_CURVE('',#150,#158,#190,.T.);
#127=EDGE_CURVE('',#160,#157,#191,.T.);
#128=EDGE_CURVE('',#160,#159,#192,.T.);
#129=EDGE_CURVE('',#161,#161,#23,.T.);
#130=EDGE_CURVE('',#162,#162,#24,.T.);
#131=EDGE_CURVE('',#163,#163,#25,.T.);
#132=EDGE_CURVE('',#164,#164,#26,.T.);
#133=EDGE_CURVE('',#165,#165,#27,.T.);
#134=EDGE_CURVE('',#166,#166,#28,.T.);
#135=EDGE_CURVE('',#167,#167,#29,.T.);
#136=EDGE_CURVE('',#168,#168,#30,.T.);
#137=EDGE_CURVE('',#169,#169,#31,.T.);
#138=EDGE_CURVE('',#170,#170,#32,.T.);
#139=EDGE_CURVE('',#171,#171,#33,.T.);
#140=EDGE_CURVE('',#172,#172,#34,.T.);
#141=EDGE_CURVE('',#173,#173,#35,.T.);
#142=EDGE_CURVE('',#174,#174,#36,.T.);
#143=EDGE_CURVE('',#159,#151,#193,.T.);
#144=EDGE_CURVE('',#175,#175,#37,.T.);
#145=EDGE_CURVE('',#176,#176,#38,.T.);
#146=EDGE_CURVE('',#160,#152,#194,.T.);
#147=VERTEX_POINT('',#467);
#148=VERTEX_POINT('',#468);
#149=VERTEX_POINT('',#470);
#150=VERTEX_POINT('',#472);
#151=VERTEX_POINT('',#476);
#152=VERTEX_POINT('',#478);
#153=VERTEX_POINT('',#480);
#154=VERTEX_POINT('',#482);
#155=VERTEX_POINT('',#486);
#156=VERTEX_POINT('',#488);
#157=VERTEX_POINT('',#490);
#158=VERTEX_POINT('',#492);
#159=VERTEX_POINT('',#496);
#160=VERTEX_POINT('',#499);
#161=VERTEX_POINT('',#503);
#162=VERTEX_POINT('',#505);
#163=VERTEX_POINT('',#507);
#164=VERTEX_POINT('',#509);
#165=VERTEX_POINT('',#511);
#166=VERTEX_POINT('',#513);
#167=VERTEX_POINT('',#515);
#168=VERTEX_POINT('',#518);
#169=VERTEX_POINT('',#520);
#170=VERTEX_POINT('',#522);
#171=VERTEX_POINT('',#524);
#172=VERTEX_POINT('',#526);
#173=VERTEX_POINT('',#528);
#174=VERTEX_POINT('',#530);
#175=VERTEX_POINT('',#535);
#176=VERTEX_POINT('',#537);
#177=LINE('',#466,#195);
#178=LINE('',#469,#196);
#179=LINE('',#471,#197);
#180=LINE('',#473,#198);
#181=LINE('',#475,#199);
#182=LINE('',#477,#200);
#183=LINE('',#479,#201);
#184=LINE('',#481,#202);
#185=LINE('',#483,#203);
#186=LINE('',#489,#204);
#187=LINE('',#491,#205);
#188=LINE('',#493,#206);
#189=LINE('',#495,#207);
#190=LINE('',#497,#208);
#191=LINE('',#498,#209);
#192=LINE('',#500,#210);
#193=LINE('',#531,#211);
#194=LINE('',#538,#212);
#195=VECTOR('',#378,100.);
#196=VECTOR('',#379,100.);
#197=VECTOR('',#380,100.);
#198=VECTOR('',#381,100.);
#199=VECTOR('',#384,100.);
#200=VECTOR('',#385,100.);
#201=VECTOR('',#386,100.);
#202=VECTOR('',#387,100.);
#203=VECTOR('',#388,100.);
#204=VECTOR('',#395,100.);
#205=VECTOR('',#396,100.);
#206=VECTOR('',#397,100.);
#207=VECTOR('',#400,100.);
#208=VECTOR('',#401,100.);
#209=VECTOR('',#402,100.);
#210=VECTOR('',#403,100.);
#211=VECTOR('',#436,100.);
#212=VECTOR('',#445,100.);
#213=EDGE_LOOP('',(#39,#40,#41,#42));
#214=EDGE_LOOP('',(#43,#44,#45,#46,#47,#48));
#215=EDGE_LOOP('',(#49));
#216=EDGE_LOOP('',(#50));
#217=EDGE_LOOP('',(#51,#52,#53,#54));
#218=EDGE_LOOP('',(#55,#56,#57,#58,#59,#60));
#219=EDGE_LOOP('',(#61));
#220=EDGE_LOOP('',(#62));
#221=EDGE_LOOP('',(#63));
#222=EDGE_LOOP('',(#64));
#223=EDGE_LOOP('',(#65));
#224=EDGE_LOOP('',(#66));
#225=EDGE_LOOP('',(#67));
#226=EDGE_LOOP('',(#68,#69,#70,#71));
#227=EDGE_LOOP('',(#72));
#228=EDGE_LOOP('',(#73));
#229=EDGE_LOOP('',(#74));
#230=EDGE_LOOP('',(#75));
#231=EDGE_LOOP('',(#76));
#232=EDGE_LOOP('',(#77));
#233=EDGE_LOOP('',(#78));
#234=EDGE_LOOP('',(#79,#80,#81,#82));
#235=EDGE_LOOP('',(#83));
#236=EDGE_LOOP('',(#84));
#237=EDGE_LOOP('',(#85));
#238=EDGE_LOOP('',(#86));
#239=EDGE_LOOP('',(#87,#88,#89,#90));
#240=EDGE_LOOP('',(#91,#92,#93,#94));
#241=EDGE_LOOP('',(#95));
#242=EDGE_LOOP('',(#96));
#243=EDGE_LOOP('',(#97));
#244=EDGE_LOOP('',(#98));
#245=EDGE_LOOP('',(#99));
#246=EDGE_LOOP('',(#100));
#247=EDGE_LOOP('',(#101));
#248=EDGE_LOOP('',(#102));
#249=EDGE_LOOP('',(#103));
#250=EDGE_LOOP('',(#104));
#251=EDGE_LOOP('',(#105));
#252=EDGE_LOOP('',(#106));
#253=EDGE_LOOP('',(#107));
#254=EDGE_LOOP('',(#108));
#255=EDGE_LOOP('',(#109));
#256=EDGE_LOOP('',(#110));
#257=FACE_BOUND('',#213,.T.);
#258=FACE_BOUND('',#214,.T.);
#259=FACE_BOUND('',#215,.T.);
#260=FACE_BOUND('',#216,.T.);
#261=FACE_BOUND('',#217,.T.);
#262=FACE_BOUND('',#218,.T.);
#263=FACE_BOUND('',#219,.T.);
#264=FACE_BOUND('',#220,.T.);
#265=FACE_BOUND('',#221,.T.);
#266=FACE_BOUND('',#222,.T.);
#267=FACE_BOUND('',#223,.T.);
#268=FACE_BOUND('',#224,.T.);
#269=FACE_BOUND('',#225,.T.);
#270=FACE_BOUND('',#226,.T.);
#271=FACE_BOUND('',#227,.T.);
#272=FACE_BOUND('',#228,.T.);
#273=FACE_BOUND('',#229,.T.);
#274=FACE_BOUND('',#230,.T.);
#275=FACE_BOUND('',#231,.T.);
#276=FACE_BOUND('',#232,.T.);
#277=FACE_BOUND('',#233,.T.);
#278=FACE_BOUND('',#234,.T.);
#279=FACE_BOUND('',#235,.T.);
#280=FACE_BOUND('',#236,.T.);
#281=FACE_BOUND('',#237,.T.);
#282=FACE_BOUND('',#238,.T.);
#283=FACE_BOUND('',#239,.T.);
#284=FACE_BOUND('',#240,.T.);
#285=FACE_BOUND('',#241,.T.);
#286=FACE_BOUND('',#242,.T.);
#287=FACE_BOUND('',#243,.T.);
#288=FACE_BOUND('',#244,.T.);
#289=FACE_BOUND('',#245,.T.);
#290=FACE_BOUND('',#246,.T.);
#291=FACE_BOUND('',#247,.T.);
#292=FACE_BOUND('',#248,.T.);
#293=FACE_BOUND('',#249,.T.);
#294=FACE_BOUND('',#250,.T.);
#295=FACE_BOUND('',#251,.T.);
#296=FACE_BOUND('',#252,.T.);
#297=FACE_BOUND('',#253,.T.);
#298=FACE_BOUND('',#254,.T.);
#299=FACE_BOUND('',#255,.T.);
#300=FACE_BOUND('',#256,.T.);
#301=PLANE('',#339);
#302=PLANE('',#340);
#303=PLANE('',#341);
#304=PLANE('',#344);
#305=PLANE('',#345);
#306=PLANE('',#353);
#307=PLANE('',#362);
#308=PLANE('',#365);
#309=ADVANCED_FACE('',(#257),#301,.T.);
#310=ADVANCED_FACE('',(#258),#302,.F.);
#311=ADVANCED_FACE('',(#259,#260,#261),#303,.F.);
#312=ADVANCED_FACE('',(#262),#304,.T.);
#313=ADVANCED_FACE('',(#263,#264,#265,#266,#267,#268,#269,#270),#305,.T.);
#314=ADVANCED_FACE('',(#271,#272,#273,#274,#275,#276,#277,#278),#306,.F.);
#315=ADVANCED_FACE('',(#279,#280),#12,.F.);
#316=ADVANCED_FACE('',(#281,#282,#283),#307,.T.);
#317=ADVANCED_FACE('',(#284),#308,.T.);
#318=ADVANCED_FACE('',(#285,#286),#13,.F.);
#319=ADVANCED_FACE('',(#287,#288),#14,.F.);
#320=ADVANCED_FACE('',(#289,#290),#15,.F.);
#321=ADVANCED_FACE('',(#291,#292),#16,.F.);
#322=ADVANCED_FACE('',(#293,#294),#17,.F.);
#323=ADVANCED_FACE('',(#295,#296),#18,.F.);
#324=ADVANCED_FACE('',(#297,#298),#19,.F.);
#325=ADVANCED_FACE('',(#299,#300),#20,.F.);
#326=CLOSED_SHELL('',(#309,#310,#311,#312,#313,#314,#315,#316,#317,#318,
#319,#320,#321,#322,#323,#324,#325));
#327=STYLED_ITEM('',(#328),#335);
#328=PRESENTATION_STYLE_ASSIGNMENT((#329));
#329=SURFACE_STYLE_USAGE(.BOTH.,#330);
#330=SURFACE_SIDE_STYLE('',(#331));
#331=SURFACE_STYLE_FILL_AREA(#332);
#332=FILL_AREA_STYLE('',(#333));
#333=FILL_AREA_STYLE_COLOUR('',#334);
#334=COLOUR_RGB('',0.615686274509804,0.811764705882353,0.929411764705882);
#335=MANIFOLD_SOLID_BREP('Part 1',#326);
#336=SHAPE_DEFINITION_REPRESENTATION(#554,#337);
#337=SHAPE_REPRESENTATION('Part 1',(#338),#549);
#338=AXIS2_PLACEMENT_3D('',#464,#374,#375);
#339=AXIS2_PLACEMENT_3D('',#465,#376,#377);
#340=AXIS2_PLACEMENT_3D('',#474,#382,#383);
#341=AXIS2_PLACEMENT_3D('',#484,#389,#390);
#342=AXIS2_PLACEMENT_3D('',#485,#391,#392);
#343=AXIS2_PLACEMENT_3D('',#487,#393,#394);
#344=AXIS2_PLACEMENT_3D('',#494,#398,#399);
#345=AXIS2_PLACEMENT_3D('',#501,#404,#405);
#346=AXIS2_PLACEMENT_3D('',#502,#406,#407);
#347=AXIS2_PLACEMENT_3D('',#504,#408,#409);
#348=AXIS2_PLACEMENT_3D('',#506,#410,#411);
#349=AXIS2_PLACEMENT_3D('',#508,#412,#413);
#350=AXIS2_PLACEMENT_3D('',#510,#414,#415);
#351=AXIS2_PLACEMENT_3D('',#512,#416,#417);
#352=AXIS2_PLACEMENT_3D('',#514,#418,#419);
#353=AXIS2_PLACEMENT_3D('',#516,#420,#421);
#354=AXIS2_PLACEMENT_3D('',#517,#422,#423);
#355=AXIS2_PLACEMENT_3D('',#519,#424,#425);
#356=AXIS2_PLACEMENT_3D('',#521,#426,#427);
#357=AXIS2_PLACEMENT_3D('',#523,#428,#429);
#358=AXIS2_PLACEMENT_3D('',#525,#430,#431);
#359=AXIS2_PLACEMENT_3D('',#527,#432,#433);
#360=AXIS2_PLACEMENT_3D('',#529,#434,#435);
#361=AXIS2_PLACEMENT_3D('',#532,#437,#438);
#362=AXIS2_PLACEMENT_3D('',#533,#439,#440);
#363=AXIS2_PLACEMENT_3D('',#534,#441,#442);
#364=AXIS2_PLACEMENT_3D('',#536,#443,#444);
#365=AXIS2_PLACEMENT_3D('',#539,#446,#447);
#366=AXIS2_PLACEMENT_3D('',#540,#448,#449);
#367=AXIS2_PLACEMENT_3D('',#541,#450,#451);
#368=AXIS2_PLACEMENT_3D('',#542,#452,#453);
#369=AXIS2_PLACEMENT_3D('',#543,#454,#455);
#370=AXIS2_PLACEMENT_3D('',#544,#456,#457);
#371=AXIS2_PLACEMENT_3D('',#545,#458,#459);
#372=AXIS2_PLACEMENT_3D('',#546,#460,#461);
#373=AXIS2_PLACEMENT_3D('',#547,#462,#463);
#374=DIRECTION('',(0.,0.,1.));
#375=DIRECTION('',(1.,0.,0.));
#376=DIRECTION('',(0.,1.,0.));
#377=DIRECTION('',(0.,0.,1.));
#378=DIRECTION('',(1.,0.,0.));
#379=DIRECTION('',(0.,0.,-1.));
#380=DIRECTION('',(1.,0.,0.));
#381=DIRECTION('',(0.,0.,-1.));
#382=DIRECTION('',(1.,0.,0.));
#383=DIRECTION('',(0.,0.,-1.));
#384=DIRECTION('',(0.,-1.,0.));
#385=DIRECTION('',(0.,0.,1.));
#386=DIRECTION('',(0.,-1.,0.));
#387=DIRECTION('',(0.,0.,-1.));
#388=DIRECTION('',(0.,-1.,0.));
#389=DIRECTION('',(0.,1.,0.));
#390=DIRECTION('',(0.,0.,1.));
#391=DIRECTION('',(0.,1.,0.));
#392=DIRECTION('',(0.,0.,1.));
#393=DIRECTION('',(0.,1.,0.));
#394=DIRECTION('',(0.,0.,1.));
#395=DIRECTION('',(1.,0.,0.));
#396=DIRECTION('',(0.,0.,-1.));
#397=DIRECTION('',(1.,0.,0.));
#398=DIRECTION('',(1.,1.06752213906265E-16,0.));
#399=DIRECTION('',(-1.06752213906265E-16,1.,0.));
#400=DIRECTION('',(1.06752213906265E-16,-1.,0.));
#401=DIRECTION('',(1.06752213906265E-16,-1.,0.));
#402=DIRECTION('',(1.06752213906265E-16,-1.,0.));
#403=DIRECTION('',(0.,0.,1.));
#404=DIRECTION('',(0.,0.,1.));
#405=DIRECTION('',(1.,0.,0.));
#406=DIRECTION('',(0.,0.,1.));
#407=DIRECTION('',(1.,0.,0.));
#408=DIRECTION('',(0.,0.,1.));
#409=DIRECTION('',(1.,0.,0.));
#410=DIRECTION('',(0.,0.,1.));
#411=DIRECTION('',(1.,0.,0.));
#412=DIRECTION('',(0.,0.,1.));
#413=DIRECTION('',(1.,0.,0.));
#414=DIRECTION('',(0.,0.,1.));
#415=DIRECTION('',(1.,0.,0.));
#416=DIRECTION('',(0.,0.,1.));
#417=DIRECTION('',(1.,0.,0.));
#418=DIRECTION('',(0.,0.,1.));
#419=DIRECTION('',(1.,0.,0.));
#420=DIRECTION('',(0.,0.,1.));
#421=DIRECTION('',(1.,0.,0.));
#422=DIRECTION('',(0.,0.,1.));
#423=DIRECTION('',(1.,0.,0.));
#424=DIRECTION('',(0.,0.,1.));
#425=DIRECTION('',(1.,0.,0.));
#426=DIRECTION('',(0.,0.,1.));
#427=DIRECTION('',(1.,0.,0.));
#428=DIRECTION('',(0.,0.,1.));
#429=DIRECTION('',(1.,0.,0.));
#430=DIRECTION('',(0.,0.,1.));
#431=DIRECTION('',(1.,0.,0.));
#432=DIRECTION('',(0.,0.,1.));
#433=DIRECTION('',(1.,0.,0.));
#434=DIRECTION('',(0.,0.,-1.));
#435=DIRECTION('',(-1.,0.,0.));
#436=DIRECTION('',(-1.,0.,0.));
#437=DIRECTION('',(0.,0.,-1.));
#438=DIRECTION('',(-1.,0.,0.));
#439=DIRECTION('',(0.,1.,0.));
#440=DIRECTION('',(0.,0.,1.));
#441=DIRECTION('',(0.,1.,0.));
#442=DIRECTION('',(0.,0.,1.));
#443=DIRECTION('',(0.,1.,0.));
#444=DIRECTION('',(0.,0.,1.));
#445=DIRECTION('',(-1.,0.,0.));
#446=DIRECTION('',(0.,0.,-1.));
#447=DIRECTION('',(1.,0.,0.));
#448=DIRECTION('',(0.,1.,0.));
#449=DIRECTION('',(0.,0.,1.));
#450=DIRECTION('',(0.,1.,0.));
#451=DIRECTION('',(0.,0.,1.));
#452=DIRECTION('',(0.,0.,1.));
#453=DIRECTION('',(1.,0.,0.));
#454=DIRECTION('',(0.,0.,1.));
#455=DIRECTION('',(1.,0.,0.));
#456=DIRECTION('',(0.,0.,1.));
#457=DIRECTION('',(1.,0.,0.));
#458=DIRECTION('',(0.,0.,1.));
#459=DIRECTION('',(1.,0.,0.));
#460=DIRECTION('',(0.,0.,1.));
#461=DIRECTION('',(1.,0.,0.));
#462=DIRECTION('',(0.,0.,1.));
#463=DIRECTION('',(1.,0.,0.));
#464=CARTESIAN_POINT('',(0.,0.,0.));
#465=CARTESIAN_POINT('',(-0.272431634366513,2.60396708548069,0.3));
#466=CARTESIAN_POINT('',(-0.272431634366513,2.60396708548069,0.));
#467=CARTESIAN_POINT('',(-2.77243163436651,2.60396708548069,0.));
#468=CARTESIAN_POINT('',(2.22756836563349,2.60396708548069,0.));
#469=CARTESIAN_POINT('',(-2.77243163436651,2.60396708548069,0.3));
#470=CARTESIAN_POINT('',(-2.77243163436651,2.60396708548069,0.3));
#471=CARTESIAN_POINT('',(-0.272431634366513,2.60396708548069,0.3));
#472=CARTESIAN_POINT('',(2.22756836563349,2.60396708548069,0.3));
#473=CARTESIAN_POINT('',(2.22756836563349,2.60396708548069,0.3));
#474=CARTESIAN_POINT('',(-2.77243163436651,-0.646032914519309,0.3));
#475=CARTESIAN_POINT('',(-2.77243163436651,-0.646032914519309,0.));
#476=CARTESIAN_POINT('',(-2.77243163436651,-3.89603291451931,0.));
#477=CARTESIAN_POINT('',(-2.77243163436651,-3.89603291451931,-3.));
#478=CARTESIAN_POINT('',(-2.77243163436651,-3.89603291451931,-3.));
#479=CARTESIAN_POINT('',(-2.77243163436651,-0.646032914519309,-3.));
#480=CARTESIAN_POINT('',(-2.77243163436651,-4.39603291451931,-3.));
#481=CARTESIAN_POINT('',(-2.77243163436651,-4.39603291451931,0.3));
#482=CARTESIAN_POINT('',(-2.77243163436651,-4.39603291451931,0.3));
#483=CARTESIAN_POINT('',(-2.77243163436651,-0.646032914519309,0.3));
#484=CARTESIAN_POINT('',(-0.272431634366512,-4.39603291451931,0.3));
#485=CARTESIAN_POINT('',(1.22756836563349,-4.39603291451931,-1.5));
#486=CARTESIAN_POINT('',(1.22756836563349,-4.39603291451931,-1.1));
#487=CARTESIAN_POINT('',(-1.77243163436651,-4.39603291451931,-1.5));
#488=CARTESIAN_POINT('',(-1.77243163436651,-4.39603291451931,-1.1));
#489=CARTESIAN_POINT('',(-0.272431634366512,-4.39603291451931,-3.));
#490=CARTESIAN_POINT('',(2.22756836563349,-4.39603291451931,-3.));
#491=CARTESIAN_POINT('',(2.22756836563349,-4.39603291451931,0.3));
#492=CARTESIAN_POINT('',(2.22756836563349,-4.39603291451931,0.3));
#493=CARTESIAN_POINT('',(-0.272431634366512,-4.39603291451931,0.3));
#494=CARTESIAN_POINT('',(2.22756836563349,-0.646032914519309,0.3));
#495=CARTESIAN_POINT('',(2.22756836563349,-0.646032914519309,0.));
#496=CARTESIAN_POINT('',(2.22756836563349,-3.89603291451931,0.));
#497=CARTESIAN_POINT('',(2.22756836563349,-0.646032914519309,0.3));
#498=CARTESIAN_POINT('',(2.22756836563349,-0.646032914519309,-3.));
#499=CARTESIAN_POINT('',(2.22756836563349,-3.89603291451931,-3.));
#500=CARTESIAN_POINT('',(2.22756836563349,-3.89603291451931,-3.));
#501=CARTESIAN_POINT('',(-0.272431634366512,-0.89603291451931,0.3));
#502=CARTESIAN_POINT('',(-1.77833109721541,0.573837146908046,0.3));
#503=CARTESIAN_POINT('',(-1.57833109721541,0.573837146908046,0.3));
#504=CARTESIAN_POINT('',(0.471668902784586,-0.725200958768615,0.3));
#505=CARTESIAN_POINT('',(0.671668902784586,-0.725200958768615,0.3));
#506=CARTESIAN_POINT('',(0.934104468082796,-0.126162853091955,0.3));
#507=CARTESIAN_POINT('',(1.1341044680828,-0.126162853091955,0.3));
#508=CARTESIAN_POINT('',(-0.278331097215414,1.97383714690805,0.3));
#509=CARTESIAN_POINT('',(-0.078331097215414,1.97383714690805,0.3));
#510=CARTESIAN_POINT('',(-1.49076666251362,-0.126162853091955,0.3));
#511=CARTESIAN_POINT('',(-1.29076666251362,-0.126162853091955,0.3));
#512=CARTESIAN_POINT('',(0.471668902784586,1.8728752525847,0.3));
#513=CARTESIAN_POINT('',(0.671668902784586,1.8728752525847,0.3));
#514=CARTESIAN_POINT('',(-0.272431634366513,0.603967085480691,0.3));
#515=CARTESIAN_POINT('',(0.727568365633487,0.603967085480691,0.3));
#516=CARTESIAN_POINT('',(-0.272431634366512,-0.89603291451931,0.));
#517=CARTESIAN_POINT('',(-1.77833109721541,0.573837146908046,0.));
#518=CARTESIAN_POINT('',(-1.57833109721541,0.573837146908046,0.));
#519=CARTESIAN_POINT('',(0.471668902784586,-0.725200958768615,0.));
#520=CARTESIAN_POINT('',(0.671668902784586,-0.725200958768615,0.));
#521=CARTESIAN_POINT('',(0.934104468082796,-0.126162853091955,0.));
#522=CARTESIAN_POINT('',(1.1341044680828,-0.126162853091955,0.));
#523=CARTESIAN_POINT('',(-0.278331097215414,1.97383714690805,0.));
#524=CARTESIAN_POINT('',(-0.078331097215414,1.97383714690805,0.));
#525=CARTESIAN_POINT('',(-1.49076666251362,-0.126162853091955,0.));
#526=CARTESIAN_POINT('',(-1.29076666251362,-0.126162853091955,0.));
#527=CARTESIAN_POINT('',(0.471668902784586,1.8728752525847,0.));
#528=CARTESIAN_POINT('',(0.671668902784586,1.8728752525847,0.));
#529=CARTESIAN_POINT('',(-0.272431634366513,0.603967085480691,0.));
#530=CARTESIAN_POINT('',(-1.27243163436651,0.603967085480691,0.));
#531=CARTESIAN_POINT('',(-0.272431634366512,-3.89603291451931,0.));
#532=CARTESIAN_POINT('',(-0.272431634366513,0.603967085480691,8.60855482120213));
#533=CARTESIAN_POINT('',(-0.272431634366512,-3.89603291451931,-3.));
#534=CARTESIAN_POINT('',(1.22756836563349,-3.89603291451931,-1.5));
#535=CARTESIAN_POINT('',(1.22756836563349,-3.89603291451931,-1.1));
#536=CARTESIAN_POINT('',(-1.77243163436651,-3.89603291451931,-1.5));
#537=CARTESIAN_POINT('',(-1.77243163436651,-3.89603291451931,-1.1));
#538=CARTESIAN_POINT('',(-0.272431634366512,-3.89603291451931,-3.));
#539=CARTESIAN_POINT('',(-0.272431634366512,-0.89603291451931,-3.));
#540=CARTESIAN_POINT('',(-1.77243163436651,-13.1106098529293,-1.5));
#541=CARTESIAN_POINT('',(1.22756836563349,-13.1106098529293,-1.5));
#542=CARTESIAN_POINT('',(0.471668902784586,1.8728752525847,-8.91457693840997));
#543=CARTESIAN_POINT('',(-1.49076666251362,-0.126162853091955,-8.91457693840997));
#544=CARTESIAN_POINT('',(-0.278331097215414,1.97383714690805,-8.91457693840997));
#545=CARTESIAN_POINT('',(0.934104468082796,-0.126162853091955,-8.91457693840997));
#546=CARTESIAN_POINT('',(0.471668902784586,-0.725200958768615,-8.91457693840997));
#547=CARTESIAN_POINT('',(-1.77833109721541,0.573837146908046,-8.91457693840997));
#548=MECHANICAL_DESIGN_GEOMETRIC_PRESENTATION_REPRESENTATION('',(#327),
#549);
#549=(
GEOMETRIC_REPRESENTATION_CONTEXT(3)
GLOBAL_UNCERTAINTY_ASSIGNED_CONTEXT((#550))
GLOBAL_UNIT_ASSIGNED_CONTEXT((#553,#552,#551))
REPRESENTATION_CONTEXT('Part 1','TOP_LEVEL_ASSEMBLY_PART')
);
#550=UNCERTAINTY_MEASURE_WITH_UNIT(LENGTH_MEASURE(1.E-6),#553,
'DISTANCE_ACCURACY_VALUE','Maximum Tolerance applied to model');
#551=(
NAMED_UNIT(*)
SI_UNIT($,.STERADIAN.)
SOLID_ANGLE_UNIT()
);
#552=(
NAMED_UNIT(*)
PLANE_ANGLE_UNIT()
SI_UNIT($,.RADIAN.)
);
#553=(
LENGTH_UNIT()
NAMED_UNIT(*)
SI_UNIT(.CENTI.,.METRE.)
);
#554=PRODUCT_DEFINITION_SHAPE('','',#555);
#555=PRODUCT_DEFINITION('','',#557,#556);
#556=PRODUCT_DEFINITION_CONTEXT('',#563,'design');
#557=PRODUCT_DEFINITION_FORMATION_WITH_SPECIFIED_SOURCE('','',#559,
 .NOT_KNOWN.);
#558=PRODUCT_RELATED_PRODUCT_CATEGORY('','',(#559));
#559=PRODUCT('Part 1','Part 1','Part 1',(#561));
#560=PRODUCT_CATEGORY('','');
#561=PRODUCT_CONTEXT('',#563,'mechanical');
#562=APPLICATION_PROTOCOL_DEFINITION('international standard',
'ap242_managed_model_based_3d_engineering',2020,#563);
#563=APPLICATION_CONTEXT('managed model based 3d engineering');
ENDSEC;
END-ISO-10303-21;
