ISO-10303-21;
HEADER;
/* Generated by software containing ST-Developer
 * from STEP Tools, Inc. (www.steptools.com) 
 */
/* OPTION: using custom renumber hook */

FILE_DESCRIPTION(
/* description */ ('STEP AP242 Edition 2',
'CAx-IF Rec.Pracs.---Representation and Presentation of Product Manufa
cturing Information (PMI)---4.0---2014-10-13',
'CAx-IF Rec.Pracs.---3D Tessellated Geometry---0.4---2014-09-14','2;1',
'CAx-IF Rec.Pracs.---User Defined Attributes---1.5---2016-08-15'),
/* implementation_level */ '2;1');

FILE_NAME(
/* name */ 'wheel base',
/* time_stamp */ '2026-05-03T07:56:40Z',
/* author */ (''),
/* organization */ (''),
/* preprocessor_version */ 'ST-DEVELOPER v20',
/* originating_system */ 'ONSHAPE BY PTC INC, 1.214',
/* authorisation */ '  ');

FILE_SCHEMA (('AP242_MANAGED_MODEL_BASED_3D_ENGINEERING_MIM_LF { 1 0 10303 442 3 1 4 }'));
ENDSEC;

DATA;
#10=SHAPE_REPRESENTATION_RELATIONSHIP('','',#380,#12);
#11=SHAPE_REPRESENTATION_RELATIONSHIP('','',#381,#13);
#12=ADVANCED_BREP_SHAPE_REPRESENTATION('',(#376),#632);
#13=ADVANCED_BREP_SHAPE_REPRESENTATION('',(#377),#633);
#14=PLANE('',#386);
#15=PLANE('',#393);
#16=PLANE('',#397);
#17=PLANE('',#398);
#18=PLANE('',#399);
#19=PLANE('',#400);
#20=PLANE('',#402);
#21=PLANE('',#406);
#22=PLANE('',#410);
#23=PLANE('',#414);
#24=PLANE('',#418);
#25=PLANE('',#419);
#26=LINE('',#533,#58);
#27=LINE('',#537,#59);
#28=LINE('',#539,#60);
#29=LINE('',#541,#61);
#30=LINE('',#543,#62);
#31=LINE('',#547,#63);
#32=LINE('',#554,#64);
#33=LINE('',#558,#65);
#34=LINE('',#560,#66);
#35=LINE('',#562,#67);
#36=LINE('',#564,#68);
#37=LINE('',#568,#69);
#38=LINE('',#572,#70);
#39=LINE('',#573,#71);
#40=LINE('',#575,#72);
#41=LINE('',#576,#73);
#42=LINE('',#581,#74);
#43=LINE('',#584,#75);
#44=LINE('',#586,#76);
#45=LINE('',#588,#77);
#46=LINE('',#592,#78);
#47=LINE('',#596,#79);
#48=LINE('',#598,#80);
#49=LINE('',#600,#81);
#50=LINE('',#605,#82);
#51=LINE('',#609,#83);
#52=LINE('',#611,#84);
#53=LINE('',#613,#85);
#54=LINE('',#615,#86);
#55=LINE('',#619,#87);
#56=LINE('',#623,#88);
#57=LINE('',#624,#89);
#58=VECTOR('',#426,100.);
#59=VECTOR('',#429,100.);
#60=VECTOR('',#432,100.);
#61=VECTOR('',#433,100.);
#62=VECTOR('',#434,100.);
#63=VECTOR('',#439,100.);
#64=VECTOR('',#446,100.);
#65=VECTOR('',#449,100.);
#66=VECTOR('',#452,100.);
#67=VECTOR('',#453,100.);
#68=VECTOR('',#454,100.);
#69=VECTOR('',#459,100.);
#70=VECTOR('',#464,100.);
#71=VECTOR('',#465,100.);
#72=VECTOR('',#468,100.);
#73=VECTOR('',#469,100.);
#74=VECTOR('',#478,100.);
#75=VECTOR('',#479,100.);
#76=VECTOR('',#480,100.);
#77=VECTOR('',#481,100.);
#78=VECTOR('',#486,100.);
#79=VECTOR('',#491,100.);
#80=VECTOR('',#492,100.);
#81=VECTOR('',#493,100.);
#82=VECTOR('',#498,100.);
#83=VECTOR('',#501,100.);
#84=VECTOR('',#504,100.);
#85=VECTOR('',#505,100.);
#86=VECTOR('',#506,100.);
#87=VECTOR('',#511,100.);
#88=VECTOR('',#516,100.);
#89=VECTOR('',#517,100.);
#90=ORIENTED_EDGE('',*,*,#186,.F.);
#91=ORIENTED_EDGE('',*,*,#187,.F.);
#92=ORIENTED_EDGE('',*,*,#188,.T.);
#93=ORIENTED_EDGE('',*,*,#189,.T.);
#94=ORIENTED_EDGE('',*,*,#190,.T.);
#95=ORIENTED_EDGE('',*,*,#191,.F.);
#96=ORIENTED_EDGE('',*,*,#192,.F.);
#97=ORIENTED_EDGE('',*,*,#187,.T.);
#98=ORIENTED_EDGE('',*,*,#193,.F.);
#99=ORIENTED_EDGE('',*,*,#194,.F.);
#100=ORIENTED_EDGE('',*,*,#195,.T.);
#101=ORIENTED_EDGE('',*,*,#191,.T.);
#102=ORIENTED_EDGE('',*,*,#196,.T.);
#103=ORIENTED_EDGE('',*,*,#197,.F.);
#104=ORIENTED_EDGE('',*,*,#198,.F.);
#105=ORIENTED_EDGE('',*,*,#199,.T.);
#106=ORIENTED_EDGE('',*,*,#200,.T.);
#107=ORIENTED_EDGE('',*,*,#201,.F.);
#108=ORIENTED_EDGE('',*,*,#202,.F.);
#109=ORIENTED_EDGE('',*,*,#197,.T.);
#110=ORIENTED_EDGE('',*,*,#203,.T.);
#111=ORIENTED_EDGE('',*,*,#204,.F.);
#112=ORIENTED_EDGE('',*,*,#205,.F.);
#113=ORIENTED_EDGE('',*,*,#201,.T.);
#114=ORIENTED_EDGE('',*,*,#206,.F.);
#115=ORIENTED_EDGE('',*,*,#199,.F.);
#116=ORIENTED_EDGE('',*,*,#207,.T.);
#117=ORIENTED_EDGE('',*,*,#204,.T.);
#118=ORIENTED_EDGE('',*,*,#208,.T.);
#119=ORIENTED_EDGE('',*,*,#189,.F.);
#120=ORIENTED_EDGE('',*,*,#209,.F.);
#121=ORIENTED_EDGE('',*,*,#194,.T.);
#122=ORIENTED_EDGE('',*,*,#198,.T.);
#123=ORIENTED_EDGE('',*,*,#202,.T.);
#124=ORIENTED_EDGE('',*,*,#205,.T.);
#125=ORIENTED_EDGE('',*,*,#207,.F.);
#126=ORIENTED_EDGE('',*,*,#188,.F.);
#127=ORIENTED_EDGE('',*,*,#192,.T.);
#128=ORIENTED_EDGE('',*,*,#195,.F.);
#129=ORIENTED_EDGE('',*,*,#209,.T.);
#130=ORIENTED_EDGE('',*,*,#196,.F.);
#131=ORIENTED_EDGE('',*,*,#206,.T.);
#132=ORIENTED_EDGE('',*,*,#203,.F.);
#133=ORIENTED_EDGE('',*,*,#200,.F.);
#134=ORIENTED_EDGE('',*,*,#186,.T.);
#135=ORIENTED_EDGE('',*,*,#208,.F.);
#136=ORIENTED_EDGE('',*,*,#193,.T.);
#137=ORIENTED_EDGE('',*,*,#190,.F.);
#138=ORIENTED_EDGE('',*,*,#210,.T.);
#139=ORIENTED_EDGE('',*,*,#211,.F.);
#140=ORIENTED_EDGE('',*,*,#212,.F.);
#141=ORIENTED_EDGE('',*,*,#213,.T.);
#142=ORIENTED_EDGE('',*,*,#214,.F.);
#143=ORIENTED_EDGE('',*,*,#215,.F.);
#144=ORIENTED_EDGE('',*,*,#216,.T.);
#145=ORIENTED_EDGE('',*,*,#211,.T.);
#146=ORIENTED_EDGE('',*,*,#217,.F.);
#147=ORIENTED_EDGE('',*,*,#218,.F.);
#148=ORIENTED_EDGE('',*,*,#219,.T.);
#149=ORIENTED_EDGE('',*,*,#215,.T.);
#150=ORIENTED_EDGE('',*,*,#220,.T.);
#151=ORIENTED_EDGE('',*,*,#221,.F.);
#152=ORIENTED_EDGE('',*,*,#222,.F.);
#153=ORIENTED_EDGE('',*,*,#223,.T.);
#154=ORIENTED_EDGE('',*,*,#224,.T.);
#155=ORIENTED_EDGE('',*,*,#225,.F.);
#156=ORIENTED_EDGE('',*,*,#226,.F.);
#157=ORIENTED_EDGE('',*,*,#221,.T.);
#158=ORIENTED_EDGE('',*,*,#227,.T.);
#159=ORIENTED_EDGE('',*,*,#228,.F.);
#160=ORIENTED_EDGE('',*,*,#229,.F.);
#161=ORIENTED_EDGE('',*,*,#225,.T.);
#162=ORIENTED_EDGE('',*,*,#230,.F.);
#163=ORIENTED_EDGE('',*,*,#223,.F.);
#164=ORIENTED_EDGE('',*,*,#231,.T.);
#165=ORIENTED_EDGE('',*,*,#228,.T.);
#166=ORIENTED_EDGE('',*,*,#232,.F.);
#167=ORIENTED_EDGE('',*,*,#213,.F.);
#168=ORIENTED_EDGE('',*,*,#233,.T.);
#169=ORIENTED_EDGE('',*,*,#218,.T.);
#170=ORIENTED_EDGE('',*,*,#222,.T.);
#171=ORIENTED_EDGE('',*,*,#226,.T.);
#172=ORIENTED_EDGE('',*,*,#229,.T.);
#173=ORIENTED_EDGE('',*,*,#231,.F.);
#174=ORIENTED_EDGE('',*,*,#212,.T.);
#175=ORIENTED_EDGE('',*,*,#216,.F.);
#176=ORIENTED_EDGE('',*,*,#219,.F.);
#177=ORIENTED_EDGE('',*,*,#233,.F.);
#178=ORIENTED_EDGE('',*,*,#220,.F.);
#179=ORIENTED_EDGE('',*,*,#230,.T.);
#180=ORIENTED_EDGE('',*,*,#227,.F.);
#181=ORIENTED_EDGE('',*,*,#224,.F.);
#182=ORIENTED_EDGE('',*,*,#210,.F.);
#183=ORIENTED_EDGE('',*,*,#232,.T.);
#184=ORIENTED_EDGE('',*,*,#217,.T.);
#185=ORIENTED_EDGE('',*,*,#214,.T.);
#186=EDGE_CURVE('',#234,#235,#266,.T.);
#187=EDGE_CURVE('',#236,#234,#26,.T.);
#188=EDGE_CURVE('',#236,#237,#267,.T.);
#189=EDGE_CURVE('',#237,#235,#27,.T.);
#190=EDGE_CURVE('',#234,#238,#28,.T.);
#191=EDGE_CURVE('',#239,#238,#29,.T.);
#192=EDGE_CURVE('',#236,#239,#30,.T.);
#193=EDGE_CURVE('',#240,#238,#268,.T.);
#194=EDGE_CURVE('',#241,#240,#31,.T.);
#195=EDGE_CURVE('',#241,#239,#269,.T.);
#196=EDGE_CURVE('',#242,#243,#270,.T.);
#197=EDGE_CURVE('',#244,#243,#32,.T.);
#198=EDGE_CURVE('',#245,#244,#271,.T.);
#199=EDGE_CURVE('',#245,#242,#33,.T.);
#200=EDGE_CURVE('',#243,#246,#34,.T.);
#201=EDGE_CURVE('',#247,#246,#35,.T.);
#202=EDGE_CURVE('',#244,#247,#36,.T.);
#203=EDGE_CURVE('',#246,#248,#272,.T.);
#204=EDGE_CURVE('',#249,#248,#37,.T.);
#205=EDGE_CURVE('',#247,#249,#273,.T.);
#206=EDGE_CURVE('',#242,#248,#38,.T.);
#207=EDGE_CURVE('',#245,#249,#39,.T.);
#208=EDGE_CURVE('',#240,#235,#40,.T.);
#209=EDGE_CURVE('',#241,#237,#41,.T.);
#210=EDGE_CURVE('',#250,#251,#42,.T.);
#211=EDGE_CURVE('',#252,#251,#43,.T.);
#212=EDGE_CURVE('',#253,#252,#44,.T.);
#213=EDGE_CURVE('',#253,#250,#45,.T.);
#214=EDGE_CURVE('',#254,#251,#274,.T.);
#215=EDGE_CURVE('',#255,#254,#46,.T.);
#216=EDGE_CURVE('',#255,#252,#275,.T.);
#217=EDGE_CURVE('',#256,#254,#47,.T.);
#218=EDGE_CURVE('',#257,#256,#48,.T.);
#219=EDGE_CURVE('',#257,#255,#49,.T.);
#220=EDGE_CURVE('',#258,#259,#276,.F.);
#221=EDGE_CURVE('',#260,#259,#50,.T.);
#222=EDGE_CURVE('',#261,#260,#277,.F.);
#223=EDGE_CURVE('',#261,#258,#51,.T.);
#224=EDGE_CURVE('',#259,#262,#52,.T.);
#225=EDGE_CURVE('',#263,#262,#53,.T.);
#226=EDGE_CURVE('',#260,#263,#54,.T.);
#227=EDGE_CURVE('',#262,#264,#278,.T.);
#228=EDGE_CURVE('',#265,#264,#55,.T.);
#229=EDGE_CURVE('',#263,#265,#279,.T.);
#230=EDGE_CURVE('',#258,#264,#56,.T.);
#231=EDGE_CURVE('',#261,#265,#57,.T.);
#232=EDGE_CURVE('',#250,#256,#280,.T.);
#233=EDGE_CURVE('',#253,#257,#281,.T.);
#234=VERTEX_POINT('',#531);
#235=VERTEX_POINT('',#532);
#236=VERTEX_POINT('',#534);
#237=VERTEX_POINT('',#536);
#238=VERTEX_POINT('',#540);
#239=VERTEX_POINT('',#542);
#240=VERTEX_POINT('',#546);
#241=VERTEX_POINT('',#548);
#242=VERTEX_POINT('',#552);
#243=VERTEX_POINT('',#553);
#244=VERTEX_POINT('',#555);
#245=VERTEX_POINT('',#557);
#246=VERTEX_POINT('',#561);
#247=VERTEX_POINT('',#563);
#248=VERTEX_POINT('',#567);
#249=VERTEX_POINT('',#569);
#250=VERTEX_POINT('',#582);
#251=VERTEX_POINT('',#583);
#252=VERTEX_POINT('',#585);
#253=VERTEX_POINT('',#587);
#254=VERTEX_POINT('',#591);
#255=VERTEX_POINT('',#593);
#256=VERTEX_POINT('',#597);
#257=VERTEX_POINT('',#599);
#258=VERTEX_POINT('',#603);
#259=VERTEX_POINT('',#604);
#260=VERTEX_POINT('',#606);
#261=VERTEX_POINT('',#608);
#262=VERTEX_POINT('',#612);
#263=VERTEX_POINT('',#614);
#264=VERTEX_POINT('',#618);
#265=VERTEX_POINT('',#620);
#266=CIRCLE('',#384,1.9);
#267=CIRCLE('',#385,1.9);
#268=CIRCLE('',#388,1.9);
#269=CIRCLE('',#389,1.9);
#270=CIRCLE('',#391,2.0000000000001);
#271=CIRCLE('',#392,2.0000000000001);
#272=CIRCLE('',#395,2.);
#273=CIRCLE('',#396,2.);
#274=CIRCLE('',#404,1.6);
#275=CIRCLE('',#405,1.6);
#276=CIRCLE('',#408,4.99985665319542);
#277=CIRCLE('',#409,4.99985665319542);
#278=CIRCLE('',#412,1.7);
#279=CIRCLE('',#413,1.7);
#280=CIRCLE('',#416,4.90000000000006);
#281=CIRCLE('',#417,4.90000000000006);
#282=EDGE_LOOP('',(#90,#91,#92,#93));
#283=EDGE_LOOP('',(#94,#95,#96,#97));
#284=EDGE_LOOP('',(#98,#99,#100,#101));
#285=EDGE_LOOP('',(#102,#103,#104,#105));
#286=EDGE_LOOP('',(#106,#107,#108,#109));
#287=EDGE_LOOP('',(#110,#111,#112,#113));
#288=EDGE_LOOP('',(#114,#115,#116,#117));
#289=EDGE_LOOP('',(#118,#119,#120,#121));
#290=EDGE_LOOP('',(#122,#123,#124,#125));
#291=EDGE_LOOP('',(#126,#127,#128,#129));
#292=EDGE_LOOP('',(#130,#131,#132,#133));
#293=EDGE_LOOP('',(#134,#135,#136,#137));
#294=EDGE_LOOP('',(#138,#139,#140,#141));
#295=EDGE_LOOP('',(#142,#143,#144,#145));
#296=EDGE_LOOP('',(#146,#147,#148,#149));
#297=EDGE_LOOP('',(#150,#151,#152,#153));
#298=EDGE_LOOP('',(#154,#155,#156,#157));
#299=EDGE_LOOP('',(#158,#159,#160,#161));
#300=EDGE_LOOP('',(#162,#163,#164,#165));
#301=EDGE_LOOP('',(#166,#167,#168,#169));
#302=EDGE_LOOP('',(#170,#171,#172,#173));
#303=EDGE_LOOP('',(#174,#175,#176,#177));
#304=EDGE_LOOP('',(#178,#179,#180,#181));
#305=EDGE_LOOP('',(#182,#183,#184,#185));
#306=FACE_BOUND('',#282,.T.);
#307=FACE_BOUND('',#283,.T.);
#308=FACE_BOUND('',#284,.T.);
#309=FACE_BOUND('',#285,.T.);
#310=FACE_BOUND('',#286,.T.);
#311=FACE_BOUND('',#287,.T.);
#312=FACE_BOUND('',#288,.T.);
#313=FACE_BOUND('',#289,.T.);
#314=FACE_BOUND('',#290,.T.);
#315=FACE_BOUND('',#291,.T.);
#316=FACE_BOUND('',#292,.T.);
#317=FACE_BOUND('',#293,.T.);
#318=FACE_BOUND('',#294,.T.);
#319=FACE_BOUND('',#295,.T.);
#320=FACE_BOUND('',#296,.T.);
#321=FACE_BOUND('',#297,.T.);
#322=FACE_BOUND('',#298,.T.);
#323=FACE_BOUND('',#299,.T.);
#324=FACE_BOUND('',#300,.T.);
#325=FACE_BOUND('',#301,.T.);
#326=FACE_BOUND('',#302,.T.);
#327=FACE_BOUND('',#303,.T.);
#328=FACE_BOUND('',#304,.T.);
#329=FACE_BOUND('',#305,.T.);
#330=CYLINDRICAL_SURFACE('',#383,1.9);
#331=CYLINDRICAL_SURFACE('',#387,1.9);
#332=CYLINDRICAL_SURFACE('',#390,2.0000000000001);
#333=CYLINDRICAL_SURFACE('',#394,2.);
#334=CYLINDRICAL_SURFACE('',#403,1.6);
#335=CYLINDRICAL_SURFACE('',#407,4.99985665319542);
#336=CYLINDRICAL_SURFACE('',#411,1.7);
#337=CYLINDRICAL_SURFACE('',#415,4.90000000000006);
#338=ADVANCED_FACE('',(#306),#330,.F.);
#339=ADVANCED_FACE('',(#307),#14,.F.);
#340=ADVANCED_FACE('',(#308),#331,.F.);
#341=ADVANCED_FACE('',(#309),#332,.T.);
#342=ADVANCED_FACE('',(#310),#15,.F.);
#343=ADVANCED_FACE('',(#311),#333,.T.);
#344=ADVANCED_FACE('',(#312),#16,.T.);
#345=ADVANCED_FACE('',(#313),#17,.F.);
#346=ADVANCED_FACE('',(#314,#315),#18,.T.);
#347=ADVANCED_FACE('',(#316,#317),#19,.F.);
#348=ADVANCED_FACE('',(#318),#20,.F.);
#349=ADVANCED_FACE('',(#319),#334,.F.);
#350=ADVANCED_FACE('',(#320),#21,.T.);
#351=ADVANCED_FACE('',(#321),#335,.T.);
#352=ADVANCED_FACE('',(#322),#22,.F.);
#353=ADVANCED_FACE('',(#323),#336,.T.);
#354=ADVANCED_FACE('',(#324),#23,.T.);
#355=ADVANCED_FACE('',(#325),#337,.F.);
#356=ADVANCED_FACE('',(#326,#327),#24,.T.);
#357=ADVANCED_FACE('',(#328,#329),#25,.F.);
#358=CLOSED_SHELL('',(#338,#339,#340,#341,#342,#343,#344,#345,#346,#347));
#359=CLOSED_SHELL('',(#348,#349,#350,#351,#352,#353,#354,#355,#356,#357));
#360=STYLED_ITEM('',(#362),#376);
#361=STYLED_ITEM('',(#363),#377);
#362=PRESENTATION_STYLE_ASSIGNMENT((#364));
#363=PRESENTATION_STYLE_ASSIGNMENT((#365));
#364=SURFACE_STYLE_USAGE(.BOTH.,#366);
#365=SURFACE_STYLE_USAGE(.BOTH.,#367);
#366=SURFACE_SIDE_STYLE('',(#368));
#367=SURFACE_SIDE_STYLE('',(#369));
#368=SURFACE_STYLE_FILL_AREA(#370);
#369=SURFACE_STYLE_FILL_AREA(#371);
#370=FILL_AREA_STYLE('',(#372));
#371=FILL_AREA_STYLE('',(#373));
#372=FILL_AREA_STYLE_COLOUR('',#374);
#373=FILL_AREA_STYLE_COLOUR('',#375);
#374=COLOUR_RGB('',0.231372549019608,0.380392156862745,0.705882352941177);
#375=COLOUR_RGB('',0.647058823529412,0.647058823529412,0.647058823529412);
#376=MANIFOLD_SOLID_BREP('Part 3',#358);
#377=MANIFOLD_SOLID_BREP('Part 2',#359);
#378=SHAPE_DEFINITION_REPRESENTATION(#642,#380);
#379=SHAPE_DEFINITION_REPRESENTATION(#643,#381);
#380=SHAPE_REPRESENTATION('Part 3',(#382),#632);
#381=SHAPE_REPRESENTATION('Part 2',(#401),#633);
#382=AXIS2_PLACEMENT_3D('',#528,#420,#421);
#383=AXIS2_PLACEMENT_3D('',#529,#422,#423);
#384=AXIS2_PLACEMENT_3D('',#530,#424,#425);
#385=AXIS2_PLACEMENT_3D('',#535,#427,#428);
#386=AXIS2_PLACEMENT_3D('',#538,#430,#431);
#387=AXIS2_PLACEMENT_3D('',#544,#435,#436);
#388=AXIS2_PLACEMENT_3D('',#545,#437,#438);
#389=AXIS2_PLACEMENT_3D('',#549,#440,#441);
#390=AXIS2_PLACEMENT_3D('',#550,#442,#443);
#391=AXIS2_PLACEMENT_3D('',#551,#444,#445);
#392=AXIS2_PLACEMENT_3D('',#556,#447,#448);
#393=AXIS2_PLACEMENT_3D('',#559,#450,#451);
#394=AXIS2_PLACEMENT_3D('',#565,#455,#456);
#395=AXIS2_PLACEMENT_3D('',#566,#457,#458);
#396=AXIS2_PLACEMENT_3D('',#570,#460,#461);
#397=AXIS2_PLACEMENT_3D('',#571,#462,#463);
#398=AXIS2_PLACEMENT_3D('',#574,#466,#467);
#399=AXIS2_PLACEMENT_3D('',#577,#470,#471);
#400=AXIS2_PLACEMENT_3D('',#578,#472,#473);
#401=AXIS2_PLACEMENT_3D('',#579,#474,#475);
#402=AXIS2_PLACEMENT_3D('',#580,#476,#477);
#403=AXIS2_PLACEMENT_3D('',#589,#482,#483);
#404=AXIS2_PLACEMENT_3D('',#590,#484,#485);
#405=AXIS2_PLACEMENT_3D('',#594,#487,#488);
#406=AXIS2_PLACEMENT_3D('',#595,#489,#490);
#407=AXIS2_PLACEMENT_3D('',#601,#494,#495);
#408=AXIS2_PLACEMENT_3D('',#602,#496,#497);
#409=AXIS2_PLACEMENT_3D('',#607,#499,#500);
#410=AXIS2_PLACEMENT_3D('',#610,#502,#503);
#411=AXIS2_PLACEMENT_3D('',#616,#507,#508);
#412=AXIS2_PLACEMENT_3D('',#617,#509,#510);
#413=AXIS2_PLACEMENT_3D('',#621,#512,#513);
#414=AXIS2_PLACEMENT_3D('',#622,#514,#515);
#415=AXIS2_PLACEMENT_3D('',#625,#518,#519);
#416=AXIS2_PLACEMENT_3D('',#626,#520,#521);
#417=AXIS2_PLACEMENT_3D('',#627,#522,#523);
#418=AXIS2_PLACEMENT_3D('',#628,#524,#525);
#419=AXIS2_PLACEMENT_3D('',#629,#526,#527);
#420=DIRECTION('',(0.,0.,1.));
#421=DIRECTION('',(1.,0.,0.));
#422=DIRECTION('',(2.08166817117217E-17,1.,0.));
#423=DIRECTION('',(-1.,2.08166817117217E-17,0.));
#424=DIRECTION('',(-2.08166817117217E-17,-1.,0.));
#425=DIRECTION('',(1.,-2.08166817117217E-17,0.));
#426=DIRECTION('',(2.08166817117217E-17,1.,0.));
#427=DIRECTION('',(-2.08166817117217E-17,-1.,0.));
#428=DIRECTION('',(1.,-2.08166817117217E-17,0.));
#429=DIRECTION('',(2.08166817117217E-17,1.,0.));
#430=DIRECTION('',(0.144710106051064,-3.01238421813448E-18,0.989474095268133));
#431=DIRECTION('',(0.989474095268133,0.,-0.144710106051064));
#432=DIRECTION('',(0.989474095268133,-2.05975673031905E-17,-0.144710106051064));
#433=DIRECTION('',(2.08166817117217E-17,1.,0.));
#434=DIRECTION('',(0.989474095268133,-2.05975673031905E-17,-0.144710106051064));
#435=DIRECTION('',(2.08166817117217E-17,1.,0.));
#436=DIRECTION('',(-1.,2.08166817117217E-17,0.));
#437=DIRECTION('',(-2.08166817117217E-17,-1.,0.));
#438=DIRECTION('',(1.,-2.08166817117217E-17,0.));
#439=DIRECTION('',(2.08166817117217E-17,1.,0.));
#440=DIRECTION('',(-2.08166817117217E-17,-1.,0.));
#441=DIRECTION('',(1.,-2.08166817117217E-17,0.));
#442=DIRECTION('',(2.08166817117217E-17,1.,0.));
#443=DIRECTION('',(-1.,2.08166817117217E-17,0.));
#444=DIRECTION('',(-2.08166817117217E-17,-1.,0.));
#445=DIRECTION('',(1.,-2.08166817117217E-17,0.));
#446=DIRECTION('',(2.08166817117217E-17,1.,0.));
#447=DIRECTION('',(-2.08166817117217E-17,-1.,0.));
#448=DIRECTION('',(1.,-2.08166817117217E-17,0.));
#449=DIRECTION('',(2.08166817117217E-17,1.,0.));
#450=DIRECTION('',(0.144285200795165,-3.00353910066481E-18,0.989536144277458));
#451=DIRECTION('',(0.989536144277458,0.,-0.144285200795165));
#452=DIRECTION('',(0.989536144277458,-2.05988589576681E-17,-0.144285200795165));
#453=DIRECTION('',(2.08166817117217E-17,1.,0.));
#454=DIRECTION('',(0.989536144277458,-2.05988589576681E-17,-0.144285200795165));
#455=DIRECTION('',(2.08166817117217E-17,1.,0.));
#456=DIRECTION('',(-1.,2.08166817117217E-17,0.));
#457=DIRECTION('',(-2.08166817117217E-17,-1.,0.));
#458=DIRECTION('',(1.,-2.08166817117217E-17,0.));
#459=DIRECTION('',(2.08166817117217E-17,1.,0.));
#460=DIRECTION('',(-2.08166817117217E-17,-1.,0.));
#461=DIRECTION('',(1.,-2.08166817117217E-17,0.));
#462=DIRECTION('',(0.144706167870207,-3.01230223827707E-18,0.989474671217166));
#463=DIRECTION('',(0.989474671217166,0.,-0.144706167870207));
#464=DIRECTION('',(0.989474671217166,-2.05975792925382E-17,-0.144706167870207));
#465=DIRECTION('',(0.989474671217166,-2.05975792925382E-17,-0.144706167870207));
#466=DIRECTION('',(-0.144255263954381,3.00291591497875E-18,-0.989540508934046));
#467=DIRECTION('',(-0.989540508934047,0.,0.144255263954381));
#468=DIRECTION('',(-0.989540508934047,2.05989498153351E-17,0.144255263954381));
#469=DIRECTION('',(-0.989540508934047,2.05989498153351E-17,0.144255263954381));
#470=DIRECTION('',(-2.08166817117217E-17,-1.,0.));
#471=DIRECTION('',(1.,-2.08166817117217E-17,0.));
#472=DIRECTION('',(-2.08166817117217E-17,-1.,0.));
#473=DIRECTION('',(1.,-2.08166817117217E-17,0.));
#474=DIRECTION('',(0.,0.,1.));
#475=DIRECTION('',(1.,0.,0.));
#476=DIRECTION('',(0.0746010852900649,0.00768052931767815,-0.997183878501325));
#477=DIRECTION('',(-0.997213292005719,0.,-0.0746032857662231));
#478=DIRECTION('',(0.997213456624781,-0.00057457690617219,0.0745988725640974));
#479=DIRECTION('',(2.10281011353563E-16,-0.999970339225509,-0.00770199125037286));
#480=DIRECTION('',(0.997213456624781,-0.00057457690617219,0.0745988725640974));
#481=DIRECTION('',(2.10281011353563E-16,-0.999970339225509,-0.00770199125037286));
#482=DIRECTION('',(2.10281011353563E-16,-0.999970339225509,-0.00770199125037286));
#483=DIRECTION('',(0.,0.00770199125037286,-0.999970339225509));
#484=DIRECTION('',(-2.10281011353563E-16,0.999970339225509,0.00770199125037286));
#485=DIRECTION('',(0.,-0.00770199125037286,0.999970339225509));
#486=DIRECTION('',(2.10281011353563E-16,-0.999970339225509,-0.00770199125037286));
#487=DIRECTION('',(-2.10281011353563E-16,0.999970339225509,0.00770199125037286));
#488=DIRECTION('',(0.,-0.00770199125037286,0.999970339225509));
#489=DIRECTION('',(-0.181824171964592,0.00757360720831164,-0.983301892077527));
#490=DIRECTION('',(-0.98333009415607,0.,0.181829386863109));
#491=DIRECTION('',(0.983331058438302,0.00140040818157778,-0.18181877891883));
#492=DIRECTION('',(2.10281011353563E-16,-0.999970339225509,-0.00770199125037286));
#493=DIRECTION('',(0.983331058438302,0.00140040818157778,-0.18181877891883));
#494=DIRECTION('',(2.10281011353563E-16,-0.999970339225509,-0.00770199125037286));
#495=DIRECTION('',(0.999999999999539,7.39627023793405E-9,-9.60277730064722E-7));
#496=DIRECTION('',(2.10281011353563E-16,-0.999970339225509,-0.00770199125037286));
#497=DIRECTION('',(0.,0.00770199125037286,-0.999970339225509));
#498=DIRECTION('',(2.10281011353563E-16,-0.999970339225509,-0.00770199125037286));
#499=DIRECTION('',(2.10281011353563E-16,-0.999970339225509,-0.00770199125037286));
#500=DIRECTION('',(0.,0.00770199125037286,-0.999970339225509));
#501=DIRECTION('',(2.10281011353563E-16,-0.999970339225509,-0.00770199125037286));
#502=DIRECTION('',(-0.181564714940824,0.00757397644067153,-0.983349830512689));
#503=DIRECTION('',(-0.983378036716318,0.,0.181569922905642));
#504=DIRECTION('',(0.983378998295397,0.00139840984585087,-0.181559329590759));
#505=DIRECTION('',(2.10281011353563E-16,-0.999970339225509,-0.00770199125037286));
#506=DIRECTION('',(0.983378998295397,0.00139840984585087,-0.181559329590759));
#507=DIRECTION('',(2.10281011353563E-16,-0.999970339225509,-0.00770199125037286));
#508=DIRECTION('',(0.,0.00770199125037286,-0.999970339225509));
#509=DIRECTION('',(-2.10281011353563E-16,0.999970339225509,0.00770199125037286));
#510=DIRECTION('',(0.,-0.00770199125037286,0.999970339225509));
#511=DIRECTION('',(2.10281011353563E-16,-0.999970339225509,-0.00770199125037286));
#512=DIRECTION('',(-2.10281011353563E-16,0.999970339225509,0.00770199125037286));
#513=DIRECTION('',(0.,-0.00770199125037286,0.999970339225509));
#514=DIRECTION('',(0.0745813974831448,0.00768054065994202,-0.997185351098096));
#515=DIRECTION('',(-0.997214764732803,0.,-0.0745835973850779));
#516=DIRECTION('',(0.997214929265232,-0.000574425270855552,0.0745791853411328));
#517=DIRECTION('',(0.997214929265232,-0.000574425270855552,0.0745791853411328));
#518=DIRECTION('',(2.10281011353563E-16,-0.999970339225509,-0.00770199125037286));
#519=DIRECTION('',(0.,0.00770199125037286,-0.999970339225509));
#520=DIRECTION('',(-2.10281011353563E-16,0.999970339225509,0.00770199125037286));
#521=DIRECTION('',(0.,-0.00770199125037286,0.999970339225509));
#522=DIRECTION('',(-2.10281011353563E-16,0.999970339225509,0.00770199125037286));
#523=DIRECTION('',(0.,-0.00770199125037286,0.999970339225509));
#524=DIRECTION('',(-2.10281011353563E-16,0.999970339225509,0.00770199125037286));
#525=DIRECTION('',(-1.,-2.10274774255906E-16,-1.6195825095647E-18));
#526=DIRECTION('',(-2.10281011353563E-16,0.999970339225509,0.00770199125037286));
#527=DIRECTION('',(-1.,-2.10274774255906E-16,-1.6195825095647E-18));
#528=CARTESIAN_POINT('',(0.,0.,0.));
#529=CARTESIAN_POINT('',(-17.4207738794773,0.0539860892502367,7.00641337224573));
#530=CARTESIAN_POINT('',(-17.4207738794773,1.25398608925024,7.00641337224573));
#531=CARTESIAN_POINT('',(-16.9631847777373,1.25398608925024,8.8504882660529));
#532=CARTESIAN_POINT('',(-17.5798258315682,1.25398608925024,5.11308231917158));
#533=CARTESIAN_POINT('',(-16.9631847777373,0.0539860892502367,8.8504882660529));
#534=CARTESIAN_POINT('',(-16.9631847777373,0.0539860892502367,8.8504882660529));
#535=CARTESIAN_POINT('',(-17.4207738794773,0.0539860892502367,7.00641337224573));
#536=CARTESIAN_POINT('',(-17.5798258315682,0.0539860892502367,5.11308231917158));
#537=CARTESIAN_POINT('',(-17.5798258315682,0.0539860892502367,5.11308231917158));
#538=CARTESIAN_POINT('',(-10.1521423796347,0.0539860892502365,7.85437662203798));
#539=CARTESIAN_POINT('',(-10.1521423796347,1.25398608925024,7.85437662203798));
#540=CARTESIAN_POINT('',(-3.39530377670953,1.25398608925024,6.86619225675224));
#541=CARTESIAN_POINT('',(-3.39530377670953,0.0539860892502363,6.86619225675224));
#542=CARTESIAN_POINT('',(-3.39530377670953,0.0539860892502363,6.86619225675224));
#543=CARTESIAN_POINT('',(-10.1521423796347,0.0539860892502365,7.85437662203798));
#544=CARTESIAN_POINT('',(-3.40117847474685,0.0539860892502363,4.96620133889948));
#545=CARTESIAN_POINT('',(-3.40117847474685,1.25398608925024,4.96620133889948));
#546=CARTESIAN_POINT('',(-3.67604223303487,1.25398608925024,3.08618806384534));
#547=CARTESIAN_POINT('',(-3.67604223303487,0.0539860892502363,3.08618806384534));
#548=CARTESIAN_POINT('',(-3.67604223303487,0.0539860892502363,3.08618806384534));
#549=CARTESIAN_POINT('',(-3.40117847474685,0.0539860892502363,4.96620133889948));
#550=CARTESIAN_POINT('',(-17.4207738794773,0.0539860892502367,7.00641337224595));
#551=CARTESIAN_POINT('',(-17.4207738794773,1.25398608925024,7.00641337224595));
#552=CARTESIAN_POINT('',(-16.9398097277623,1.25398608925024,8.94772053103495));
#553=CARTESIAN_POINT('',(-17.584348523027,1.25398608925024,5.01311376205505));
#554=CARTESIAN_POINT('',(-17.584348523027,0.0539860892502367,5.01311376205505));
#555=CARTESIAN_POINT('',(-17.584348523027,0.0539860892502367,5.01311376205505));
#556=CARTESIAN_POINT('',(-17.4207738794773,0.0539860892502367,7.00641337224595));
#557=CARTESIAN_POINT('',(-16.9398097277623,0.0539860892502367,8.94772053103495));
#558=CARTESIAN_POINT('',(-16.9398097277623,0.0539860892502367,8.94772053103495));
#559=CARTESIAN_POINT('',(-10.6370486996821,0.0539860892502365,4.00012140619981));
#560=CARTESIAN_POINT('',(-10.6370486996821,1.25398608925024,4.00012140619981));
#561=CARTESIAN_POINT('',(-3.68974887633718,1.25398608925024,2.98712905034456));
#562=CARTESIAN_POINT('',(-3.68974887633718,0.0539860892502363,2.98712905034456));
#563=CARTESIAN_POINT('',(-3.68974887633718,0.0539860892502363,2.98712905034456));
#564=CARTESIAN_POINT('',(-10.6370486996821,0.0539860892502365,4.00012140619981));
#565=CARTESIAN_POINT('',(-3.40117847474685,0.0539860892502363,4.96620133889948));
#566=CARTESIAN_POINT('',(-3.40117847474685,1.25398608925024,4.96620133889948));
#567=CARTESIAN_POINT('',(-3.39033806658465,1.25398608925024,6.96617196007142));
#568=CARTESIAN_POINT('',(-3.39033806658465,0.0539860892502363,6.96617196007142));
#569=CARTESIAN_POINT('',(-3.39033806658465,0.0539860892502363,6.96617196007142));
#570=CARTESIAN_POINT('',(-3.40117847474685,0.0539860892502363,4.96620133889948));
#571=CARTESIAN_POINT('',(-10.1650738971735,0.0539860892502365,7.95694624555318));
#572=CARTESIAN_POINT('',(-10.1650738971735,1.25398608925024,7.95694624555318));
#573=CARTESIAN_POINT('',(-10.1650738971735,0.0539860892502365,7.95694624555318));
#574=CARTESIAN_POINT('',(-10.6795457204417,0.0539860892502365,4.10715914593839));
#575=CARTESIAN_POINT('',(-10.6795457204417,1.25398608925024,4.10715914593839));
#576=CARTESIAN_POINT('',(-10.6795457204417,0.0539860892502365,4.10715914593839));
#577=CARTESIAN_POINT('',(-10.4109761771121,0.0539860892502365,5.98630735557276));
#578=CARTESIAN_POINT('',(-10.4109761771121,1.25398608925024,5.98630735557276));
#579=CARTESIAN_POINT('',(0.,0.,0.));
#580=CARTESIAN_POINT('',(-4.23188591641507,-2.60116009150132,3.13494123026152));
#581=CARTESIAN_POINT('',(-4.23188591641507,-5.00108890564254,3.11645645126062));
#582=CARTESIAN_POINT('',(-16.6887514861889,-4.99391147814983,2.18459164236313));
#583=CARTESIAN_POINT('',(7.99328953189668,-5.00813283735028,4.03098914161269));
#584=CARTESIAN_POINT('',(7.99328953189668,-2.60820402320906,4.04947392061358));
#585=CARTESIAN_POINT('',(7.99328953189668,-2.60820402320906,4.04947392061358));
#586=CARTESIAN_POINT('',(-4.23188591641507,-2.60116009150132,3.13494123026152));
#587=CARTESIAN_POINT('',(-16.6887514861889,-2.5939826640086,2.20307642136403));
#588=CARTESIAN_POINT('',(-16.6887514861889,-2.5939826640086,2.20307642136403));
#589=CARTESIAN_POINT('',(8.0032582378595,-2.62052697002435,5.64939540929905));
#590=CARTESIAN_POINT('',(8.0032582378595,-5.02045578416557,5.63091063029816));
#591=CARTESIAN_POINT('',(8.01844583509656,-5.03277841497684,7.23079109132821));
#592=CARTESIAN_POINT('',(8.01844583509656,-2.63284960083561,7.24927587032911));
#593=CARTESIAN_POINT('',(8.01844583509656,-2.63284960083561,7.24927587032911));
#594=CARTESIAN_POINT('',(8.0032582378595,-2.62052697002435,5.64939540929905));
#595=CARTESIAN_POINT('',(-3.79303428069785,-2.64967088726683,9.4332289484394));
#596=CARTESIAN_POINT('',(-3.79303428069785,-5.04959970140805,9.41474416943851));
#597=CARTESIAN_POINT('',(-15.6953677427195,-5.06655037637865,11.6154961112987));
#598=CARTESIAN_POINT('',(-15.6953677427195,-2.66662156223743,11.6339808902996));
#599=CARTESIAN_POINT('',(-15.6953677427195,-2.66662156223743,11.6339808902996));
#600=CARTESIAN_POINT('',(-3.79303428069785,-2.64967088726683,9.4332289484394));
#601=CARTESIAN_POINT('',(-17.4208905567106,-2.63129894256124,7.04794971580044));
#602=CARTESIAN_POINT('',(-17.4208905567106,-5.03122775670247,7.02946493679955));
#603=CARTESIAN_POINT('',(-16.6770167540953,-4.9931474104662,2.08539067004976));
#604=CARTESIAN_POINT('',(-15.6352642679797,-5.06719726059381,11.6994828372036));
#605=CARTESIAN_POINT('',(-15.6352551363401,-2.66726863039955,11.7179914985367));
#606=CARTESIAN_POINT('',(-15.6352631730875,-2.66726849628285,11.7179725277645));
#607=CARTESIAN_POINT('',(-17.4208905567106,-2.63129894256124,7.04794971580044));
#608=CARTESIAN_POINT('',(-16.6770167540953,-2.59321859632498,2.10387544905065));
#609=CARTESIAN_POINT('',(-16.6770152342843,-2.5932185185229,2.10386534779611));
#610=CARTESIAN_POINT('',(-3.80384400278796,-2.65044382343485,9.53358134004854));
#611=CARTESIAN_POINT('',(-3.80384400278796,-5.05037263757607,9.51509656104765));
#612=CARTESIAN_POINT('',(8.02756713076417,-5.03354783061136,7.3306864025595));
#613=CARTESIAN_POINT('',(8.02756713076417,-2.63361901647013,7.3491711815604));
#614=CARTESIAN_POINT('',(8.02756713076417,-2.63361901647013,7.3491711815604));
#615=CARTESIAN_POINT('',(-3.80384400278796,-2.65044382343485,9.53358134004854));
#616=CARTESIAN_POINT('',(8.0032582378593,-2.62052697002415,5.64939540927438));
#617=CARTESIAN_POINT('',(8.0032582378593,-5.02045578416538,5.63091063027349));
#618=CARTESIAN_POINT('',(8.00067941543366,-5.00736241410469,3.93096300951265));
#619=CARTESIAN_POINT('',(8.00067941543366,-2.60743359996347,3.94944778851355));
#620=CARTESIAN_POINT('',(8.00067941543366,-2.60743359996347,3.94944778851355));
#621=CARTESIAN_POINT('',(8.0032582378593,-2.62052697002415,5.64939540927438));
#622=CARTESIAN_POINT('',(-4.33816790942533,-2.60032605924318,3.02665656815482));
#623=CARTESIAN_POINT('',(-4.33816790942533,-5.0002548733844,3.00817178915393));
#624=CARTESIAN_POINT('',(-4.33816790942533,-2.60032605924318,3.02665656815482));
#625=CARTESIAN_POINT('',(-17.420773879477,-2.63129890557903,7.04794491429955));
#626=CARTESIAN_POINT('',(-17.420773879477,-5.03122771972025,7.02946013529865));
#627=CARTESIAN_POINT('',(-17.420773879477,-2.63129890557903,7.04794491429955));
#628=CARTESIAN_POINT('',(-6.35875782080888,-2.63129890557902,7.04794491429961));
#629=CARTESIAN_POINT('',(-6.35875782080888,-5.03122771972025,7.02946013529872));
#630=MECHANICAL_DESIGN_GEOMETRIC_PRESENTATION_REPRESENTATION('',(#360),
#632);
#631=MECHANICAL_DESIGN_GEOMETRIC_PRESENTATION_REPRESENTATION('',(#361),
#633);
#632=(
GEOMETRIC_REPRESENTATION_CONTEXT(3)
GLOBAL_UNCERTAINTY_ASSIGNED_CONTEXT((#634))
GLOBAL_UNIT_ASSIGNED_CONTEXT((#640,#638,#636))
REPRESENTATION_CONTEXT('Part 3','TOP_LEVEL_ASSEMBLY_PART')
);
#633=(
GEOMETRIC_REPRESENTATION_CONTEXT(3)
GLOBAL_UNCERTAINTY_ASSIGNED_CONTEXT((#635))
GLOBAL_UNIT_ASSIGNED_CONTEXT((#641,#639,#637))
REPRESENTATION_CONTEXT('Part 2','TOP_LEVEL_ASSEMBLY_PART')
);
#634=UNCERTAINTY_MEASURE_WITH_UNIT(LENGTH_MEASURE(1.E-6),#640,
'DISTANCE_ACCURACY_VALUE','Maximum Tolerance applied to model');
#635=UNCERTAINTY_MEASURE_WITH_UNIT(LENGTH_MEASURE(0.00022),#641,
'DISTANCE_ACCURACY_VALUE','Maximum Tolerance applied to model');
#636=(
NAMED_UNIT(*)
SI_UNIT($,.STERADIAN.)
SOLID_ANGLE_UNIT()
);
#637=(
NAMED_UNIT(*)
SI_UNIT($,.STERADIAN.)
SOLID_ANGLE_UNIT()
);
#638=(
NAMED_UNIT(*)
PLANE_ANGLE_UNIT()
SI_UNIT($,.RADIAN.)
);
#639=(
NAMED_UNIT(*)
PLANE_ANGLE_UNIT()
SI_UNIT($,.RADIAN.)
);
#640=(
LENGTH_UNIT()
NAMED_UNIT(*)
SI_UNIT(.CENTI.,.METRE.)
);
#641=(
LENGTH_UNIT()
NAMED_UNIT(*)
SI_UNIT(.CENTI.,.METRE.)
);
#642=PRODUCT_DEFINITION_SHAPE('','',#644);
#643=PRODUCT_DEFINITION_SHAPE('','',#645);
#644=PRODUCT_DEFINITION('','',#648,#646);
#645=PRODUCT_DEFINITION('','',#649,#647);
#646=PRODUCT_DEFINITION_CONTEXT('',#660,'design');
#647=PRODUCT_DEFINITION_CONTEXT('',#661,'design');
#648=PRODUCT_DEFINITION_FORMATION_WITH_SPECIFIED_SOURCE('','',#652,
 .NOT_KNOWN.);
#649=PRODUCT_DEFINITION_FORMATION_WITH_SPECIFIED_SOURCE('','',#653,
 .NOT_KNOWN.);
#650=PRODUCT_RELATED_PRODUCT_CATEGORY('','',(#652));
#651=PRODUCT_RELATED_PRODUCT_CATEGORY('','',(#653));
#652=PRODUCT('Part 3','Part 3','Part 3',(#656));
#653=PRODUCT('Part 2','Part 2','Part 2',(#657));
#654=PRODUCT_CATEGORY('','');
#655=PRODUCT_CATEGORY('','');
#656=PRODUCT_CONTEXT('',#660,'mechanical');
#657=PRODUCT_CONTEXT('',#661,'mechanical');
#658=APPLICATION_PROTOCOL_DEFINITION('international standard',
'ap242_managed_model_based_3d_engineering',2020,#660);
#659=APPLICATION_PROTOCOL_DEFINITION('international standard',
'ap242_managed_model_based_3d_engineering',2020,#661);
#660=APPLICATION_CONTEXT('managed model based 3d engineering');
#661=APPLICATION_CONTEXT('managed model based 3d engineering');
ENDSEC;
END-ISO-10303-21;
