ISO-10303-21;
HEADER;
/* Generated by software containing ST-Developer
 * from STEP Tools, Inc. (www.steptools.com) 
 */
/* OPTION: using custom renumber hook */

FILE_DESCRIPTION(
/* description */ ('STEP AP242 Edition 2',
'CAx-IF Rec.Pracs.---Representation and Presentation of Product Manufa
cturing Information (PMI)---4.0---2014-10-13',
'CAx-IF Rec.Pracs.---3D Tessellated Geometry---0.4---2014-09-14','2;1',
'CAx-IF Rec.Pracs.---User Defined Attributes---1.5---2016-08-15'),
/* implementation_level */ '2;1');

FILE_NAME(
/* name */ 'Accelerator',
/* time_stamp */ '2026-05-03T07:54:34Z',
/* author */ (''),
/* organization */ (''),
/* preprocessor_version */ 'ST-DEVELOPER v20',
/* originating_system */ 'ONSHAPE BY PTC INC, 1.214',
/* authorisation */ '  ');

FILE_SCHEMA (('AP242_MANAGED_MODEL_BASED_3D_ENGINEERING_MIM_LF { 1 0 10303 442 3 1 4 }'));
ENDSEC;

DATA;
#10=SHAPE_REPRESENTATION_RELATIONSHIP('','',#894,#11);
#11=ADVANCED_BREP_SHAPE_REPRESENTATION('',(#892),#1555);
#12=SPHERICAL_SURFACE('',#1021,0.4);
#13=SPHERICAL_SURFACE('',#1022,0.4);
#14=SPHERICAL_SURFACE('',#1027,0.4);
#15=SPHERICAL_SURFACE('',#1028,0.4);
#16=CONICAL_SURFACE('',#998,0.35,0.785398163397448);
#17=CONICAL_SURFACE('',#999,0.35,0.785398163397449);
#18=CONICAL_SURFACE('',#1000,0.35,0.785398163397448);
#19=CONICAL_SURFACE('',#1001,0.35,0.785398163397449);
#20=CONICAL_SURFACE('',#1002,0.35,0.785398163397448);
#21=CONICAL_SURFACE('',#1003,0.35,0.785398163397448);
#22=CONICAL_SURFACE('',#1004,0.35,0.785398163397448);
#23=CONICAL_SURFACE('',#1005,0.35,0.785398163397448);
#24=CONICAL_SURFACE('',#1006,0.35,0.785398163397448);
#25=CONICAL_SURFACE('',#1007,0.35,0.785398163397448);
#26=CONICAL_SURFACE('',#1008,0.35,0.785398163397448);
#27=CONICAL_SURFACE('',#1009,0.35,0.785398163397448);
#28=CONICAL_SURFACE('',#1010,0.3,0.785398163397449);
#29=CONICAL_SURFACE('',#1011,0.35,0.785398163397448);
#30=CONICAL_SURFACE('',#1012,0.3,0.785398163397449);
#31=CONICAL_SURFACE('',#1013,0.3,0.785398163397449);
#32=CONICAL_SURFACE('',#1014,0.35,0.785398163397448);
#33=CONICAL_SURFACE('',#1015,0.35,0.785398163397448);
#34=CONICAL_SURFACE('',#1016,0.35,0.785398163397448);
#35=CONICAL_SURFACE('',#1017,0.35,0.785398163397448);
#36=CONICAL_SURFACE('',#1018,0.35,0.785398163397448);
#37=CYLINDRICAL_SURFACE('',#947,0.4);
#38=CYLINDRICAL_SURFACE('',#950,0.4);
#39=CYLINDRICAL_SURFACE('',#953,0.35);
#40=CYLINDRICAL_SURFACE('',#955,0.35);
#41=CYLINDRICAL_SURFACE('',#957,0.35);
#42=CYLINDRICAL_SURFACE('',#959,0.35);
#43=CYLINDRICAL_SURFACE('',#961,0.35);
#44=CYLINDRICAL_SURFACE('',#963,0.35);
#45=CYLINDRICAL_SURFACE('',#965,0.35);
#46=CYLINDRICAL_SURFACE('',#967,0.35);
#47=CYLINDRICAL_SURFACE('',#969,0.3);
#48=CYLINDRICAL_SURFACE('',#971,0.35);
#49=CYLINDRICAL_SURFACE('',#973,0.35);
#50=CYLINDRICAL_SURFACE('',#975,0.35);
#51=CYLINDRICAL_SURFACE('',#977,0.3);
#52=CYLINDRICAL_SURFACE('',#979,0.35);
#53=CYLINDRICAL_SURFACE('',#981,0.35);
#54=CYLINDRICAL_SURFACE('',#983,0.35);
#55=CYLINDRICAL_SURFACE('',#985,0.3);
#56=CYLINDRICAL_SURFACE('',#987,0.35);
#57=CYLINDRICAL_SURFACE('',#989,0.35);
#58=CYLINDRICAL_SURFACE('',#991,0.35);
#59=CYLINDRICAL_SURFACE('',#993,0.35);
#60=CYLINDRICAL_SURFACE('',#995,0.4);
#61=CYLINDRICAL_SURFACE('',#1019,0.4);
#62=CYLINDRICAL_SURFACE('',#1024,0.4);
#63=CYLINDRICAL_SURFACE('',#1025,0.4);
#64=CYLINDRICAL_SURFACE('',#1030,0.4);
#65=ELLIPSE('',#923,0.542536681963703,0.4);
#66=ELLIPSE('',#924,0.542536681963703,0.4);
#67=ELLIPSE('',#949,0.42918092559434,0.4);
#68=ELLIPSE('',#952,0.42918092559434,0.4);
#69=LINE('',#1363,#85);
#70=LINE('',#1368,#86);
#71=LINE('',#1370,#87);
#72=LINE('',#1374,#88);
#73=LINE('',#1376,#89);
#74=LINE('',#1380,#90);
#75=LINE('',#1384,#91);
#76=LINE('',#1386,#92);
#77=LINE('',#1388,#93);
#78=LINE('',#1436,#94);
#79=LINE('',#1439,#95);
#80=LINE('',#1440,#96);
#81=LINE('',#1442,#97);
#82=LINE('',#1444,#98);
#83=LINE('',#1446,#99);
#84=LINE('',#1448,#100);
#85=VECTOR('',#1077,100.);
#86=VECTOR('',#1080,100.);
#87=VECTOR('',#1081,100.);
#88=VECTOR('',#1084,100.);
#89=VECTOR('',#1085,100.);
#90=VECTOR('',#1088,100.);
#91=VECTOR('',#1091,100.);
#92=VECTOR('',#1092,100.);
#93=VECTOR('',#1095,100.);
#94=VECTOR('',#1144,100.);
#95=VECTOR('',#1145,100.);
#96=VECTOR('',#1146,100.);
#97=VECTOR('',#1147,100.);
#98=VECTOR('',#1148,100.);
#99=VECTOR('',#1149,100.);
#100=VECTOR('',#1150,100.);
#101=ORIENTED_EDGE('',*,*,#291,.T.);
#102=ORIENTED_EDGE('',*,*,#292,.T.);
#103=ORIENTED_EDGE('',*,*,#293,.T.);
#104=ORIENTED_EDGE('',*,*,#294,.T.);
#105=ORIENTED_EDGE('',*,*,#295,.T.);
#106=ORIENTED_EDGE('',*,*,#296,.T.);
#107=ORIENTED_EDGE('',*,*,#297,.T.);
#108=ORIENTED_EDGE('',*,*,#298,.T.);
#109=ORIENTED_EDGE('',*,*,#299,.T.);
#110=ORIENTED_EDGE('',*,*,#300,.T.);
#111=ORIENTED_EDGE('',*,*,#301,.T.);
#112=ORIENTED_EDGE('',*,*,#302,.T.);
#113=ORIENTED_EDGE('',*,*,#303,.T.);
#114=ORIENTED_EDGE('',*,*,#304,.T.);
#115=ORIENTED_EDGE('',*,*,#305,.T.);
#116=ORIENTED_EDGE('',*,*,#306,.T.);
#117=ORIENTED_EDGE('',*,*,#307,.T.);
#118=ORIENTED_EDGE('',*,*,#308,.T.);
#119=ORIENTED_EDGE('',*,*,#309,.T.);
#120=ORIENTED_EDGE('',*,*,#310,.T.);
#121=ORIENTED_EDGE('',*,*,#311,.T.);
#122=ORIENTED_EDGE('',*,*,#312,.T.);
#123=ORIENTED_EDGE('',*,*,#313,.T.);
#124=ORIENTED_EDGE('',*,*,#314,.T.);
#125=ORIENTED_EDGE('',*,*,#315,.T.);
#126=ORIENTED_EDGE('',*,*,#316,.T.);
#127=ORIENTED_EDGE('',*,*,#317,.T.);
#128=ORIENTED_EDGE('',*,*,#318,.F.);
#129=ORIENTED_EDGE('',*,*,#319,.T.);
#130=ORIENTED_EDGE('',*,*,#320,.T.);
#131=ORIENTED_EDGE('',*,*,#321,.T.);
#132=ORIENTED_EDGE('',*,*,#322,.F.);
#133=ORIENTED_EDGE('',*,*,#323,.T.);
#134=ORIENTED_EDGE('',*,*,#324,.T.);
#135=ORIENTED_EDGE('',*,*,#325,.T.);
#136=ORIENTED_EDGE('',*,*,#323,.F.);
#137=ORIENTED_EDGE('',*,*,#326,.T.);
#138=ORIENTED_EDGE('',*,*,#327,.T.);
#139=ORIENTED_EDGE('',*,*,#328,.T.);
#140=ORIENTED_EDGE('',*,*,#329,.T.);
#141=ORIENTED_EDGE('',*,*,#330,.T.);
#142=ORIENTED_EDGE('',*,*,#331,.T.);
#143=ORIENTED_EDGE('',*,*,#332,.T.);
#144=ORIENTED_EDGE('',*,*,#333,.T.);
#145=ORIENTED_EDGE('',*,*,#334,.T.);
#146=ORIENTED_EDGE('',*,*,#335,.T.);
#147=ORIENTED_EDGE('',*,*,#336,.T.);
#148=ORIENTED_EDGE('',*,*,#337,.T.);
#149=ORIENTED_EDGE('',*,*,#338,.T.);
#150=ORIENTED_EDGE('',*,*,#339,.T.);
#151=ORIENTED_EDGE('',*,*,#340,.T.);
#152=ORIENTED_EDGE('',*,*,#341,.T.);
#153=ORIENTED_EDGE('',*,*,#342,.T.);
#154=ORIENTED_EDGE('',*,*,#343,.T.);
#155=ORIENTED_EDGE('',*,*,#344,.T.);
#156=ORIENTED_EDGE('',*,*,#345,.T.);
#157=ORIENTED_EDGE('',*,*,#346,.T.);
#158=ORIENTED_EDGE('',*,*,#347,.T.);
#159=ORIENTED_EDGE('',*,*,#348,.T.);
#160=ORIENTED_EDGE('',*,*,#349,.T.);
#161=ORIENTED_EDGE('',*,*,#324,.F.);
#162=ORIENTED_EDGE('',*,*,#350,.T.);
#163=ORIENTED_EDGE('',*,*,#351,.T.);
#164=ORIENTED_EDGE('',*,*,#352,.T.);
#165=ORIENTED_EDGE('',*,*,#353,.T.);
#166=ORIENTED_EDGE('',*,*,#354,.T.);
#167=ORIENTED_EDGE('',*,*,#314,.F.);
#168=ORIENTED_EDGE('',*,*,#355,.T.);
#169=ORIENTED_EDGE('',*,*,#348,.F.);
#170=ORIENTED_EDGE('',*,*,#356,.T.);
#171=ORIENTED_EDGE('',*,*,#317,.F.);
#172=ORIENTED_EDGE('',*,*,#357,.T.);
#173=ORIENTED_EDGE('',*,*,#353,.F.);
#174=ORIENTED_EDGE('',*,*,#358,.T.);
#175=ORIENTED_EDGE('',*,*,#359,.T.);
#176=ORIENTED_EDGE('',*,*,#310,.F.);
#177=ORIENTED_EDGE('',*,*,#360,.T.);
#178=ORIENTED_EDGE('',*,*,#309,.F.);
#179=ORIENTED_EDGE('',*,*,#361,.T.);
#180=ORIENTED_EDGE('',*,*,#308,.F.);
#181=ORIENTED_EDGE('',*,*,#362,.T.);
#182=ORIENTED_EDGE('',*,*,#307,.F.);
#183=ORIENTED_EDGE('',*,*,#363,.T.);
#184=ORIENTED_EDGE('',*,*,#306,.F.);
#185=ORIENTED_EDGE('',*,*,#364,.T.);
#186=ORIENTED_EDGE('',*,*,#305,.F.);
#187=ORIENTED_EDGE('',*,*,#365,.T.);
#188=ORIENTED_EDGE('',*,*,#304,.F.);
#189=ORIENTED_EDGE('',*,*,#366,.T.);
#190=ORIENTED_EDGE('',*,*,#303,.F.);
#191=ORIENTED_EDGE('',*,*,#367,.T.);
#192=ORIENTED_EDGE('',*,*,#302,.F.);
#193=ORIENTED_EDGE('',*,*,#368,.T.);
#194=ORIENTED_EDGE('',*,*,#301,.F.);
#195=ORIENTED_EDGE('',*,*,#369,.T.);
#196=ORIENTED_EDGE('',*,*,#300,.F.);
#197=ORIENTED_EDGE('',*,*,#370,.T.);
#198=ORIENTED_EDGE('',*,*,#299,.F.);
#199=ORIENTED_EDGE('',*,*,#371,.T.);
#200=ORIENTED_EDGE('',*,*,#298,.F.);
#201=ORIENTED_EDGE('',*,*,#372,.T.);
#202=ORIENTED_EDGE('',*,*,#297,.F.);
#203=ORIENTED_EDGE('',*,*,#373,.T.);
#204=ORIENTED_EDGE('',*,*,#296,.F.);
#205=ORIENTED_EDGE('',*,*,#374,.T.);
#206=ORIENTED_EDGE('',*,*,#295,.F.);
#207=ORIENTED_EDGE('',*,*,#375,.T.);
#208=ORIENTED_EDGE('',*,*,#294,.F.);
#209=ORIENTED_EDGE('',*,*,#376,.T.);
#210=ORIENTED_EDGE('',*,*,#293,.F.);
#211=ORIENTED_EDGE('',*,*,#377,.T.);
#212=ORIENTED_EDGE('',*,*,#292,.F.);
#213=ORIENTED_EDGE('',*,*,#378,.T.);
#214=ORIENTED_EDGE('',*,*,#291,.F.);
#215=ORIENTED_EDGE('',*,*,#379,.T.);
#216=ORIENTED_EDGE('',*,*,#311,.F.);
#217=ORIENTED_EDGE('',*,*,#351,.F.);
#218=ORIENTED_EDGE('',*,*,#380,.T.);
#219=ORIENTED_EDGE('',*,*,#320,.F.);
#220=ORIENTED_EDGE('',*,*,#381,.T.);
#221=ORIENTED_EDGE('',*,*,#327,.F.);
#222=ORIENTED_EDGE('',*,*,#359,.F.);
#223=ORIENTED_EDGE('',*,*,#328,.F.);
#224=ORIENTED_EDGE('',*,*,#361,.F.);
#225=ORIENTED_EDGE('',*,*,#329,.F.);
#226=ORIENTED_EDGE('',*,*,#365,.F.);
#227=ORIENTED_EDGE('',*,*,#330,.F.);
#228=ORIENTED_EDGE('',*,*,#376,.F.);
#229=ORIENTED_EDGE('',*,*,#331,.F.);
#230=ORIENTED_EDGE('',*,*,#362,.F.);
#231=ORIENTED_EDGE('',*,*,#332,.F.);
#232=ORIENTED_EDGE('',*,*,#366,.F.);
#233=ORIENTED_EDGE('',*,*,#333,.F.);
#234=ORIENTED_EDGE('',*,*,#378,.F.);
#235=ORIENTED_EDGE('',*,*,#334,.F.);
#236=ORIENTED_EDGE('',*,*,#373,.F.);
#237=ORIENTED_EDGE('',*,*,#335,.F.);
#238=ORIENTED_EDGE('',*,*,#372,.F.);
#239=ORIENTED_EDGE('',*,*,#336,.F.);
#240=ORIENTED_EDGE('',*,*,#369,.F.);
#241=ORIENTED_EDGE('',*,*,#337,.F.);
#242=ORIENTED_EDGE('',*,*,#364,.F.);
#243=ORIENTED_EDGE('',*,*,#338,.F.);
#244=ORIENTED_EDGE('',*,*,#363,.F.);
#245=ORIENTED_EDGE('',*,*,#339,.F.);
#246=ORIENTED_EDGE('',*,*,#375,.F.);
#247=ORIENTED_EDGE('',*,*,#340,.F.);
#248=ORIENTED_EDGE('',*,*,#379,.F.);
#249=ORIENTED_EDGE('',*,*,#341,.F.);
#250=ORIENTED_EDGE('',*,*,#371,.F.);
#251=ORIENTED_EDGE('',*,*,#342,.F.);
#252=ORIENTED_EDGE('',*,*,#367,.F.);
#253=ORIENTED_EDGE('',*,*,#343,.F.);
#254=ORIENTED_EDGE('',*,*,#374,.F.);
#255=ORIENTED_EDGE('',*,*,#344,.F.);
#256=ORIENTED_EDGE('',*,*,#377,.F.);
#257=ORIENTED_EDGE('',*,*,#345,.F.);
#258=ORIENTED_EDGE('',*,*,#370,.F.);
#259=ORIENTED_EDGE('',*,*,#346,.F.);
#260=ORIENTED_EDGE('',*,*,#368,.F.);
#261=ORIENTED_EDGE('',*,*,#347,.F.);
#262=ORIENTED_EDGE('',*,*,#360,.F.);
#263=ORIENTED_EDGE('',*,*,#325,.F.);
#264=ORIENTED_EDGE('',*,*,#349,.F.);
#265=ORIENTED_EDGE('',*,*,#382,.F.);
#266=ORIENTED_EDGE('',*,*,#312,.F.);
#267=ORIENTED_EDGE('',*,*,#355,.F.);
#268=ORIENTED_EDGE('',*,*,#313,.F.);
#269=ORIENTED_EDGE('',*,*,#382,.T.);
#270=ORIENTED_EDGE('',*,*,#321,.F.);
#271=ORIENTED_EDGE('',*,*,#380,.F.);
#272=ORIENTED_EDGE('',*,*,#383,.F.);
#273=ORIENTED_EDGE('',*,*,#383,.T.);
#274=ORIENTED_EDGE('',*,*,#350,.F.);
#275=ORIENTED_EDGE('',*,*,#326,.F.);
#276=ORIENTED_EDGE('',*,*,#322,.T.);
#277=ORIENTED_EDGE('',*,*,#356,.F.);
#278=ORIENTED_EDGE('',*,*,#354,.F.);
#279=ORIENTED_EDGE('',*,*,#384,.F.);
#280=ORIENTED_EDGE('',*,*,#315,.F.);
#281=ORIENTED_EDGE('',*,*,#357,.F.);
#282=ORIENTED_EDGE('',*,*,#316,.F.);
#283=ORIENTED_EDGE('',*,*,#384,.T.);
#284=ORIENTED_EDGE('',*,*,#381,.F.);
#285=ORIENTED_EDGE('',*,*,#319,.F.);
#286=ORIENTED_EDGE('',*,*,#385,.F.);
#287=ORIENTED_EDGE('',*,*,#358,.F.);
#288=ORIENTED_EDGE('',*,*,#352,.F.);
#289=ORIENTED_EDGE('',*,*,#385,.T.);
#290=ORIENTED_EDGE('',*,*,#318,.T.);
#291=EDGE_CURVE('',#386,#386,#469,.T.);
#292=EDGE_CURVE('',#387,#387,#470,.T.);
#293=EDGE_CURVE('',#388,#388,#471,.T.);
#294=EDGE_CURVE('',#389,#389,#472,.T.);
#295=EDGE_CURVE('',#390,#390,#473,.T.);
#296=EDGE_CURVE('',#391,#391,#474,.T.);
#297=EDGE_CURVE('',#392,#392,#475,.T.);
#298=EDGE_CURVE('',#393,#393,#476,.T.);
#299=EDGE_CURVE('',#394,#394,#477,.T.);
#300=EDGE_CURVE('',#395,#395,#478,.T.);
#301=EDGE_CURVE('',#396,#396,#479,.T.);
#302=EDGE_CURVE('',#397,#397,#480,.T.);
#303=EDGE_CURVE('',#398,#398,#481,.T.);
#304=EDGE_CURVE('',#399,#399,#482,.T.);
#305=EDGE_CURVE('',#400,#400,#483,.T.);
#306=EDGE_CURVE('',#401,#401,#484,.T.);
#307=EDGE_CURVE('',#402,#402,#485,.T.);
#308=EDGE_CURVE('',#403,#403,#486,.T.);
#309=EDGE_CURVE('',#404,#404,#487,.T.);
#310=EDGE_CURVE('',#405,#405,#488,.T.);
#311=EDGE_CURVE('',#406,#406,#489,.T.);
#312=EDGE_CURVE('',#407,#408,#69,.T.);
#313=EDGE_CURVE('',#408,#409,#490,.F.);
#314=EDGE_CURVE('',#409,#410,#70,.T.);
#315=EDGE_CURVE('',#410,#411,#71,.T.);
#316=EDGE_CURVE('',#411,#412,#491,.F.);
#317=EDGE_CURVE('',#412,#413,#72,.T.);
#318=EDGE_CURVE('',#414,#413,#73,.T.);
#319=EDGE_CURVE('',#414,#415,#492,.F.);
#320=EDGE_CURVE('',#415,#416,#74,.T.);
#321=EDGE_CURVE('',#416,#417,#493,.F.);
#322=EDGE_CURVE('',#418,#417,#75,.T.);
#323=EDGE_CURVE('',#418,#407,#76,.T.);
#324=EDGE_CURVE('',#419,#420,#77,.T.);
#325=EDGE_CURVE('',#420,#407,#65,.T.);
#326=EDGE_CURVE('',#418,#419,#66,.T.);
#327=EDGE_CURVE('',#421,#421,#494,.F.);
#328=EDGE_CURVE('',#422,#422,#495,.F.);
#329=EDGE_CURVE('',#423,#423,#496,.F.);
#330=EDGE_CURVE('',#424,#424,#497,.F.);
#331=EDGE_CURVE('',#425,#425,#498,.F.);
#332=EDGE_CURVE('',#426,#426,#499,.F.);
#333=EDGE_CURVE('',#427,#427,#500,.F.);
#334=EDGE_CURVE('',#428,#428,#501,.F.);
#335=EDGE_CURVE('',#429,#429,#502,.F.);
#336=EDGE_CURVE('',#430,#430,#503,.F.);
#337=EDGE_CURVE('',#431,#431,#504,.F.);
#338=EDGE_CURVE('',#432,#432,#505,.F.);
#339=EDGE_CURVE('',#433,#433,#506,.F.);
#340=EDGE_CURVE('',#434,#434,#507,.F.);
#341=EDGE_CURVE('',#435,#435,#508,.F.);
#342=EDGE_CURVE('',#436,#436,#509,.F.);
#343=EDGE_CURVE('',#437,#437,#510,.F.);
#344=EDGE_CURVE('',#438,#438,#511,.F.);
#345=EDGE_CURVE('',#439,#439,#512,.F.);
#346=EDGE_CURVE('',#440,#440,#513,.F.);
#347=EDGE_CURVE('',#441,#441,#514,.F.);
#348=EDGE_CURVE('',#442,#443,#78,.F.);
#349=EDGE_CURVE('',#443,#420,#79,.T.);
#350=EDGE_CURVE('',#419,#444,#80,.F.);
#351=EDGE_CURVE('',#444,#445,#81,.F.);
#352=EDGE_CURVE('',#445,#446,#82,.F.);
#353=EDGE_CURVE('',#446,#447,#83,.F.);
#354=EDGE_CURVE('',#447,#442,#84,.T.);
#355=EDGE_CURVE('',#409,#443,#515,.T.);
#356=EDGE_CURVE('',#442,#410,#67,.F.);
#357=EDGE_CURVE('',#412,#447,#516,.T.);
#358=EDGE_CURVE('',#446,#413,#68,.F.);
#359=EDGE_CURVE('',#448,#448,#517,.T.);
#360=EDGE_CURVE('',#449,#449,#518,.T.);
#361=EDGE_CURVE('',#450,#450,#519,.T.);
#362=EDGE_CURVE('',#451,#451,#520,.T.);
#363=EDGE_CURVE('',#452,#452,#521,.T.);
#364=EDGE_CURVE('',#453,#453,#522,.T.);
#365=EDGE_CURVE('',#454,#454,#523,.T.);
#366=EDGE_CURVE('',#455,#455,#524,.T.);
#367=EDGE_CURVE('',#456,#456,#525,.T.);
#368=EDGE_CURVE('',#457,#457,#526,.T.);
#369=EDGE_CURVE('',#458,#458,#527,.T.);
#370=EDGE_CURVE('',#459,#459,#528,.T.);
#371=EDGE_CURVE('',#460,#460,#529,.T.);
#372=EDGE_CURVE('',#461,#461,#530,.T.);
#373=EDGE_CURVE('',#462,#462,#531,.T.);
#374=EDGE_CURVE('',#463,#463,#532,.T.);
#375=EDGE_CURVE('',#464,#464,#533,.T.);
#376=EDGE_CURVE('',#465,#465,#534,.T.);
#377=EDGE_CURVE('',#466,#466,#535,.T.);
#378=EDGE_CURVE('',#467,#467,#536,.T.);
#379=EDGE_CURVE('',#468,#468,#537,.T.);
#380=EDGE_CURVE('',#444,#416,#538,.F.);
#381=EDGE_CURVE('',#415,#445,#539,.T.);
#382=EDGE_CURVE('',#408,#443,#540,.T.);
#383=EDGE_CURVE('',#417,#444,#541,.T.);
#384=EDGE_CURVE('',#411,#447,#542,.T.);
#385=EDGE_CURVE('',#445,#414,#543,.T.);
#386=VERTEX_POINT('',#1322);
#387=VERTEX_POINT('',#1324);
#388=VERTEX_POINT('',#1326);
#389=VERTEX_POINT('',#1328);
#390=VERTEX_POINT('',#1330);
#391=VERTEX_POINT('',#1332);
#392=VERTEX_POINT('',#1334);
#393=VERTEX_POINT('',#1336);
#394=VERTEX_POINT('',#1338);
#395=VERTEX_POINT('',#1340);
#396=VERTEX_POINT('',#1342);
#397=VERTEX_POINT('',#1344);
#398=VERTEX_POINT('',#1346);
#399=VERTEX_POINT('',#1348);
#400=VERTEX_POINT('',#1350);
#401=VERTEX_POINT('',#1352);
#402=VERTEX_POINT('',#1354);
#403=VERTEX_POINT('',#1356);
#404=VERTEX_POINT('',#1358);
#405=VERTEX_POINT('',#1360);
#406=VERTEX_POINT('',#1362);
#407=VERTEX_POINT('',#1364);
#408=VERTEX_POINT('',#1365);
#409=VERTEX_POINT('',#1367);
#410=VERTEX_POINT('',#1369);
#411=VERTEX_POINT('',#1371);
#412=VERTEX_POINT('',#1373);
#413=VERTEX_POINT('',#1375);
#414=VERTEX_POINT('',#1377);
#415=VERTEX_POINT('',#1379);
#416=VERTEX_POINT('',#1381);
#417=VERTEX_POINT('',#1383);
#418=VERTEX_POINT('',#1385);
#419=VERTEX_POINT('',#1389);
#420=VERTEX_POINT('',#1390);
#421=VERTEX_POINT('',#1395);
#422=VERTEX_POINT('',#1397);
#423=VERTEX_POINT('',#1399);
#424=VERTEX_POINT('',#1401);
#425=VERTEX_POINT('',#1403);
#426=VERTEX_POINT('',#1405);
#427=VERTEX_POINT('',#1407);
#428=VERTEX_POINT('',#1409);
#429=VERTEX_POINT('',#1411);
#430=VERTEX_POINT('',#1413);
#431=VERTEX_POINT('',#1415);
#432=VERTEX_POINT('',#1417);
#433=VERTEX_POINT('',#1419);
#434=VERTEX_POINT('',#1421);
#435=VERTEX_POINT('',#1423);
#436=VERTEX_POINT('',#1425);
#437=VERTEX_POINT('',#1427);
#438=VERTEX_POINT('',#1429);
#439=VERTEX_POINT('',#1431);
#440=VERTEX_POINT('',#1433);
#441=VERTEX_POINT('',#1435);
#442=VERTEX_POINT('',#1437);
#443=VERTEX_POINT('',#1438);
#444=VERTEX_POINT('',#1441);
#445=VERTEX_POINT('',#1443);
#446=VERTEX_POINT('',#1445);
#447=VERTEX_POINT('',#1447);
#448=VERTEX_POINT('',#1457);
#449=VERTEX_POINT('',#1460);
#450=VERTEX_POINT('',#1463);
#451=VERTEX_POINT('',#1466);
#452=VERTEX_POINT('',#1469);
#453=VERTEX_POINT('',#1472);
#454=VERTEX_POINT('',#1475);
#455=VERTEX_POINT('',#1478);
#456=VERTEX_POINT('',#1481);
#457=VERTEX_POINT('',#1484);
#458=VERTEX_POINT('',#1487);
#459=VERTEX_POINT('',#1490);
#460=VERTEX_POINT('',#1493);
#461=VERTEX_POINT('',#1496);
#462=VERTEX_POINT('',#1499);
#463=VERTEX_POINT('',#1502);
#464=VERTEX_POINT('',#1505);
#465=VERTEX_POINT('',#1508);
#466=VERTEX_POINT('',#1511);
#467=VERTEX_POINT('',#1514);
#468=VERTEX_POINT('',#1517);
#469=CIRCLE('',#897,0.35);
#470=CIRCLE('',#898,0.35);
#471=CIRCLE('',#899,0.35);
#472=CIRCLE('',#900,0.3);
#473=CIRCLE('',#901,0.35);
#474=CIRCLE('',#902,0.35);
#475=CIRCLE('',#903,0.35);
#476=CIRCLE('',#904,0.3);
#477=CIRCLE('',#905,0.35);
#478=CIRCLE('',#906,0.35);
#479=CIRCLE('',#907,0.35);
#480=CIRCLE('',#908,0.3);
#481=CIRCLE('',#909,0.35);
#482=CIRCLE('',#910,0.35);
#483=CIRCLE('',#911,0.35);
#484=CIRCLE('',#912,0.35);
#485=CIRCLE('',#913,0.35);
#486=CIRCLE('',#914,0.35);
#487=CIRCLE('',#915,0.35);
#488=CIRCLE('',#916,0.35);
#489=CIRCLE('',#917,0.35);
#490=CIRCLE('',#918,0.4);
#491=CIRCLE('',#919,0.4);
#492=CIRCLE('',#920,0.4);
#493=CIRCLE('',#921,0.4);
#494=CIRCLE('',#926,0.6);
#495=CIRCLE('',#927,0.6);
#496=CIRCLE('',#928,0.6);
#497=CIRCLE('',#929,0.6);
#498=CIRCLE('',#930,0.6);
#499=CIRCLE('',#931,0.6);
#500=CIRCLE('',#932,0.6);
#501=CIRCLE('',#933,0.6);
#502=CIRCLE('',#934,0.6);
#503=CIRCLE('',#935,0.6);
#504=CIRCLE('',#936,0.6);
#505=CIRCLE('',#937,0.6);
#506=CIRCLE('',#938,0.55);
#507=CIRCLE('',#939,0.6);
#508=CIRCLE('',#940,0.55);
#509=CIRCLE('',#941,0.55);
#510=CIRCLE('',#942,0.6);
#511=CIRCLE('',#943,0.6);
#512=CIRCLE('',#944,0.6);
#513=CIRCLE('',#945,0.6);
#514=CIRCLE('',#946,0.6);
#515=CIRCLE('',#948,0.4);
#516=CIRCLE('',#951,0.4);
#517=CIRCLE('',#954,0.35);
#518=CIRCLE('',#956,0.35);
#519=CIRCLE('',#958,0.35);
#520=CIRCLE('',#960,0.35);
#521=CIRCLE('',#962,0.35);
#522=CIRCLE('',#964,0.35);
#523=CIRCLE('',#966,0.35);
#524=CIRCLE('',#968,0.35);
#525=CIRCLE('',#970,0.3);
#526=CIRCLE('',#972,0.35);
#527=CIRCLE('',#974,0.35);
#528=CIRCLE('',#976,0.35);
#529=CIRCLE('',#978,0.3);
#530=CIRCLE('',#980,0.35);
#531=CIRCLE('',#982,0.35);
#532=CIRCLE('',#984,0.35);
#533=CIRCLE('',#986,0.3);
#534=CIRCLE('',#988,0.35);
#535=CIRCLE('',#990,0.35);
#536=CIRCLE('',#992,0.35);
#537=CIRCLE('',#994,0.35);
#538=CIRCLE('',#996,0.4);
#539=CIRCLE('',#997,0.4);
#540=CIRCLE('',#1020,0.4);
#541=CIRCLE('',#1023,0.4);
#542=CIRCLE('',#1026,0.4);
#543=CIRCLE('',#1029,0.4);
#544=EDGE_LOOP('',(#101));
#545=EDGE_LOOP('',(#102));
#546=EDGE_LOOP('',(#103));
#547=EDGE_LOOP('',(#104));
#548=EDGE_LOOP('',(#105));
#549=EDGE_LOOP('',(#106));
#550=EDGE_LOOP('',(#107));
#551=EDGE_LOOP('',(#108));
#552=EDGE_LOOP('',(#109));
#553=EDGE_LOOP('',(#110));
#554=EDGE_LOOP('',(#111));
#555=EDGE_LOOP('',(#112));
#556=EDGE_LOOP('',(#113));
#557=EDGE_LOOP('',(#114));
#558=EDGE_LOOP('',(#115));
#559=EDGE_LOOP('',(#116));
#560=EDGE_LOOP('',(#117));
#561=EDGE_LOOP('',(#118));
#562=EDGE_LOOP('',(#119));
#563=EDGE_LOOP('',(#120));
#564=EDGE_LOOP('',(#121));
#565=EDGE_LOOP('',(#122,#123,#124,#125,#126,#127,#128,#129,#130,#131,#132,
#133));
#566=EDGE_LOOP('',(#134,#135,#136,#137));
#567=EDGE_LOOP('',(#138));
#568=EDGE_LOOP('',(#139));
#569=EDGE_LOOP('',(#140));
#570=EDGE_LOOP('',(#141));
#571=EDGE_LOOP('',(#142));
#572=EDGE_LOOP('',(#143));
#573=EDGE_LOOP('',(#144));
#574=EDGE_LOOP('',(#145));
#575=EDGE_LOOP('',(#146));
#576=EDGE_LOOP('',(#147));
#577=EDGE_LOOP('',(#148));
#578=EDGE_LOOP('',(#149));
#579=EDGE_LOOP('',(#150));
#580=EDGE_LOOP('',(#151));
#581=EDGE_LOOP('',(#152));
#582=EDGE_LOOP('',(#153));
#583=EDGE_LOOP('',(#154));
#584=EDGE_LOOP('',(#155));
#585=EDGE_LOOP('',(#156));
#586=EDGE_LOOP('',(#157));
#587=EDGE_LOOP('',(#158));
#588=EDGE_LOOP('',(#159,#160,#161,#162,#163,#164,#165,#166));
#589=EDGE_LOOP('',(#167,#168,#169,#170));
#590=EDGE_LOOP('',(#171,#172,#173,#174));
#591=EDGE_LOOP('',(#175));
#592=EDGE_LOOP('',(#176));
#593=EDGE_LOOP('',(#177));
#594=EDGE_LOOP('',(#178));
#595=EDGE_LOOP('',(#179));
#596=EDGE_LOOP('',(#180));
#597=EDGE_LOOP('',(#181));
#598=EDGE_LOOP('',(#182));
#599=EDGE_LOOP('',(#183));
#600=EDGE_LOOP('',(#184));
#601=EDGE_LOOP('',(#185));
#602=EDGE_LOOP('',(#186));
#603=EDGE_LOOP('',(#187));
#604=EDGE_LOOP('',(#188));
#605=EDGE_LOOP('',(#189));
#606=EDGE_LOOP('',(#190));
#607=EDGE_LOOP('',(#191));
#608=EDGE_LOOP('',(#192));
#609=EDGE_LOOP('',(#193));
#610=EDGE_LOOP('',(#194));
#611=EDGE_LOOP('',(#195));
#612=EDGE_LOOP('',(#196));
#613=EDGE_LOOP('',(#197));
#614=EDGE_LOOP('',(#198));
#615=EDGE_LOOP('',(#199));
#616=EDGE_LOOP('',(#200));
#617=EDGE_LOOP('',(#201));
#618=EDGE_LOOP('',(#202));
#619=EDGE_LOOP('',(#203));
#620=EDGE_LOOP('',(#204));
#621=EDGE_LOOP('',(#205));
#622=EDGE_LOOP('',(#206));
#623=EDGE_LOOP('',(#207));
#624=EDGE_LOOP('',(#208));
#625=EDGE_LOOP('',(#209));
#626=EDGE_LOOP('',(#210));
#627=EDGE_LOOP('',(#211));
#628=EDGE_LOOP('',(#212));
#629=EDGE_LOOP('',(#213));
#630=EDGE_LOOP('',(#214));
#631=EDGE_LOOP('',(#215));
#632=EDGE_LOOP('',(#216));
#633=EDGE_LOOP('',(#217,#218,#219,#220));
#634=EDGE_LOOP('',(#221));
#635=EDGE_LOOP('',(#222));
#636=EDGE_LOOP('',(#223));
#637=EDGE_LOOP('',(#224));
#638=EDGE_LOOP('',(#225));
#639=EDGE_LOOP('',(#226));
#640=EDGE_LOOP('',(#227));
#641=EDGE_LOOP('',(#228));
#642=EDGE_LOOP('',(#229));
#643=EDGE_LOOP('',(#230));
#644=EDGE_LOOP('',(#231));
#645=EDGE_LOOP('',(#232));
#646=EDGE_LOOP('',(#233));
#647=EDGE_LOOP('',(#234));
#648=EDGE_LOOP('',(#235));
#649=EDGE_LOOP('',(#236));
#650=EDGE_LOOP('',(#237));
#651=EDGE_LOOP('',(#238));
#652=EDGE_LOOP('',(#239));
#653=EDGE_LOOP('',(#240));
#654=EDGE_LOOP('',(#241));
#655=EDGE_LOOP('',(#242));
#656=EDGE_LOOP('',(#243));
#657=EDGE_LOOP('',(#244));
#658=EDGE_LOOP('',(#245));
#659=EDGE_LOOP('',(#246));
#660=EDGE_LOOP('',(#247));
#661=EDGE_LOOP('',(#248));
#662=EDGE_LOOP('',(#249));
#663=EDGE_LOOP('',(#250));
#664=EDGE_LOOP('',(#251));
#665=EDGE_LOOP('',(#252));
#666=EDGE_LOOP('',(#253));
#667=EDGE_LOOP('',(#254));
#668=EDGE_LOOP('',(#255));
#669=EDGE_LOOP('',(#256));
#670=EDGE_LOOP('',(#257));
#671=EDGE_LOOP('',(#258));
#672=EDGE_LOOP('',(#259));
#673=EDGE_LOOP('',(#260));
#674=EDGE_LOOP('',(#261));
#675=EDGE_LOOP('',(#262));
#676=EDGE_LOOP('',(#263,#264,#265,#266));
#677=EDGE_LOOP('',(#267,#268,#269));
#678=EDGE_LOOP('',(#270,#271,#272));
#679=EDGE_LOOP('',(#273,#274,#275,#276));
#680=EDGE_LOOP('',(#277,#278,#279,#280));
#681=EDGE_LOOP('',(#281,#282,#283));
#682=EDGE_LOOP('',(#284,#285,#286));
#683=EDGE_LOOP('',(#287,#288,#289,#290));
#684=FACE_BOUND('',#544,.T.);
#685=FACE_BOUND('',#545,.T.);
#686=FACE_BOUND('',#546,.T.);
#687=FACE_BOUND('',#547,.T.);
#688=FACE_BOUND('',#548,.T.);
#689=FACE_BOUND('',#549,.T.);
#690=FACE_BOUND('',#550,.T.);
#691=FACE_BOUND('',#551,.T.);
#692=FACE_BOUND('',#552,.T.);
#693=FACE_BOUND('',#553,.T.);
#694=FACE_BOUND('',#554,.T.);
#695=FACE_BOUND('',#555,.T.);
#696=FACE_BOUND('',#556,.T.);
#697=FACE_BOUND('',#557,.T.);
#698=FACE_BOUND('',#558,.T.);
#699=FACE_BOUND('',#559,.T.);
#700=FACE_BOUND('',#560,.T.);
#701=FACE_BOUND('',#561,.T.);
#702=FACE_BOUND('',#562,.T.);
#703=FACE_BOUND('',#563,.T.);
#704=FACE_BOUND('',#564,.T.);
#705=FACE_BOUND('',#565,.T.);
#706=FACE_BOUND('',#566,.T.);
#707=FACE_BOUND('',#567,.T.);
#708=FACE_BOUND('',#568,.T.);
#709=FACE_BOUND('',#569,.T.);
#710=FACE_BOUND('',#570,.T.);
#711=FACE_BOUND('',#571,.T.);
#712=FACE_BOUND('',#572,.T.);
#713=FACE_BOUND('',#573,.T.);
#714=FACE_BOUND('',#574,.T.);
#715=FACE_BOUND('',#575,.T.);
#716=FACE_BOUND('',#576,.T.);
#717=FACE_BOUND('',#577,.T.);
#718=FACE_BOUND('',#578,.T.);
#719=FACE_BOUND('',#579,.T.);
#720=FACE_BOUND('',#580,.T.);
#721=FACE_BOUND('',#581,.T.);
#722=FACE_BOUND('',#582,.T.);
#723=FACE_BOUND('',#583,.T.);
#724=FACE_BOUND('',#584,.T.);
#725=FACE_BOUND('',#585,.T.);
#726=FACE_BOUND('',#586,.T.);
#727=FACE_BOUND('',#587,.T.);
#728=FACE_BOUND('',#588,.T.);
#729=FACE_BOUND('',#589,.T.);
#730=FACE_BOUND('',#590,.T.);
#731=FACE_BOUND('',#591,.T.);
#732=FACE_BOUND('',#592,.T.);
#733=FACE_BOUND('',#593,.T.);
#734=FACE_BOUND('',#594,.T.);
#735=FACE_BOUND('',#595,.T.);
#736=FACE_BOUND('',#596,.T.);
#737=FACE_BOUND('',#597,.T.);
#738=FACE_BOUND('',#598,.T.);
#739=FACE_BOUND('',#599,.T.);
#740=FACE_BOUND('',#600,.T.);
#741=FACE_BOUND('',#601,.T.);
#742=FACE_BOUND('',#602,.T.);
#743=FACE_BOUND('',#603,.T.);
#744=FACE_BOUND('',#604,.T.);
#745=FACE_BOUND('',#605,.T.);
#746=FACE_BOUND('',#606,.T.);
#747=FACE_BOUND('',#607,.T.);
#748=FACE_BOUND('',#608,.T.);
#749=FACE_BOUND('',#609,.T.);
#750=FACE_BOUND('',#610,.T.);
#751=FACE_BOUND('',#611,.T.);
#752=FACE_BOUND('',#612,.T.);
#753=FACE_BOUND('',#613,.T.);
#754=FACE_BOUND('',#614,.T.);
#755=FACE_BOUND('',#615,.T.);
#756=FACE_BOUND('',#616,.T.);
#757=FACE_BOUND('',#617,.T.);
#758=FACE_BOUND('',#618,.T.);
#759=FACE_BOUND('',#619,.T.);
#760=FACE_BOUND('',#620,.T.);
#761=FACE_BOUND('',#621,.T.);
#762=FACE_BOUND('',#622,.T.);
#763=FACE_BOUND('',#623,.T.);
#764=FACE_BOUND('',#624,.T.);
#765=FACE_BOUND('',#625,.T.);
#766=FACE_BOUND('',#626,.T.);
#767=FACE_BOUND('',#627,.T.);
#768=FACE_BOUND('',#628,.T.);
#769=FACE_BOUND('',#629,.T.);
#770=FACE_BOUND('',#630,.T.);
#771=FACE_BOUND('',#631,.T.);
#772=FACE_BOUND('',#632,.T.);
#773=FACE_BOUND('',#633,.T.);
#774=FACE_BOUND('',#634,.T.);
#775=FACE_BOUND('',#635,.T.);
#776=FACE_BOUND('',#636,.T.);
#777=FACE_BOUND('',#637,.T.);
#778=FACE_BOUND('',#638,.T.);
#779=FACE_BOUND('',#639,.T.);
#780=FACE_BOUND('',#640,.T.);
#781=FACE_BOUND('',#641,.T.);
#782=FACE_BOUND('',#642,.T.);
#783=FACE_BOUND('',#643,.T.);
#784=FACE_BOUND('',#644,.T.);
#785=FACE_BOUND('',#645,.T.);
#786=FACE_BOUND('',#646,.T.);
#787=FACE_BOUND('',#647,.T.);
#788=FACE_BOUND('',#648,.T.);
#789=FACE_BOUND('',#649,.T.);
#790=FACE_BOUND('',#650,.T.);
#791=FACE_BOUND('',#651,.T.);
#792=FACE_BOUND('',#652,.T.);
#793=FACE_BOUND('',#653,.T.);
#794=FACE_BOUND('',#654,.T.);
#795=FACE_BOUND('',#655,.T.);
#796=FACE_BOUND('',#656,.T.);
#797=FACE_BOUND('',#657,.T.);
#798=FACE_BOUND('',#658,.T.);
#799=FACE_BOUND('',#659,.T.);
#800=FACE_BOUND('',#660,.T.);
#801=FACE_BOUND('',#661,.T.);
#802=FACE_BOUND('',#662,.T.);
#803=FACE_BOUND('',#663,.T.);
#804=FACE_BOUND('',#664,.T.);
#805=FACE_BOUND('',#665,.T.);
#806=FACE_BOUND('',#666,.T.);
#807=FACE_BOUND('',#667,.T.);
#808=FACE_BOUND('',#668,.T.);
#809=FACE_BOUND('',#669,.T.);
#810=FACE_BOUND('',#670,.T.);
#811=FACE_BOUND('',#671,.T.);
#812=FACE_BOUND('',#672,.T.);
#813=FACE_BOUND('',#673,.T.);
#814=FACE_BOUND('',#674,.T.);
#815=FACE_BOUND('',#675,.T.);
#816=FACE_BOUND('',#676,.T.);
#817=FACE_BOUND('',#677,.T.);
#818=FACE_BOUND('',#678,.T.);
#819=FACE_BOUND('',#679,.T.);
#820=FACE_BOUND('',#680,.T.);
#821=FACE_BOUND('',#681,.T.);
#822=FACE_BOUND('',#682,.T.);
#823=FACE_BOUND('',#683,.T.);
#824=PLANE('',#896);
#825=PLANE('',#922);
#826=PLANE('',#925);
#827=ADVANCED_FACE('',(#684,#685,#686,#687,#688,#689,#690,#691,#692,#693,
#694,#695,#696,#697,#698,#699,#700,#701,#702,#703,#704,#705),#824,.F.);
#828=ADVANCED_FACE('',(#706),#825,.T.);
#829=ADVANCED_FACE('',(#707,#708,#709,#710,#711,#712,#713,#714,#715,#716,
#717,#718,#719,#720,#721,#722,#723,#724,#725,#726,#727,#728),#826,.T.);
#830=ADVANCED_FACE('',(#729),#37,.T.);
#831=ADVANCED_FACE('',(#730),#38,.T.);
#832=ADVANCED_FACE('',(#731,#732),#39,.F.);
#833=ADVANCED_FACE('',(#733,#734),#40,.F.);
#834=ADVANCED_FACE('',(#735,#736),#41,.F.);
#835=ADVANCED_FACE('',(#737,#738),#42,.F.);
#836=ADVANCED_FACE('',(#739,#740),#43,.F.);
#837=ADVANCED_FACE('',(#741,#742),#44,.F.);
#838=ADVANCED_FACE('',(#743,#744),#45,.F.);
#839=ADVANCED_FACE('',(#745,#746),#46,.F.);
#840=ADVANCED_FACE('',(#747,#748),#47,.F.);
#841=ADVANCED_FACE('',(#749,#750),#48,.F.);
#842=ADVANCED_FACE('',(#751,#752),#49,.F.);
#843=ADVANCED_FACE('',(#753,#754),#50,.F.);
#844=ADVANCED_FACE('',(#755,#756),#51,.F.);
#845=ADVANCED_FACE('',(#757,#758),#52,.F.);
#846=ADVANCED_FACE('',(#759,#760),#53,.F.);
#847=ADVANCED_FACE('',(#761,#762),#54,.F.);
#848=ADVANCED_FACE('',(#763,#764),#55,.F.);
#849=ADVANCED_FACE('',(#765,#766),#56,.F.);
#850=ADVANCED_FACE('',(#767,#768),#57,.F.);
#851=ADVANCED_FACE('',(#769,#770),#58,.F.);
#852=ADVANCED_FACE('',(#771,#772),#59,.F.);
#853=ADVANCED_FACE('',(#773),#60,.T.);
#854=ADVANCED_FACE('',(#774,#775),#16,.F.);
#855=ADVANCED_FACE('',(#776,#777),#17,.F.);
#856=ADVANCED_FACE('',(#778,#779),#18,.F.);
#857=ADVANCED_FACE('',(#780,#781),#19,.F.);
#858=ADVANCED_FACE('',(#782,#783),#20,.F.);
#859=ADVANCED_FACE('',(#784,#785),#21,.F.);
#860=ADVANCED_FACE('',(#786,#787),#22,.F.);
#861=ADVANCED_FACE('',(#788,#789),#23,.F.);
#862=ADVANCED_FACE('',(#790,#791),#24,.F.);
#863=ADVANCED_FACE('',(#792,#793),#25,.F.);
#864=ADVANCED_FACE('',(#794,#795),#26,.F.);
#865=ADVANCED_FACE('',(#796,#797),#27,.F.);
#866=ADVANCED_FACE('',(#798,#799),#28,.F.);
#867=ADVANCED_FACE('',(#800,#801),#29,.F.);
#868=ADVANCED_FACE('',(#802,#803),#30,.F.);
#869=ADVANCED_FACE('',(#804,#805),#31,.F.);
#870=ADVANCED_FACE('',(#806,#807),#32,.F.);
#871=ADVANCED_FACE('',(#808,#809),#33,.F.);
#872=ADVANCED_FACE('',(#810,#811),#34,.F.);
#873=ADVANCED_FACE('',(#812,#813),#35,.F.);
#874=ADVANCED_FACE('',(#814,#815),#36,.F.);
#875=ADVANCED_FACE('',(#816),#61,.T.);
#876=ADVANCED_FACE('',(#817),#12,.T.);
#877=ADVANCED_FACE('',(#818),#13,.T.);
#878=ADVANCED_FACE('',(#819),#62,.T.);
#879=ADVANCED_FACE('',(#820),#63,.T.);
#880=ADVANCED_FACE('',(#821),#14,.T.);
#881=ADVANCED_FACE('',(#822),#15,.T.);
#882=ADVANCED_FACE('',(#823),#64,.T.);
#883=CLOSED_SHELL('',(#827,#828,#829,#830,#831,#832,#833,#834,#835,#836,
#837,#838,#839,#840,#841,#842,#843,#844,#845,#846,#847,#848,#849,#850,#851,
#852,#853,#854,#855,#856,#857,#858,#859,#860,#861,#862,#863,#864,#865,#866,
#867,#868,#869,#870,#871,#872,#873,#874,#875,#876,#877,#878,#879,#880,#881,
#882));
#884=STYLED_ITEM('',(#885),#892);
#885=PRESENTATION_STYLE_ASSIGNMENT((#886));
#886=SURFACE_STYLE_USAGE(.BOTH.,#887);
#887=SURFACE_SIDE_STYLE('',(#888));
#888=SURFACE_STYLE_FILL_AREA(#889);
#889=FILL_AREA_STYLE('',(#890));
#890=FILL_AREA_STYLE_COLOUR('',#891);
#891=COLOUR_RGB('',0.615686274509804,0.811764705882353,0.929411764705882);
#892=MANIFOLD_SOLID_BREP('Part 1',#883);
#893=SHAPE_DEFINITION_REPRESENTATION(#1560,#894);
#894=SHAPE_REPRESENTATION('Part 1',(#895),#1555);
#895=AXIS2_PLACEMENT_3D('',#1319,#1031,#1032);
#896=AXIS2_PLACEMENT_3D('',#1320,#1033,#1034);
#897=AXIS2_PLACEMENT_3D('',#1321,#1035,#1036);
#898=AXIS2_PLACEMENT_3D('',#1323,#1037,#1038);
#899=AXIS2_PLACEMENT_3D('',#1325,#1039,#1040);
#900=AXIS2_PLACEMENT_3D('',#1327,#1041,#1042);
#901=AXIS2_PLACEMENT_3D('',#1329,#1043,#1044);
#902=AXIS2_PLACEMENT_3D('',#1331,#1045,#1046);
#903=AXIS2_PLACEMENT_3D('',#1333,#1047,#1048);
#904=AXIS2_PLACEMENT_3D('',#1335,#1049,#1050);
#905=AXIS2_PLACEMENT_3D('',#1337,#1051,#1052);
#906=AXIS2_PLACEMENT_3D('',#1339,#1053,#1054);
#907=AXIS2_PLACEMENT_3D('',#1341,#1055,#1056);
#908=AXIS2_PLACEMENT_3D('',#1343,#1057,#1058);
#909=AXIS2_PLACEMENT_3D('',#1345,#1059,#1060);
#910=AXIS2_PLACEMENT_3D('',#1347,#1061,#1062);
#911=AXIS2_PLACEMENT_3D('',#1349,#1063,#1064);
#912=AXIS2_PLACEMENT_3D('',#1351,#1065,#1066);
#913=AXIS2_PLACEMENT_3D('',#1353,#1067,#1068);
#914=AXIS2_PLACEMENT_3D('',#1355,#1069,#1070);
#915=AXIS2_PLACEMENT_3D('',#1357,#1071,#1072);
#916=AXIS2_PLACEMENT_3D('',#1359,#1073,#1074);
#917=AXIS2_PLACEMENT_3D('',#1361,#1075,#1076);
#918=AXIS2_PLACEMENT_3D('',#1366,#1078,#1079);
#919=AXIS2_PLACEMENT_3D('',#1372,#1082,#1083);
#920=AXIS2_PLACEMENT_3D('',#1378,#1086,#1087);
#921=AXIS2_PLACEMENT_3D('',#1382,#1089,#1090);
#922=AXIS2_PLACEMENT_3D('',#1387,#1093,#1094);
#923=AXIS2_PLACEMENT_3D('',#1391,#1096,#1097);
#924=AXIS2_PLACEMENT_3D('',#1392,#1098,#1099);
#925=AXIS2_PLACEMENT_3D('',#1393,#1100,#1101);
#926=AXIS2_PLACEMENT_3D('',#1394,#1102,#1103);
#927=AXIS2_PLACEMENT_3D('',#1396,#1104,#1105);
#928=AXIS2_PLACEMENT_3D('',#1398,#1106,#1107);
#929=AXIS2_PLACEMENT_3D('',#1400,#1108,#1109);
#930=AXIS2_PLACEMENT_3D('',#1402,#1110,#1111);
#931=AXIS2_PLACEMENT_3D('',#1404,#1112,#1113);
#932=AXIS2_PLACEMENT_3D('',#1406,#1114,#1115);
#933=AXIS2_PLACEMENT_3D('',#1408,#1116,#1117);
#934=AXIS2_PLACEMENT_3D('',#1410,#1118,#1119);
#935=AXIS2_PLACEMENT_3D('',#1412,#1120,#1121);
#936=AXIS2_PLACEMENT_3D('',#1414,#1122,#1123);
#937=AXIS2_PLACEMENT_3D('',#1416,#1124,#1125);
#938=AXIS2_PLACEMENT_3D('',#1418,#1126,#1127);
#939=AXIS2_PLACEMENT_3D('',#1420,#1128,#1129);
#940=AXIS2_PLACEMENT_3D('',#1422,#1130,#1131);
#941=AXIS2_PLACEMENT_3D('',#1424,#1132,#1133);
#942=AXIS2_PLACEMENT_3D('',#1426,#1134,#1135);
#943=AXIS2_PLACEMENT_3D('',#1428,#1136,#1137);
#944=AXIS2_PLACEMENT_3D('',#1430,#1138,#1139);
#945=AXIS2_PLACEMENT_3D('',#1432,#1140,#1141);
#946=AXIS2_PLACEMENT_3D('',#1434,#1142,#1143);
#947=AXIS2_PLACEMENT_3D('',#1449,#1151,#1152);
#948=AXIS2_PLACEMENT_3D('',#1450,#1153,#1154);
#949=AXIS2_PLACEMENT_3D('',#1451,#1155,#1156);
#950=AXIS2_PLACEMENT_3D('',#1452,#1157,#1158);
#951=AXIS2_PLACEMENT_3D('',#1453,#1159,#1160);
#952=AXIS2_PLACEMENT_3D('',#1454,#1161,#1162);
#953=AXIS2_PLACEMENT_3D('',#1455,#1163,#1164);
#954=AXIS2_PLACEMENT_3D('',#1456,#1165,#1166);
#955=AXIS2_PLACEMENT_3D('',#1458,#1167,#1168);
#956=AXIS2_PLACEMENT_3D('',#1459,#1169,#1170);
#957=AXIS2_PLACEMENT_3D('',#1461,#1171,#1172);
#958=AXIS2_PLACEMENT_3D('',#1462,#1173,#1174);
#959=AXIS2_PLACEMENT_3D('',#1464,#1175,#1176);
#960=AXIS2_PLACEMENT_3D('',#1465,#1177,#1178);
#961=AXIS2_PLACEMENT_3D('',#1467,#1179,#1180);
#962=AXIS2_PLACEMENT_3D('',#1468,#1181,#1182);
#963=AXIS2_PLACEMENT_3D('',#1470,#1183,#1184);
#964=AXIS2_PLACEMENT_3D('',#1471,#1185,#1186);
#965=AXIS2_PLACEMENT_3D('',#1473,#1187,#1188);
#966=AXIS2_PLACEMENT_3D('',#1474,#1189,#1190);
#967=AXIS2_PLACEMENT_3D('',#1476,#1191,#1192);
#968=AXIS2_PLACEMENT_3D('',#1477,#1193,#1194);
#969=AXIS2_PLACEMENT_3D('',#1479,#1195,#1196);
#970=AXIS2_PLACEMENT_3D('',#1480,#1197,#1198);
#971=AXIS2_PLACEMENT_3D('',#1482,#1199,#1200);
#972=AXIS2_PLACEMENT_3D('',#1483,#1201,#1202);
#973=AXIS2_PLACEMENT_3D('',#1485,#1203,#1204);
#974=AXIS2_PLACEMENT_3D('',#1486,#1205,#1206);
#975=AXIS2_PLACEMENT_3D('',#1488,#1207,#1208);
#976=AXIS2_PLACEMENT_3D('',#1489,#1209,#1210);
#977=AXIS2_PLACEMENT_3D('',#1491,#1211,#1212);
#978=AXIS2_PLACEMENT_3D('',#1492,#1213,#1214);
#979=AXIS2_PLACEMENT_3D('',#1494,#1215,#1216);
#980=AXIS2_PLACEMENT_3D('',#1495,#1217,#1218);
#981=AXIS2_PLACEMENT_3D('',#1497,#1219,#1220);
#982=AXIS2_PLACEMENT_3D('',#1498,#1221,#1222);
#983=AXIS2_PLACEMENT_3D('',#1500,#1223,#1224);
#984=AXIS2_PLACEMENT_3D('',#1501,#1225,#1226);
#985=AXIS2_PLACEMENT_3D('',#1503,#1227,#1228);
#986=AXIS2_PLACEMENT_3D('',#1504,#1229,#1230);
#987=AXIS2_PLACEMENT_3D('',#1506,#1231,#1232);
#988=AXIS2_PLACEMENT_3D('',#1507,#1233,#1234);
#989=AXIS2_PLACEMENT_3D('',#1509,#1235,#1236);
#990=AXIS2_PLACEMENT_3D('',#1510,#1237,#1238);
#991=AXIS2_PLACEMENT_3D('',#1512,#1239,#1240);
#992=AXIS2_PLACEMENT_3D('',#1513,#1241,#1242);
#993=AXIS2_PLACEMENT_3D('',#1515,#1243,#1244);
#994=AXIS2_PLACEMENT_3D('',#1516,#1245,#1246);
#995=AXIS2_PLACEMENT_3D('',#1518,#1247,#1248);
#996=AXIS2_PLACEMENT_3D('',#1519,#1249,#1250);
#997=AXIS2_PLACEMENT_3D('',#1520,#1251,#1252);
#998=AXIS2_PLACEMENT_3D('',#1521,#1253,#1254);
#999=AXIS2_PLACEMENT_3D('',#1522,#1255,#1256);
#1000=AXIS2_PLACEMENT_3D('',#1523,#1257,#1258);
#1001=AXIS2_PLACEMENT_3D('',#1524,#1259,#1260);
#1002=AXIS2_PLACEMENT_3D('',#1525,#1261,#1262);
#1003=AXIS2_PLACEMENT_3D('',#1526,#1263,#1264);
#1004=AXIS2_PLACEMENT_3D('',#1527,#1265,#1266);
#1005=AXIS2_PLACEMENT_3D('',#1528,#1267,#1268);
#1006=AXIS2_PLACEMENT_3D('',#1529,#1269,#1270);
#1007=AXIS2_PLACEMENT_3D('',#1530,#1271,#1272);
#1008=AXIS2_PLACEMENT_3D('',#1531,#1273,#1274);
#1009=AXIS2_PLACEMENT_3D('',#1532,#1275,#1276);
#1010=AXIS2_PLACEMENT_3D('',#1533,#1277,#1278);
#1011=AXIS2_PLACEMENT_3D('',#1534,#1279,#1280);
#1012=AXIS2_PLACEMENT_3D('',#1535,#1281,#1282);
#1013=AXIS2_PLACEMENT_3D('',#1536,#1283,#1284);
#1014=AXIS2_PLACEMENT_3D('',#1537,#1285,#1286);
#1015=AXIS2_PLACEMENT_3D('',#1538,#1287,#1288);
#1016=AXIS2_PLACEMENT_3D('',#1539,#1289,#1290);
#1017=AXIS2_PLACEMENT_3D('',#1540,#1291,#1292);
#1018=AXIS2_PLACEMENT_3D('',#1541,#1293,#1294);
#1019=AXIS2_PLACEMENT_3D('',#1542,#1295,#1296);
#1020=AXIS2_PLACEMENT_3D('',#1543,#1297,#1298);
#1021=AXIS2_PLACEMENT_3D('',#1544,#1299,#1300);
#1022=AXIS2_PLACEMENT_3D('',#1545,#1301,#1302);
#1023=AXIS2_PLACEMENT_3D('',#1546,#1303,#1304);
#1024=AXIS2_PLACEMENT_3D('',#1547,#1305,#1306);
#1025=AXIS2_PLACEMENT_3D('',#1548,#1307,#1308);
#1026=AXIS2_PLACEMENT_3D('',#1549,#1309,#1310);
#1027=AXIS2_PLACEMENT_3D('',#1550,#1311,#1312);
#1028=AXIS2_PLACEMENT_3D('',#1551,#1313,#1314);
#1029=AXIS2_PLACEMENT_3D('',#1552,#1315,#1316);
#1030=AXIS2_PLACEMENT_3D('',#1553,#1317,#1318);
#1031=DIRECTION('',(0.,0.,1.));
#1032=DIRECTION('',(1.,0.,0.));
#1033=DIRECTION('',(0.,0.,1.));
#1034=DIRECTION('',(1.,0.,0.));
#1035=DIRECTION('',(0.,0.,1.));
#1036=DIRECTION('',(1.,0.,0.));
#1037=DIRECTION('',(0.,0.,1.));
#1038=DIRECTION('',(1.,0.,0.));
#1039=DIRECTION('',(0.,0.,1.));
#1040=DIRECTION('',(1.,0.,0.));
#1041=DIRECTION('',(0.,0.,1.));
#1042=DIRECTION('',(1.,0.,0.));
#1043=DIRECTION('',(0.,0.,1.));
#1044=DIRECTION('',(1.,0.,0.));
#1045=DIRECTION('',(0.,0.,1.));
#1046=DIRECTION('',(1.,0.,0.));
#1047=DIRECTION('',(0.,0.,1.));
#1048=DIRECTION('',(1.,0.,0.));
#1049=DIRECTION('',(0.,0.,1.));
#1050=DIRECTION('',(1.,0.,0.));
#1051=DIRECTION('',(0.,0.,1.));
#1052=DIRECTION('',(1.,0.,0.));
#1053=DIRECTION('',(0.,0.,1.));
#1054=DIRECTION('',(1.,0.,0.));
#1055=DIRECTION('',(0.,0.,1.));
#1056=DIRECTION('',(1.,0.,0.));
#1057=DIRECTION('',(0.,0.,1.));
#1058=DIRECTION('',(1.,0.,0.));
#1059=DIRECTION('',(0.,0.,1.));
#1060=DIRECTION('',(1.,0.,0.));
#1061=DIRECTION('',(0.,0.,1.));
#1062=DIRECTION('',(1.,0.,0.));
#1063=DIRECTION('',(0.,0.,1.));
#1064=DIRECTION('',(1.,0.,0.));
#1065=DIRECTION('',(0.,0.,1.));
#1066=DIRECTION('',(1.,0.,0.));
#1067=DIRECTION('',(0.,0.,1.));
#1068=DIRECTION('',(1.,0.,0.));
#1069=DIRECTION('',(0.,0.,1.));
#1070=DIRECTION('',(1.,0.,0.));
#1071=DIRECTION('',(0.,0.,1.));
#1072=DIRECTION('',(1.,0.,0.));
#1073=DIRECTION('',(0.,0.,1.));
#1074=DIRECTION('',(1.,0.,0.));
#1075=DIRECTION('',(0.,0.,1.));
#1076=DIRECTION('',(1.,0.,0.));
#1077=DIRECTION('',(-0.67559020761566,0.737277336810124,0.));
#1078=DIRECTION('',(0.,0.,1.));
#1079=DIRECTION('',(1.,0.,0.));
#1080=DIRECTION('',(0.0871557427476579,0.996194698091746,0.));
#1081=DIRECTION('',(0.737277336810124,0.67559020761566,0.));
#1082=DIRECTION('',(0.,0.,1.));
#1083=DIRECTION('',(1.,0.,0.));
#1084=DIRECTION('',(1.,0.,0.));
#1085=DIRECTION('',(-0.737277336810124,0.67559020761566,0.));
#1086=DIRECTION('',(0.,0.,1.));
#1087=DIRECTION('',(1.,0.,0.));
#1088=DIRECTION('',(0.087155742747658,-0.996194698091746,0.));
#1089=DIRECTION('',(0.,0.,1.));
#1090=DIRECTION('',(1.,0.,0.));
#1091=DIRECTION('',(0.675590207615661,0.737277336810123,0.));
#1092=DIRECTION('',(-1.,0.,0.));
#1093=DIRECTION('',(0.,-1.,0.));
#1094=DIRECTION('',(0.,0.,-1.));
#1095=DIRECTION('',(-1.,0.,0.));
#1096=DIRECTION('',(0.,-1.,0.));
#1097=DIRECTION('',(1.,0.,0.));
#1098=DIRECTION('',(0.,-1.,0.));
#1099=DIRECTION('',(1.,0.,0.));
#1100=DIRECTION('',(0.,0.,1.));
#1101=DIRECTION('',(1.,0.,0.));
#1102=DIRECTION('',(0.,0.,1.));
#1103=DIRECTION('',(1.,0.,0.));
#1104=DIRECTION('',(0.,0.,1.));
#1105=DIRECTION('',(1.,0.,0.));
#1106=DIRECTION('',(0.,0.,1.));
#1107=DIRECTION('',(1.,0.,0.));
#1108=DIRECTION('',(0.,0.,1.));
#1109=DIRECTION('',(1.,0.,0.));
#1110=DIRECTION('',(0.,0.,1.));
#1111=DIRECTION('',(1.,0.,0.));
#1112=DIRECTION('',(0.,0.,1.));
#1113=DIRECTION('',(1.,0.,0.));
#1114=DIRECTION('',(0.,0.,1.));
#1115=DIRECTION('',(1.,0.,0.));
#1116=DIRECTION('',(0.,0.,1.));
#1117=DIRECTION('',(1.,0.,0.));
#1118=DIRECTION('',(0.,0.,1.));
#1119=DIRECTION('',(1.,0.,0.));
#1120=DIRECTION('',(0.,0.,1.));
#1121=DIRECTION('',(1.,0.,0.));
#1122=DIRECTION('',(0.,0.,1.));
#1123=DIRECTION('',(1.,0.,0.));
#1124=DIRECTION('',(0.,0.,1.));
#1125=DIRECTION('',(1.,0.,0.));
#1126=DIRECTION('',(0.,0.,1.));
#1127=DIRECTION('',(1.,0.,0.));
#1128=DIRECTION('',(0.,0.,1.));
#1129=DIRECTION('',(1.,0.,0.));
#1130=DIRECTION('',(0.,0.,1.));
#1131=DIRECTION('',(1.,0.,0.));
#1132=DIRECTION('',(0.,0.,1.));
#1133=DIRECTION('',(1.,0.,0.));
#1134=DIRECTION('',(0.,0.,1.));
#1135=DIRECTION('',(1.,0.,0.));
#1136=DIRECTION('',(0.,0.,1.));
#1137=DIRECTION('',(1.,0.,0.));
#1138=DIRECTION('',(0.,0.,1.));
#1139=DIRECTION('',(1.,0.,0.));
#1140=DIRECTION('',(0.,0.,1.));
#1141=DIRECTION('',(1.,0.,0.));
#1142=DIRECTION('',(0.,0.,1.));
#1143=DIRECTION('',(1.,0.,0.));
#1144=DIRECTION('',(0.0871557427476579,0.996194698091746,0.));
#1145=DIRECTION('',(0.67559020761566,-0.737277336810124,0.));
#1146=DIRECTION('',(-0.675590207615661,-0.737277336810123,0.));
#1147=DIRECTION('',(0.087155742747658,-0.996194698091746,0.));
#1148=DIRECTION('',(0.737277336810124,-0.67559020761566,0.));
#1149=DIRECTION('',(1.,0.,0.));
#1150=DIRECTION('',(-0.737277336810124,-0.67559020761566,0.));
#1151=DIRECTION('',(0.0871557427476579,0.996194698091746,0.));
#1152=DIRECTION('',(-0.996194698091746,0.0871557427476579,0.));
#1153=DIRECTION('',(0.0871557427476579,0.996194698091746,0.));
#1154=DIRECTION('',(-0.996194698091746,0.0871557427476579,0.));
#1155=DIRECTION('',(0.442288690219001,0.896872741532688,0.));
#1156=DIRECTION('',(-0.896872741532688,0.442288690219001,0.));
#1157=DIRECTION('',(1.,0.,0.));
#1158=DIRECTION('',(0.,0.,-1.));
#1159=DIRECTION('',(1.,0.,0.));
#1160=DIRECTION('',(0.,0.,-1.));
#1161=DIRECTION('',(0.932007869282799,-0.362438038283702,0.));
#1162=DIRECTION('',(0.362438038283702,0.932007869282798,0.));
#1163=DIRECTION('',(0.,0.,-1.));
#1164=DIRECTION('',(-1.,0.,0.));
#1165=DIRECTION('',(0.,0.,1.));
#1166=DIRECTION('',(1.,0.,0.));
#1167=DIRECTION('',(0.,0.,-1.));
#1168=DIRECTION('',(-1.,0.,0.));
#1169=DIRECTION('',(0.,0.,1.));
#1170=DIRECTION('',(1.,0.,0.));
#1171=DIRECTION('',(0.,0.,-1.));
#1172=DIRECTION('',(-1.,0.,0.));
#1173=DIRECTION('',(0.,0.,1.));
#1174=DIRECTION('',(1.,0.,0.));
#1175=DIRECTION('',(0.,0.,-1.));
#1176=DIRECTION('',(-1.,0.,0.));
#1177=DIRECTION('',(0.,0.,1.));
#1178=DIRECTION('',(1.,0.,0.));
#1179=DIRECTION('',(0.,0.,-1.));
#1180=DIRECTION('',(-1.,0.,0.));
#1181=DIRECTION('',(0.,0.,1.));
#1182=DIRECTION('',(1.,0.,0.));
#1183=DIRECTION('',(0.,0.,-1.));
#1184=DIRECTION('',(-1.,0.,0.));
#1185=DIRECTION('',(0.,0.,1.));
#1186=DIRECTION('',(1.,0.,0.));
#1187=DIRECTION('',(0.,0.,-1.));
#1188=DIRECTION('',(-1.,0.,0.));
#1189=DIRECTION('',(0.,0.,1.));
#1190=DIRECTION('',(1.,0.,0.));
#1191=DIRECTION('',(0.,0.,-1.));
#1192=DIRECTION('',(-1.,0.,0.));
#1193=DIRECTION('',(0.,0.,1.));
#1194=DIRECTION('',(1.,0.,0.));
#1195=DIRECTION('',(0.,0.,-1.));
#1196=DIRECTION('',(-1.,0.,0.));
#1197=DIRECTION('',(0.,0.,1.));
#1198=DIRECTION('',(1.,0.,0.));
#1199=DIRECTION('',(0.,0.,-1.));
#1200=DIRECTION('',(-1.,0.,0.));
#1201=DIRECTION('',(0.,0.,1.));
#1202=DIRECTION('',(1.,0.,0.));
#1203=DIRECTION('',(0.,0.,-1.));
#1204=DIRECTION('',(-1.,0.,0.));
#1205=DIRECTION('',(0.,0.,1.));
#1206=DIRECTION('',(1.,0.,0.));
#1207=DIRECTION('',(0.,0.,-1.));
#1208=DIRECTION('',(-1.,0.,0.));
#1209=DIRECTION('',(0.,0.,1.));
#1210=DIRECTION('',(1.,0.,0.));
#1211=DIRECTION('',(0.,0.,-1.));
#1212=DIRECTION('',(-1.,0.,0.));
#1213=DIRECTION('',(0.,0.,1.));
#1214=DIRECTION('',(1.,0.,0.));
#1215=DIRECTION('',(0.,0.,-1.));
#1216=DIRECTION('',(-1.,0.,0.));
#1217=DIRECTION('',(0.,0.,1.));
#1218=DIRECTION('',(1.,0.,0.));
#1219=DIRECTION('',(0.,0.,-1.));
#1220=DIRECTION('',(-1.,0.,0.));
#1221=DIRECTION('',(0.,0.,1.));
#1222=DIRECTION('',(1.,0.,0.));
#1223=DIRECTION('',(0.,0.,-1.));
#1224=DIRECTION('',(-1.,0.,0.));
#1225=DIRECTION('',(0.,0.,1.));
#1226=DIRECTION('',(1.,0.,0.));
#1227=DIRECTION('',(0.,0.,-1.));
#1228=DIRECTION('',(-1.,0.,0.));
#1229=DIRECTION('',(0.,0.,1.));
#1230=DIRECTION('',(1.,0.,0.));
#1231=DIRECTION('',(0.,0.,-1.));
#1232=DIRECTION('',(-1.,0.,0.));
#1233=DIRECTION('',(0.,0.,1.));
#1234=DIRECTION('',(1.,0.,0.));
#1235=DIRECTION('',(0.,0.,-1.));
#1236=DIRECTION('',(-1.,0.,0.));
#1237=DIRECTION('',(0.,0.,1.));
#1238=DIRECTION('',(1.,0.,0.));
#1239=DIRECTION('',(0.,0.,-1.));
#1240=DIRECTION('',(-1.,0.,0.));
#1241=DIRECTION('',(0.,0.,1.));
#1242=DIRECTION('',(1.,0.,0.));
#1243=DIRECTION('',(0.,0.,-1.));
#1244=DIRECTION('',(-1.,0.,0.));
#1245=DIRECTION('',(0.,0.,1.));
#1246=DIRECTION('',(1.,0.,0.));
#1247=DIRECTION('',(0.087155742747658,-0.996194698091746,0.));
#1248=DIRECTION('',(0.996194698091746,0.087155742747658,0.));
#1249=DIRECTION('',(0.087155742747658,-0.996194698091746,0.));
#1250=DIRECTION('',(0.996194698091746,0.087155742747658,0.));
#1251=DIRECTION('',(0.087155742747658,-0.996194698091746,0.));
#1252=DIRECTION('',(0.996194698091746,0.087155742747658,0.));
#1253=DIRECTION('',(0.,0.,1.));
#1254=DIRECTION('',(1.,0.,0.));
#1255=DIRECTION('',(0.,0.,1.));
#1256=DIRECTION('',(1.,0.,0.));
#1257=DIRECTION('',(0.,0.,1.));
#1258=DIRECTION('',(1.,0.,0.));
#1259=DIRECTION('',(0.,0.,1.));
#1260=DIRECTION('',(1.,0.,0.));
#1261=DIRECTION('',(0.,0.,1.));
#1262=DIRECTION('',(1.,0.,0.));
#1263=DIRECTION('',(0.,0.,1.));
#1264=DIRECTION('',(1.,0.,0.));
#1265=DIRECTION('',(0.,0.,1.));
#1266=DIRECTION('',(1.,0.,0.));
#1267=DIRECTION('',(0.,0.,1.));
#1268=DIRECTION('',(1.,0.,0.));
#1269=DIRECTION('',(0.,0.,1.));
#1270=DIRECTION('',(1.,0.,0.));
#1271=DIRECTION('',(0.,0.,1.));
#1272=DIRECTION('',(1.,0.,0.));
#1273=DIRECTION('',(0.,0.,1.));
#1274=DIRECTION('',(1.,0.,0.));
#1275=DIRECTION('',(0.,0.,1.));
#1276=DIRECTION('',(1.,0.,0.));
#1277=DIRECTION('',(0.,0.,1.));
#1278=DIRECTION('',(1.,0.,0.));
#1279=DIRECTION('',(0.,0.,1.));
#1280=DIRECTION('',(1.,0.,0.));
#1281=DIRECTION('',(0.,0.,1.));
#1282=DIRECTION('',(1.,0.,0.));
#1283=DIRECTION('',(0.,0.,1.));
#1284=DIRECTION('',(1.,0.,0.));
#1285=DIRECTION('',(0.,0.,1.));
#1286=DIRECTION('',(1.,0.,0.));
#1287=DIRECTION('',(0.,0.,1.));
#1288=DIRECTION('',(1.,0.,0.));
#1289=DIRECTION('',(0.,0.,1.));
#1290=DIRECTION('',(1.,0.,0.));
#1291=DIRECTION('',(0.,0.,1.));
#1292=DIRECTION('',(1.,0.,0.));
#1293=DIRECTION('',(0.,0.,1.));
#1294=DIRECTION('',(1.,0.,0.));
#1295=DIRECTION('',(0.67559020761566,-0.737277336810124,0.));
#1296=DIRECTION('',(0.737277336810124,0.67559020761566,0.));
#1297=DIRECTION('',(-0.675590207615661,0.737277336810124,2.92990548322733E-16));
#1298=DIRECTION('',(-0.737277336810124,-0.675590207615661,0.));
#1299=DIRECTION('',(-0.737277336810124,-0.67559020761566,0.));
#1300=DIRECTION('',(0.67559020761566,-0.737277336810124,0.));
#1301=DIRECTION('',(-0.737277336810123,0.675590207615661,0.));
#1302=DIRECTION('',(-0.675590207615661,-0.737277336810123,0.));
#1303=DIRECTION('',(-0.675590207615661,-0.737277336810123,-3.72990680223129E-15));
#1304=DIRECTION('',(0.737277336810123,-0.675590207615661,0.));
#1305=DIRECTION('',(0.675590207615661,0.737277336810123,0.));
#1306=DIRECTION('',(-0.737277336810123,0.675590207615661,0.));
#1307=DIRECTION('',(-0.737277336810124,-0.67559020761566,0.));
#1308=DIRECTION('',(0.67559020761566,-0.737277336810124,0.));
#1309=DIRECTION('',(0.737277336810123,0.675590207615661,9.59229228352635E-16));
#1310=DIRECTION('',(-0.675590207615661,0.737277336810124,0.));
#1311=DIRECTION('',(-0.67559020761566,0.737277336810124,0.));
#1312=DIRECTION('',(-0.737277336810124,-0.67559020761566,0.));
#1313=DIRECTION('',(-0.67559020761566,-0.737277336810124,0.));
#1314=DIRECTION('',(0.737277336810124,-0.67559020761566,0.));
#1315=DIRECTION('',(-0.737277336810124,0.67559020761566,0.));
#1316=DIRECTION('',(-0.67559020761566,-0.737277336810124,0.));
#1317=DIRECTION('',(-0.737277336810124,0.67559020761566,0.));
#1318=DIRECTION('',(-0.67559020761566,-0.737277336810124,0.));
#1319=CARTESIAN_POINT('',(0.,0.,0.));
#1320=CARTESIAN_POINT('',(2.5955467705995,-0.633431889050107,0.));
#1321=CARTESIAN_POINT('',(0.910027007038026,5.24461903928623,0.));
#1322=CARTESIAN_POINT('',(1.26002700703803,5.24461903928623,0.));
#1323=CARTESIAN_POINT('',(2.5955467705995,5.24461903928623,0.));
#1324=CARTESIAN_POINT('',(2.9455467705995,5.24461903928623,0.));
#1325=CARTESIAN_POINT('',(4.28106653416097,5.24461903928623,0.));
#1326=CARTESIAN_POINT('',(4.63106653416097,5.24461903928623,0.));
#1327=CARTESIAN_POINT('',(4.3886240444827,2.61211748160704,0.));
#1328=CARTESIAN_POINT('',(4.68862404448271,2.61211748160704,0.));
#1329=CARTESIAN_POINT('',(2.5955467705995,2.61211748160704,0.));
#1330=CARTESIAN_POINT('',(2.9455467705995,2.61211748160704,0.));
#1331=CARTESIAN_POINT('',(0.802469496716289,2.61211748160704,0.));
#1332=CARTESIAN_POINT('',(1.15246949671629,2.61211748160704,0.));
#1333=CARTESIAN_POINT('',(0.71872138659438,0.562357965148074,0.));
#1334=CARTESIAN_POINT('',(1.06872138659438,0.562357965148074,0.));
#1335=CARTESIAN_POINT('',(4.47237215460462,0.562357965148074,0.));
#1336=CARTESIAN_POINT('',(4.77237215460462,0.562357965148074,0.));
#1337=CARTESIAN_POINT('',(2.5955467705995,0.562357965148074,0.));
#1338=CARTESIAN_POINT('',(2.9455467705995,0.562357965148074,0.));
#1339=CARTESIAN_POINT('',(0.634767136767923,-1.49244688093687,0.));
#1340=CARTESIAN_POINT('',(0.984767136767923,-1.49244688093687,0.));
#1341=CARTESIAN_POINT('',(2.5955467705995,-1.49244688093687,0.));
#1342=CARTESIAN_POINT('',(2.9455467705995,-1.49244688093687,0.));
#1343=CARTESIAN_POINT('',(4.55632640443107,-1.49244688093687,0.));
#1344=CARTESIAN_POINT('',(4.85632640443107,-1.49244688093687,0.));
#1345=CARTESIAN_POINT('',(2.5955467705995,-3.49125481987511,0.));
#1346=CARTESIAN_POINT('',(2.9455467705995,-3.49125481987511,0.));
#1347=CARTESIAN_POINT('',(4.63799275896613,-3.49125481987511,0.));
#1348=CARTESIAN_POINT('',(4.98799275896613,-3.49125481987511,0.));
#1349=CARTESIAN_POINT('',(0.553100782232865,-3.49125481987511,0.));
#1350=CARTESIAN_POINT('',(0.903100782232865,-3.49125481987511,0.));
#1351=CARTESIAN_POINT('',(0.483933866990575,-5.18413532232004,0.));
#1352=CARTESIAN_POINT('',(0.833933866990575,-5.18413532232004,0.));
#1353=CARTESIAN_POINT('',(2.5955467705995,-5.18413532232004,0.));
#1354=CARTESIAN_POINT('',(2.9455467705995,-5.18413532232004,0.));
#1355=CARTESIAN_POINT('',(4.70715967420842,-5.18413532232004,0.));
#1356=CARTESIAN_POINT('',(5.05715967420842,-5.18413532232004,0.));
#1357=CARTESIAN_POINT('',(2.5955467705995,-6.78577891443775,0.));
#1358=CARTESIAN_POINT('',(2.9455467705995,-6.78577891443775,0.));
#1359=CARTESIAN_POINT('',(4.77259887468617,-6.78577891443775,0.));
#1360=CARTESIAN_POINT('',(5.12259887468617,-6.78577891443775,0.));
#1361=CARTESIAN_POINT('',(0.418494666512832,-6.78577891443775,0.));
#1362=CARTESIAN_POINT('',(0.768494666512832,-6.78577891443775,0.));
#1363=CARTESIAN_POINT('',(-0.944253481748935,-7.87148329768182,0.));
#1364=CARTESIAN_POINT('',(-0.624757991710617,-8.22015144201393,0.));
#1365=CARTESIAN_POINT('',(-1.14484224941994,-7.65257907030345,0.));
#1366=CARTESIAN_POINT('',(-0.849931314695889,-7.38234298725719,0.));
#1367=CARTESIAN_POINT('',(-1.24840919393259,-7.34748069015813,0.));
#1368=CARTESIAN_POINT('',(-0.0719986504296867,6.09895335159997,0.));
#1369=CARTESIAN_POINT('',(-0.0582631031643783,6.2559513752495,0.));
#1370=CARTESIAN_POINT('',(0.322241406797302,6.60461951958161,0.));
#1371=CARTESIAN_POINT('',(0.588061326453913,6.84819859863777,0.));
#1372=CARTESIAN_POINT('',(0.858297409500177,6.55328766391372,0.));
#1373=CARTESIAN_POINT('',(0.858297409500177,6.95328766391372,0.));
#1374=CARTESIAN_POINT('',(0.491292451354368,6.95328766391372,0.));
#1375=CARTESIAN_POINT('',(4.48834762444002,6.95328766391372,0.));
#1376=CARTESIAN_POINT('',(4.86885213440169,6.60461951958161,0.));
#1377=CARTESIAN_POINT('',(5.13467205405831,6.36104044052545,0.));
#1378=CARTESIAN_POINT('',(4.86443597101204,6.0661295058014,0.));
#1379=CARTESIAN_POINT('',(5.26291385024874,6.10099180290047,0.));
#1380=CARTESIAN_POINT('',(5.26309219162868,6.09895335159998,0.));
#1381=CARTESIAN_POINT('',(6.43950273513158,-7.34748069015813,0.));
#1382=CARTESIAN_POINT('',(6.04102485589489,-7.38234298725719,0.));
#1383=CARTESIAN_POINT('',(6.33593579061893,-7.65257907030345,0.));
#1384=CARTESIAN_POINT('',(6.13534702294793,-7.87148329768182,0.));
#1385=CARTESIAN_POINT('',(5.81585153290961,-8.22015144201393,0.));
#1386=CARTESIAN_POINT('',(1.47771825955287,-8.22015144201393,0.));
#1387=CARTESIAN_POINT('',(1.47771825955287,-8.22015144201393,0.4));
#1388=CARTESIAN_POINT('',(1.47771825955287,-8.22015144201393,0.4));
#1389=CARTESIAN_POINT('',(5.27331485094591,-8.22015144201393,0.4));
#1390=CARTESIAN_POINT('',(-0.0822213097469136,-8.22015144201393,0.4));
#1391=CARTESIAN_POINT('',(-0.0822213097469132,-8.22015144201393,0.));
#1392=CARTESIAN_POINT('',(5.27331485094591,-8.22015144201393,0.));
#1393=CARTESIAN_POINT('',(2.5955467705995,-0.633431889050107,0.4));
#1394=CARTESIAN_POINT('',(4.77259887468617,-6.78577891443775,0.4));
#1395=CARTESIAN_POINT('',(5.37259887468617,-6.78577891443775,0.4));
#1396=CARTESIAN_POINT('',(4.70715967420842,-5.18413532232004,0.4));
#1397=CARTESIAN_POINT('',(5.30715967420842,-5.18413532232004,0.4));
#1398=CARTESIAN_POINT('',(4.63799275896613,-3.49125481987511,0.4));
#1399=CARTESIAN_POINT('',(5.23799275896613,-3.49125481987511,0.4));
#1400=CARTESIAN_POINT('',(4.28106653416097,5.24461903928623,0.4));
#1401=CARTESIAN_POINT('',(4.88106653416097,5.24461903928623,0.4));
#1402=CARTESIAN_POINT('',(2.5955467705995,-5.18413532232004,0.4));
#1403=CARTESIAN_POINT('',(3.1955467705995,-5.18413532232004,0.4));
#1404=CARTESIAN_POINT('',(2.5955467705995,-3.49125481987511,0.4));
#1405=CARTESIAN_POINT('',(3.1955467705995,-3.49125481987511,0.4));
#1406=CARTESIAN_POINT('',(0.910027007038026,5.24461903928623,0.4));
#1407=CARTESIAN_POINT('',(1.51002700703803,5.24461903928623,0.4));
#1408=CARTESIAN_POINT('',(0.802469496716289,2.61211748160704,0.4));
#1409=CARTESIAN_POINT('',(1.40246949671629,2.61211748160704,0.4));
#1410=CARTESIAN_POINT('',(0.71872138659438,0.562357965148074,0.4));
#1411=CARTESIAN_POINT('',(1.31872138659438,0.562357965148074,0.4));
#1412=CARTESIAN_POINT('',(0.634767136767923,-1.49244688093687,0.4));
#1413=CARTESIAN_POINT('',(1.23476713676792,-1.49244688093687,0.4));
#1414=CARTESIAN_POINT('',(0.553100782232865,-3.49125481987511,0.4));
#1415=CARTESIAN_POINT('',(1.15310078223287,-3.49125481987511,0.4));
#1416=CARTESIAN_POINT('',(0.483933866990575,-5.18413532232004,0.4));
#1417=CARTESIAN_POINT('',(1.08393386699057,-5.18413532232004,0.4));
#1418=CARTESIAN_POINT('',(4.3886240444827,2.61211748160704,0.4));
#1419=CARTESIAN_POINT('',(4.9386240444827,2.61211748160704,0.4));
#1420=CARTESIAN_POINT('',(0.418494666512832,-6.78577891443775,0.4));
#1421=CARTESIAN_POINT('',(1.01849466651283,-6.78577891443775,0.4));
#1422=CARTESIAN_POINT('',(4.47237215460462,0.562357965148074,0.4));
#1423=CARTESIAN_POINT('',(5.02237215460462,0.562357965148074,0.4));
#1424=CARTESIAN_POINT('',(4.55632640443107,-1.49244688093687,0.4));
#1425=CARTESIAN_POINT('',(5.10632640443107,-1.49244688093687,0.4));
#1426=CARTESIAN_POINT('',(2.5955467705995,2.61211748160704,0.4));
#1427=CARTESIAN_POINT('',(3.1955467705995,2.61211748160704,0.4));
#1428=CARTESIAN_POINT('',(2.5955467705995,5.24461903928623,0.4));
#1429=CARTESIAN_POINT('',(3.1955467705995,5.24461903928623,0.4));
#1430=CARTESIAN_POINT('',(2.5955467705995,0.562357965148074,0.4));
#1431=CARTESIAN_POINT('',(3.1955467705995,0.562357965148074,0.4));
#1432=CARTESIAN_POINT('',(2.5955467705995,-1.49244688093687,0.4));
#1433=CARTESIAN_POINT('',(3.1955467705995,-1.49244688093687,0.4));
#1434=CARTESIAN_POINT('',(2.5955467705995,-6.78577891443775,0.4));
#1435=CARTESIAN_POINT('',(3.1955467705995,-6.78577891443775,0.4));
#1436=CARTESIAN_POINT('',(-0.237790980944585,-0.385546955849969,0.4));
#1437=CARTESIAN_POINT('',(0.326657570186954,6.0661295058014,0.4));
#1438=CARTESIAN_POINT('',(-0.849931314695889,-7.38234298725719,0.4));
#1439=CARTESIAN_POINT('',(-2.63895359983376,-5.42996775888385,0.4));
#1440=CARTESIAN_POINT('',(5.79339910865523,-7.65257907030345,0.4));
#1441=CARTESIAN_POINT('',(6.04102485589489,-7.38234298725719,0.4));
#1442=CARTESIAN_POINT('',(5.42888452214358,-0.385546955849969,0.4));
#1443=CARTESIAN_POINT('',(4.86443597101204,6.0661295058014,0.4));
#1444=CARTESIAN_POINT('',(4.59861605135543,6.30970858485756,0.4));
#1445=CARTESIAN_POINT('',(4.33279613169882,6.55328766391372,0.4));
#1446=CARTESIAN_POINT('',(2.5955467705995,6.55328766391372,0.4));
#1447=CARTESIAN_POINT('',(0.858297409500177,6.55328766391372,0.4));
#1448=CARTESIAN_POINT('',(-1.77705823841533,4.13842912910586,0.4));
#1449=CARTESIAN_POINT('',(0.326479228807011,6.06409105450091,0.));
#1450=CARTESIAN_POINT('',(-0.849931314695889,-7.38234298725719,0.));
#1451=CARTESIAN_POINT('',(0.326657570186955,6.0661295058014,0.));
#1452=CARTESIAN_POINT('',(0.491292451354368,6.55328766391372,0.));
#1453=CARTESIAN_POINT('',(0.858297409500177,6.55328766391372,0.));
#1454=CARTESIAN_POINT('',(4.33279613169882,6.55328766391372,0.));
#1455=CARTESIAN_POINT('',(4.77259887468617,-6.78577891443775,0.4));
#1456=CARTESIAN_POINT('',(4.77259887468617,-6.78577891443775,0.15));
#1457=CARTESIAN_POINT('',(5.12259887468617,-6.78577891443775,0.15));
#1458=CARTESIAN_POINT('',(2.5955467705995,-6.78577891443775,0.4));
#1459=CARTESIAN_POINT('',(2.5955467705995,-6.78577891443775,0.15));
#1460=CARTESIAN_POINT('',(2.9455467705995,-6.78577891443775,0.15));
#1461=CARTESIAN_POINT('',(4.70715967420842,-5.18413532232004,0.4));
#1462=CARTESIAN_POINT('',(4.70715967420842,-5.18413532232004,0.15));
#1463=CARTESIAN_POINT('',(5.05715967420842,-5.18413532232004,0.15));
#1464=CARTESIAN_POINT('',(2.5955467705995,-5.18413532232004,0.4));
#1465=CARTESIAN_POINT('',(2.5955467705995,-5.18413532232004,0.15));
#1466=CARTESIAN_POINT('',(2.9455467705995,-5.18413532232004,0.15));
#1467=CARTESIAN_POINT('',(0.483933866990575,-5.18413532232004,0.4));
#1468=CARTESIAN_POINT('',(0.483933866990575,-5.18413532232004,0.15));
#1469=CARTESIAN_POINT('',(0.833933866990575,-5.18413532232004,0.15));
#1470=CARTESIAN_POINT('',(0.553100782232865,-3.49125481987511,0.4));
#1471=CARTESIAN_POINT('',(0.553100782232865,-3.49125481987511,0.15));
#1472=CARTESIAN_POINT('',(0.903100782232865,-3.49125481987511,0.15));
#1473=CARTESIAN_POINT('',(4.63799275896613,-3.49125481987511,0.4));
#1474=CARTESIAN_POINT('',(4.63799275896613,-3.49125481987511,0.15));
#1475=CARTESIAN_POINT('',(4.98799275896613,-3.49125481987511,0.15));
#1476=CARTESIAN_POINT('',(2.5955467705995,-3.49125481987511,0.4));
#1477=CARTESIAN_POINT('',(2.5955467705995,-3.49125481987511,0.15));
#1478=CARTESIAN_POINT('',(2.9455467705995,-3.49125481987511,0.15));
#1479=CARTESIAN_POINT('',(4.55632640443107,-1.49244688093687,0.4));
#1480=CARTESIAN_POINT('',(4.55632640443107,-1.49244688093687,0.15));
#1481=CARTESIAN_POINT('',(4.85632640443107,-1.49244688093687,0.15));
#1482=CARTESIAN_POINT('',(2.5955467705995,-1.49244688093687,0.4));
#1483=CARTESIAN_POINT('',(2.5955467705995,-1.49244688093687,0.15));
#1484=CARTESIAN_POINT('',(2.9455467705995,-1.49244688093687,0.15));
#1485=CARTESIAN_POINT('',(0.634767136767923,-1.49244688093687,0.4));
#1486=CARTESIAN_POINT('',(0.634767136767923,-1.49244688093687,0.15));
#1487=CARTESIAN_POINT('',(0.984767136767923,-1.49244688093687,0.15));
#1488=CARTESIAN_POINT('',(2.5955467705995,0.562357965148074,0.4));
#1489=CARTESIAN_POINT('',(2.5955467705995,0.562357965148074,0.15));
#1490=CARTESIAN_POINT('',(2.9455467705995,0.562357965148074,0.15));
#1491=CARTESIAN_POINT('',(4.47237215460462,0.562357965148074,0.4));
#1492=CARTESIAN_POINT('',(4.47237215460462,0.562357965148074,0.15));
#1493=CARTESIAN_POINT('',(4.77237215460462,0.562357965148074,0.15));
#1494=CARTESIAN_POINT('',(0.71872138659438,0.562357965148074,0.4));
#1495=CARTESIAN_POINT('',(0.71872138659438,0.562357965148074,0.15));
#1496=CARTESIAN_POINT('',(1.06872138659438,0.562357965148074,0.15));
#1497=CARTESIAN_POINT('',(0.802469496716289,2.61211748160704,0.4));
#1498=CARTESIAN_POINT('',(0.802469496716289,2.61211748160704,0.15));
#1499=CARTESIAN_POINT('',(1.15246949671629,2.61211748160704,0.15));
#1500=CARTESIAN_POINT('',(2.5955467705995,2.61211748160704,0.4));
#1501=CARTESIAN_POINT('',(2.5955467705995,2.61211748160704,0.15));
#1502=CARTESIAN_POINT('',(2.9455467705995,2.61211748160704,0.15));
#1503=CARTESIAN_POINT('',(4.3886240444827,2.61211748160704,0.4));
#1504=CARTESIAN_POINT('',(4.3886240444827,2.61211748160704,0.15));
#1505=CARTESIAN_POINT('',(4.68862404448271,2.61211748160704,0.15));
#1506=CARTESIAN_POINT('',(4.28106653416097,5.24461903928623,0.4));
#1507=CARTESIAN_POINT('',(4.28106653416097,5.24461903928623,0.15));
#1508=CARTESIAN_POINT('',(4.63106653416097,5.24461903928623,0.15));
#1509=CARTESIAN_POINT('',(2.5955467705995,5.24461903928623,0.4));
#1510=CARTESIAN_POINT('',(2.5955467705995,5.24461903928623,0.15));
#1511=CARTESIAN_POINT('',(2.9455467705995,5.24461903928623,0.15));
#1512=CARTESIAN_POINT('',(0.910027007038026,5.24461903928623,0.4));
#1513=CARTESIAN_POINT('',(0.910027007038026,5.24461903928623,0.15));
#1514=CARTESIAN_POINT('',(1.26002700703803,5.24461903928623,0.15));
#1515=CARTESIAN_POINT('',(0.418494666512832,-6.78577891443775,0.4));
#1516=CARTESIAN_POINT('',(0.418494666512832,-6.78577891443775,0.15));
#1517=CARTESIAN_POINT('',(0.768494666512832,-6.78577891443775,0.15));
#1518=CARTESIAN_POINT('',(4.86461431239198,6.06409105450091,0.));
#1519=CARTESIAN_POINT('',(6.04102485589489,-7.38234298725719,0.));
#1520=CARTESIAN_POINT('',(4.86443597101204,6.0661295058014,0.));
#1521=CARTESIAN_POINT('',(4.77259887468617,-6.78577891443775,0.15));
#1522=CARTESIAN_POINT('',(4.70715967420842,-5.18413532232004,0.15));
#1523=CARTESIAN_POINT('',(4.63799275896613,-3.49125481987511,0.15));
#1524=CARTESIAN_POINT('',(4.28106653416097,5.24461903928623,0.15));
#1525=CARTESIAN_POINT('',(2.5955467705995,-5.18413532232004,0.15));
#1526=CARTESIAN_POINT('',(2.5955467705995,-3.49125481987511,0.15));
#1527=CARTESIAN_POINT('',(0.910027007038026,5.24461903928623,0.15));
#1528=CARTESIAN_POINT('',(0.802469496716289,2.61211748160704,0.15));
#1529=CARTESIAN_POINT('',(0.71872138659438,0.562357965148074,0.15));
#1530=CARTESIAN_POINT('',(0.634767136767923,-1.49244688093687,0.15));
#1531=CARTESIAN_POINT('',(0.553100782232865,-3.49125481987511,0.15));
#1532=CARTESIAN_POINT('',(0.483933866990575,-5.18413532232004,0.15));
#1533=CARTESIAN_POINT('',(4.3886240444827,2.61211748160704,0.15));
#1534=CARTESIAN_POINT('',(0.418494666512832,-6.78577891443775,0.15));
#1535=CARTESIAN_POINT('',(4.47237215460462,0.562357965148074,0.15));
#1536=CARTESIAN_POINT('',(4.55632640443107,-1.49244688093687,0.15));
#1537=CARTESIAN_POINT('',(2.5955467705995,2.61211748160704,0.15));
#1538=CARTESIAN_POINT('',(2.5955467705995,5.24461903928623,0.15));
#1539=CARTESIAN_POINT('',(2.5955467705995,0.562357965148074,0.15));
#1540=CARTESIAN_POINT('',(2.5955467705995,-1.49244688093687,0.15));
#1541=CARTESIAN_POINT('',(2.5955467705995,-6.78577891443775,0.15));
#1542=CARTESIAN_POINT('',(-2.63895359983376,-5.42996775888385,0.));
#1543=CARTESIAN_POINT('',(-0.849931314695887,-7.38234298725719,0.));
#1544=CARTESIAN_POINT('',(-0.849931314695889,-7.38234298725719,0.));
#1545=CARTESIAN_POINT('',(6.04102485589489,-7.38234298725719,0.));
#1546=CARTESIAN_POINT('',(6.04102485589489,-7.38234298725719,0.));
#1547=CARTESIAN_POINT('',(5.84043608822388,-7.60124721463556,0.));
#1548=CARTESIAN_POINT('',(-1.77705823841533,4.13842912910586,0.));
#1549=CARTESIAN_POINT('',(0.858297409500177,6.55328766391372,0.));
#1550=CARTESIAN_POINT('',(0.858297409500177,6.55328766391372,0.));
#1551=CARTESIAN_POINT('',(4.86443597101204,6.0661295058014,0.));
#1552=CARTESIAN_POINT('',(4.86443597101204,6.0661295058014,0.));
#1553=CARTESIAN_POINT('',(4.59861605135543,6.30970858485756,0.));
#1554=MECHANICAL_DESIGN_GEOMETRIC_PRESENTATION_REPRESENTATION('',(#884),
#1555);
#1555=(
GEOMETRIC_REPRESENTATION_CONTEXT(3)
GLOBAL_UNCERTAINTY_ASSIGNED_CONTEXT((#1556))
GLOBAL_UNIT_ASSIGNED_CONTEXT((#1559,#1558,#1557))
REPRESENTATION_CONTEXT('Part 1','TOP_LEVEL_ASSEMBLY_PART')
);
#1556=UNCERTAINTY_MEASURE_WITH_UNIT(LENGTH_MEASURE(1.E-6),#1559,
'DISTANCE_ACCURACY_VALUE','Maximum Tolerance applied to model');
#1557=(
NAMED_UNIT(*)
SI_UNIT($,.STERADIAN.)
SOLID_ANGLE_UNIT()
);
#1558=(
NAMED_UNIT(*)
PLANE_ANGLE_UNIT()
SI_UNIT($,.RADIAN.)
);
#1559=(
LENGTH_UNIT()
NAMED_UNIT(*)
SI_UNIT(.CENTI.,.METRE.)
);
#1560=PRODUCT_DEFINITION_SHAPE('','',#1561);
#1561=PRODUCT_DEFINITION('','',#1563,#1562);
#1562=PRODUCT_DEFINITION_CONTEXT('',#1569,'design');
#1563=PRODUCT_DEFINITION_FORMATION_WITH_SPECIFIED_SOURCE('','',#1565,
 .NOT_KNOWN.);
#1564=PRODUCT_RELATED_PRODUCT_CATEGORY('','',(#1565));
#1565=PRODUCT('Part 1','Part 1','Part 1',(#1567));
#1566=PRODUCT_CATEGORY('','');
#1567=PRODUCT_CONTEXT('',#1569,'mechanical');
#1568=APPLICATION_PROTOCOL_DEFINITION('international standard',
'ap242_managed_model_based_3d_engineering',2020,#1569);
#1569=APPLICATION_CONTEXT('managed model based 3d engineering');
ENDSEC;
END-ISO-10303-21;
