ISO-10303-21;
HEADER;
/* Generated by software containing ST-Developer
 * from STEP Tools, Inc. (www.steptools.com) 
 */
/* OPTION: using custom renumber hook */

FILE_DESCRIPTION(
/* description */ ('STEP AP242 Edition 2',
'CAx-IF Rec.Pracs.---Representation and Presentation of Product Manufa
cturing Information (PMI)---4.0---2014-10-13',
'CAx-IF Rec.Pracs.---3D Tessellated Geometry---0.4---2014-09-14','2;1',
'CAx-IF Rec.Pracs.---User Defined Attributes---1.5---2016-08-15'),
/* implementation_level */ '2;1');

FILE_NAME(
/* name */ 'pipes',
/* time_stamp */ '2026-05-03T07:53:58Z',
/* author */ (''),
/* organization */ (''),
/* preprocessor_version */ 'ST-DEVELOPER v20',
/* originating_system */ 'ONSHAPE BY PTC INC, 1.214',
/* authorisation */ '  ');

FILE_SCHEMA (('AP242_MANAGED_MODEL_BASED_3D_ENGINEERING_MIM_LF { 1 0 10303 442 3 1 4 }'));
ENDSEC;

DATA;
#10=SHAPE_REPRESENTATION_RELATIONSHIP('','',#204,#12);
#11=SHAPE_REPRESENTATION_RELATIONSHIP('','',#205,#13);
#12=ADVANCED_BREP_SHAPE_REPRESENTATION('',(#200),#458);
#13=ADVANCED_BREP_SHAPE_REPRESENTATION('',(#201),#459);
#14=PLANE('',#213);
#15=PLANE('',#214);
#16=PLANE('',#224);
#17=PLANE('',#225);
#18=CIRCLE('',#208,1.15);
#19=CIRCLE('',#209,1.15);
#20=CIRCLE('',#211,1.2820754347826);
#21=CIRCLE('',#212,1.2820754347826);
#22=CIRCLE('',#219,0.846525496108942);
#23=CIRCLE('',#220,0.846525496108942);
#24=CIRCLE('',#222,1.);
#25=CIRCLE('',#223,1.);
#26=ORIENTED_EDGE('',*,*,#58,.T.);
#27=ORIENTED_EDGE('',*,*,#59,.T.);
#28=ORIENTED_EDGE('',*,*,#60,.F.);
#29=ORIENTED_EDGE('',*,*,#61,.T.);
#30=ORIENTED_EDGE('',*,*,#62,.F.);
#31=ORIENTED_EDGE('',*,*,#63,.F.);
#32=ORIENTED_EDGE('',*,*,#64,.T.);
#33=ORIENTED_EDGE('',*,*,#65,.F.);
#34=ORIENTED_EDGE('',*,*,#60,.T.);
#35=ORIENTED_EDGE('',*,*,#64,.F.);
#36=ORIENTED_EDGE('',*,*,#61,.F.);
#37=ORIENTED_EDGE('',*,*,#65,.T.);
#38=ORIENTED_EDGE('',*,*,#63,.T.);
#39=ORIENTED_EDGE('',*,*,#59,.F.);
#40=ORIENTED_EDGE('',*,*,#62,.T.);
#41=ORIENTED_EDGE('',*,*,#58,.F.);
#42=ORIENTED_EDGE('',*,*,#66,.F.);
#43=ORIENTED_EDGE('',*,*,#67,.F.);
#44=ORIENTED_EDGE('',*,*,#68,.T.);
#45=ORIENTED_EDGE('',*,*,#69,.F.);
#46=ORIENTED_EDGE('',*,*,#70,.T.);
#47=ORIENTED_EDGE('',*,*,#71,.T.);
#48=ORIENTED_EDGE('',*,*,#72,.F.);
#49=ORIENTED_EDGE('',*,*,#73,.T.);
#50=ORIENTED_EDGE('',*,*,#68,.F.);
#51=ORIENTED_EDGE('',*,*,#72,.T.);
#52=ORIENTED_EDGE('',*,*,#69,.T.);
#53=ORIENTED_EDGE('',*,*,#73,.F.);
#54=ORIENTED_EDGE('',*,*,#67,.T.);
#55=ORIENTED_EDGE('',*,*,#71,.F.);
#56=ORIENTED_EDGE('',*,*,#66,.T.);
#57=ORIENTED_EDGE('',*,*,#70,.F.);
#58=EDGE_CURVE('',#74,#74,#90,.T.);
#59=EDGE_CURVE('',#75,#75,#91,.T.);
#60=EDGE_CURVE('',#76,#76,#18,.T.);
#61=EDGE_CURVE('',#77,#77,#19,.T.);
#62=EDGE_CURVE('',#78,#78,#92,.T.);
#63=EDGE_CURVE('',#79,#79,#93,.T.);
#64=EDGE_CURVE('',#80,#80,#20,.T.);
#65=EDGE_CURVE('',#81,#81,#21,.T.);
#66=EDGE_CURVE('',#82,#82,#94,.T.);
#67=EDGE_CURVE('',#83,#83,#95,.T.);
#68=EDGE_CURVE('',#84,#84,#22,.T.);
#69=EDGE_CURVE('',#85,#85,#23,.T.);
#70=EDGE_CURVE('',#86,#86,#96,.T.);
#71=EDGE_CURVE('',#87,#87,#97,.T.);
#72=EDGE_CURVE('',#88,#88,#24,.T.);
#73=EDGE_CURVE('',#89,#89,#25,.T.);
#74=VERTEX_POINT('',#293);
#75=VERTEX_POINT('',#313);
#76=VERTEX_POINT('',#315);
#77=VERTEX_POINT('',#317);
#78=VERTEX_POINT('',#335);
#79=VERTEX_POINT('',#352);
#80=VERTEX_POINT('',#354);
#81=VERTEX_POINT('',#356);
#82=VERTEX_POINT('',#382);
#83=VERTEX_POINT('',#402);
#84=VERTEX_POINT('',#404);
#85=VERTEX_POINT('',#406);
#86=VERTEX_POINT('',#427);
#87=VERTEX_POINT('',#447);
#88=VERTEX_POINT('',#449);
#89=VERTEX_POINT('',#451);
#90=B_SPLINE_CURVE_WITH_KNOTS('',3,(#274,#275,#276,#277,#278,#279,#280,
#281,#282,#283,#284,#285,#286,#287,#288,#289,#290,#291,#292),
 .UNSPECIFIED.,.T.,.F.,(1,1,1,1,1,1,1,1,1,1,1,1,1,1,1,1,1,1,1,1,1,1,1),
(-0.00472619117254803,-0.00315079411503202,-0.00157539705751601,0.,0.00157539705751601,
0.00315079411503202,0.00472619117254802,0.00630158823006403,0.00787698528758004,
0.00945238234509605,0.0110277794026121,0.0126031764601281,0.0141785735176441,
0.0157539705751601,0.0173293676326761,0.0189047646901921,0.0204801617477081,
0.0220555588052241,0.0236309558627401,0.0252063529202561,0.0267817499777721,
0.0283571470352881,0.0299325440928042),.UNSPECIFIED.);
#91=B_SPLINE_CURVE_WITH_KNOTS('',3,(#294,#295,#296,#297,#298,#299,#300,
#301,#302,#303,#304,#305,#306,#307,#308,#309,#310,#311,#312),
 .UNSPECIFIED.,.T.,.F.,(1,1,1,1,1,1,1,1,1,1,1,1,1,1,1,1,1,1,1,1,1,1,1),
(-0.00472619117254803,-0.00315079411503202,-0.00157539705751601,0.,0.00157539705751601,
0.00315079411503202,0.00472619117254803,0.00630158823006404,0.00787698528758005,
0.00945238234509605,0.0110277794026121,0.0126031764601281,0.0141785735176441,
0.0157539705751601,0.0173293676326761,0.0189047646901921,0.0204801617477081,
0.0220555588052241,0.0236309558627401,0.0252063529202561,0.0267817499777722,
0.0283571470352882,0.0299325440928042),.UNSPECIFIED.);
#92=B_SPLINE_CURVE_WITH_KNOTS('',3,(#319,#320,#321,#322,#323,#324,#325,
#326,#327,#328,#329,#330,#331,#332,#333,#334),.UNSPECIFIED.,.T.,.F.,(1,
1,1,1,1,1,1,1,1,1,1,1,1,1,1,1,1,1,1,1),(-0.00629146086902967,-0.00314573043451483,
-0.00157286521725742,0.,0.00157286521725742,0.00314573043451483,0.00629146086902967,
0.00786432608628708,0.0094371913035445,0.0110100565208019,0.0125829217380593,
0.0141557869553168,0.0157286521725742,0.018874382607089,0.0220201130416038,
0.0235929782588613,0.0251658434761187,0.0267387086933761,0.0283115739106335,
0.0314573043451483),.UNSPECIFIED.);
#93=B_SPLINE_CURVE_WITH_KNOTS('',3,(#336,#337,#338,#339,#340,#341,#342,
#343,#344,#345,#346,#347,#348,#349,#350,#351),.UNSPECIFIED.,.T.,.F.,(1,
1,1,1,1,1,1,1,1,1,1,1,1,1,1,1,1,1,1,1),(-0.00629146086902966,-0.00314573043451483,
-0.00157286521725742,0.,0.00157286521725742,0.00314573043451483,0.00629146086902966,
0.00786432608628708,0.0094371913035445,0.0110100565208019,0.0125829217380593,
0.0141557869553167,0.0157286521725742,0.018874382607089,0.0220201130416038,
0.0235929782588612,0.0251658434761187,0.0267387086933761,0.0283115739106335,
0.0314573043451483),.UNSPECIFIED.);
#94=B_SPLINE_CURVE_WITH_KNOTS('',3,(#363,#364,#365,#366,#367,#368,#369,
#370,#371,#372,#373,#374,#375,#376,#377,#378,#379,#380,#381),
 .UNSPECIFIED.,.T.,.F.,(1,1,1,1,1,1,1,1,1,1,1,1,1,1,1,1,1,1,1,1,1,1,1),
(-0.00475797560186517,-0.00317198373457678,-0.00158599186728839,0.,0.00158599186728839,
0.00317198373457678,0.00475797560186517,0.00634396746915356,0.00792995933644195,
0.00951595120373034,0.0111019430710187,0.0126879349383071,0.0142739268055955,
0.0158599186728839,0.0174459105401723,0.0190319024074607,0.0206178942747491,
0.0222038861420375,0.0237898780093259,0.0253758698766142,0.0269618617439026,
0.028547853611191,0.0301338454784794),.UNSPECIFIED.);
#95=B_SPLINE_CURVE_WITH_KNOTS('',3,(#383,#384,#385,#386,#387,#388,#389,
#390,#391,#392,#393,#394,#395,#396,#397,#398,#399,#400,#401),
 .UNSPECIFIED.,.T.,.F.,(1,1,1,1,1,1,1,1,1,1,1,1,1,1,1,1,1,1,1,1,1,1,1),
(-0.00475797560186517,-0.00317198373457678,-0.00158599186728839,0.,0.00158599186728839,
0.00317198373457678,0.00475797560186517,0.00634396746915356,0.00792995933644195,
0.00951595120373034,0.0111019430710187,0.0126879349383071,0.0142739268055955,
0.0158599186728839,0.0174459105401723,0.0190319024074607,0.0206178942747491,
0.0222038861420375,0.0237898780093258,0.0253758698766142,0.0269618617439026,
0.028547853611191,0.0301338454784794),.UNSPECIFIED.);
#96=B_SPLINE_CURVE_WITH_KNOTS('',3,(#408,#409,#410,#411,#412,#413,#414,
#415,#416,#417,#418,#419,#420,#421,#422,#423,#424,#425,#426),
 .UNSPECIFIED.,.T.,.F.,(1,1,1,1,1,1,1,1,1,1,1,1,1,1,1,1,1,1,1,1,1,1,1),
(-0.00473742499261464,-0.00315828332840976,-0.00157914166420488,0.,0.00157914166420488,
0.00315828332840976,0.00473742499261464,0.00631656665681952,0.0078957083210244,
0.00947484998522929,0.0110539916494342,0.012633133313639,0.0142122749778439,
0.0157914166420488,0.0173705583062537,0.0189496999704586,0.0205288416346635,
0.0221079832988683,0.0236871249630732,0.0252662666272781,0.026845408291483,
0.0284245499556879,0.0300036916198927),.UNSPECIFIED.);
#97=B_SPLINE_CURVE_WITH_KNOTS('',3,(#428,#429,#430,#431,#432,#433,#434,
#435,#436,#437,#438,#439,#440,#441,#442,#443,#444,#445,#446),
 .UNSPECIFIED.,.T.,.F.,(1,1,1,1,1,1,1,1,1,1,1,1,1,1,1,1,1,1,1,1,1,1,1),
(-0.00473742499261465,-0.00315828332840977,-0.00157914166420488,0.,0.00157914166420488,
0.00315828332840977,0.00473742499261465,0.00631656665681953,0.00789570832102442,
0.0094748499852293,0.0110539916494342,0.0126331333136391,0.014212274977844,
0.0157914166420488,0.0173705583062537,0.0189496999704586,0.0205288416346635,
0.0221079832988684,0.0236871249630733,0.0252662666272781,0.026845408291483,
0.0284245499556879,0.0300036916198928),.UNSPECIFIED.);
#98=EDGE_LOOP('',(#26));
#99=EDGE_LOOP('',(#27));
#100=EDGE_LOOP('',(#28));
#101=EDGE_LOOP('',(#29));
#102=EDGE_LOOP('',(#30));
#103=EDGE_LOOP('',(#31));
#104=EDGE_LOOP('',(#32));
#105=EDGE_LOOP('',(#33));
#106=EDGE_LOOP('',(#34));
#107=EDGE_LOOP('',(#35));
#108=EDGE_LOOP('',(#36));
#109=EDGE_LOOP('',(#37));
#110=EDGE_LOOP('',(#38));
#111=EDGE_LOOP('',(#39));
#112=EDGE_LOOP('',(#40));
#113=EDGE_LOOP('',(#41));
#114=EDGE_LOOP('',(#42));
#115=EDGE_LOOP('',(#43));
#116=EDGE_LOOP('',(#44));
#117=EDGE_LOOP('',(#45));
#118=EDGE_LOOP('',(#46));
#119=EDGE_LOOP('',(#47));
#120=EDGE_LOOP('',(#48));
#121=EDGE_LOOP('',(#49));
#122=EDGE_LOOP('',(#50));
#123=EDGE_LOOP('',(#51));
#124=EDGE_LOOP('',(#52));
#125=EDGE_LOOP('',(#53));
#126=EDGE_LOOP('',(#54));
#127=EDGE_LOOP('',(#55));
#128=EDGE_LOOP('',(#56));
#129=EDGE_LOOP('',(#57));
#130=FACE_BOUND('',#98,.T.);
#131=FACE_BOUND('',#99,.T.);
#132=FACE_BOUND('',#100,.T.);
#133=FACE_BOUND('',#101,.T.);
#134=FACE_BOUND('',#102,.T.);
#135=FACE_BOUND('',#103,.T.);
#136=FACE_BOUND('',#104,.T.);
#137=FACE_BOUND('',#105,.T.);
#138=FACE_BOUND('',#106,.T.);
#139=FACE_BOUND('',#107,.T.);
#140=FACE_BOUND('',#108,.T.);
#141=FACE_BOUND('',#109,.T.);
#142=FACE_BOUND('',#110,.T.);
#143=FACE_BOUND('',#111,.T.);
#144=FACE_BOUND('',#112,.T.);
#145=FACE_BOUND('',#113,.T.);
#146=FACE_BOUND('',#114,.T.);
#147=FACE_BOUND('',#115,.T.);
#148=FACE_BOUND('',#116,.T.);
#149=FACE_BOUND('',#117,.T.);
#150=FACE_BOUND('',#118,.T.);
#151=FACE_BOUND('',#119,.T.);
#152=FACE_BOUND('',#120,.T.);
#153=FACE_BOUND('',#121,.T.);
#154=FACE_BOUND('',#122,.T.);
#155=FACE_BOUND('',#123,.T.);
#156=FACE_BOUND('',#124,.T.);
#157=FACE_BOUND('',#125,.T.);
#158=FACE_BOUND('',#126,.T.);
#159=FACE_BOUND('',#127,.T.);
#160=FACE_BOUND('',#128,.T.);
#161=FACE_BOUND('',#129,.T.);
#162=CYLINDRICAL_SURFACE('',#207,1.15);
#163=CYLINDRICAL_SURFACE('',#210,1.2820754347826);
#164=CYLINDRICAL_SURFACE('',#215,0.4);
#165=CYLINDRICAL_SURFACE('',#216,0.4);
#166=CYLINDRICAL_SURFACE('',#218,0.846525496108942);
#167=CYLINDRICAL_SURFACE('',#221,1.);
#168=CYLINDRICAL_SURFACE('',#226,0.4);
#169=CYLINDRICAL_SURFACE('',#227,0.4);
#170=ADVANCED_FACE('',(#130,#131,#132,#133),#162,.F.);
#171=ADVANCED_FACE('',(#134,#135,#136,#137),#163,.T.);
#172=ADVANCED_FACE('',(#138,#139),#14,.F.);
#173=ADVANCED_FACE('',(#140,#141),#15,.T.);
#174=ADVANCED_FACE('',(#142,#143),#164,.F.);
#175=ADVANCED_FACE('',(#144,#145),#165,.F.);
#176=ADVANCED_FACE('',(#146,#147,#148,#149),#166,.F.);
#177=ADVANCED_FACE('',(#150,#151,#152,#153),#167,.T.);
#178=ADVANCED_FACE('',(#154,#155),#16,.T.);
#179=ADVANCED_FACE('',(#156,#157),#17,.F.);
#180=ADVANCED_FACE('',(#158,#159),#168,.F.);
#181=ADVANCED_FACE('',(#160,#161),#169,.F.);
#182=CLOSED_SHELL('',(#170,#171,#172,#173,#174,#175));
#183=CLOSED_SHELL('',(#176,#177,#178,#179,#180,#181));
#184=STYLED_ITEM('',(#186),#200);
#185=STYLED_ITEM('',(#187),#201);
#186=PRESENTATION_STYLE_ASSIGNMENT((#188));
#187=PRESENTATION_STYLE_ASSIGNMENT((#189));
#188=SURFACE_STYLE_USAGE(.BOTH.,#190);
#189=SURFACE_STYLE_USAGE(.BOTH.,#191);
#190=SURFACE_SIDE_STYLE('',(#192));
#191=SURFACE_SIDE_STYLE('',(#193));
#192=SURFACE_STYLE_FILL_AREA(#194);
#193=SURFACE_STYLE_FILL_AREA(#195);
#194=FILL_AREA_STYLE('',(#196));
#195=FILL_AREA_STYLE('',(#197));
#196=FILL_AREA_STYLE_COLOUR('',#198);
#197=FILL_AREA_STYLE_COLOUR('',#199);
#198=COLOUR_RGB('',0.647058823529412,0.647058823529412,0.647058823529412);
#199=COLOUR_RGB('',0.615686274509804,0.811764705882353,0.929411764705882);
#200=MANIFOLD_SOLID_BREP('Part 2',#182);
#201=MANIFOLD_SOLID_BREP('Part 1',#183);
#202=SHAPE_DEFINITION_REPRESENTATION(#468,#204);
#203=SHAPE_DEFINITION_REPRESENTATION(#469,#205);
#204=SHAPE_REPRESENTATION('Part 2',(#206),#458);
#205=SHAPE_REPRESENTATION('Part 1',(#217),#459);
#206=AXIS2_PLACEMENT_3D('',#272,#228,#229);
#207=AXIS2_PLACEMENT_3D('',#273,#230,#231);
#208=AXIS2_PLACEMENT_3D('',#314,#232,#233);
#209=AXIS2_PLACEMENT_3D('',#316,#234,#235);
#210=AXIS2_PLACEMENT_3D('',#318,#236,#237);
#211=AXIS2_PLACEMENT_3D('',#353,#238,#239);
#212=AXIS2_PLACEMENT_3D('',#355,#240,#241);
#213=AXIS2_PLACEMENT_3D('',#357,#242,#243);
#214=AXIS2_PLACEMENT_3D('',#358,#244,#245);
#215=AXIS2_PLACEMENT_3D('',#359,#246,#247);
#216=AXIS2_PLACEMENT_3D('',#360,#248,#249);
#217=AXIS2_PLACEMENT_3D('',#361,#250,#251);
#218=AXIS2_PLACEMENT_3D('',#362,#252,#253);
#219=AXIS2_PLACEMENT_3D('',#403,#254,#255);
#220=AXIS2_PLACEMENT_3D('',#405,#256,#257);
#221=AXIS2_PLACEMENT_3D('',#407,#258,#259);
#222=AXIS2_PLACEMENT_3D('',#448,#260,#261);
#223=AXIS2_PLACEMENT_3D('',#450,#262,#263);
#224=AXIS2_PLACEMENT_3D('',#452,#264,#265);
#225=AXIS2_PLACEMENT_3D('',#453,#266,#267);
#226=AXIS2_PLACEMENT_3D('',#454,#268,#269);
#227=AXIS2_PLACEMENT_3D('',#455,#270,#271);
#228=DIRECTION('',(0.,0.,1.));
#229=DIRECTION('',(1.,0.,0.));
#230=DIRECTION('',(0.,-1.,0.));
#231=DIRECTION('',(0.,0.,-1.));
#232=DIRECTION('',(0.,-1.,0.));
#233=DIRECTION('',(0.,0.,-1.));
#234=DIRECTION('',(0.,-1.,0.));
#235=DIRECTION('',(0.,0.,-1.));
#236=DIRECTION('',(0.,-1.,0.));
#237=DIRECTION('',(0.,0.,-1.));
#238=DIRECTION('',(0.,-1.,0.));
#239=DIRECTION('',(0.,0.,-1.));
#240=DIRECTION('',(0.,-1.,0.));
#241=DIRECTION('',(0.,0.,-1.));
#242=DIRECTION('',(0.,-1.,0.));
#243=DIRECTION('',(1.,0.,0.));
#244=DIRECTION('',(0.,-1.,0.));
#245=DIRECTION('',(1.,0.,0.));
#246=DIRECTION('',(1.,0.,0.));
#247=DIRECTION('',(0.,0.,-1.));
#248=DIRECTION('',(1.,0.,0.));
#249=DIRECTION('',(0.,0.,-1.));
#250=DIRECTION('',(0.,0.,1.));
#251=DIRECTION('',(1.,0.,0.));
#252=DIRECTION('',(0.,1.,0.));
#253=DIRECTION('',(0.,0.,1.));
#254=DIRECTION('',(0.,-1.,0.));
#255=DIRECTION('',(0.,0.,-1.));
#256=DIRECTION('',(0.,-1.,0.));
#257=DIRECTION('',(0.,0.,-1.));
#258=DIRECTION('',(0.,1.,0.));
#259=DIRECTION('',(0.,0.,1.));
#260=DIRECTION('',(0.,-1.,0.));
#261=DIRECTION('',(0.,0.,-1.));
#262=DIRECTION('',(0.,-1.,0.));
#263=DIRECTION('',(0.,0.,-1.));
#264=DIRECTION('',(0.,-1.,0.));
#265=DIRECTION('',(1.,0.,0.));
#266=DIRECTION('',(0.,-1.,0.));
#267=DIRECTION('',(1.,0.,0.));
#268=DIRECTION('',(1.,0.,0.));
#269=DIRECTION('',(0.,0.,-1.));
#270=DIRECTION('',(1.,0.,0.));
#271=DIRECTION('',(0.,0.,-1.));
#272=CARTESIAN_POINT('',(0.,0.,0.));
#273=CARTESIAN_POINT('',(-2.53257062286138,7.,1.67297534644603));
#274=CARTESIAN_POINT('',(-3.61902012277501,6.15822693975142,1.29430829356697));
#275=CARTESIAN_POINT('',(-3.60663364415356,6.00002181724549,1.26230573334427));
#276=CARTESIAN_POINT('',(-3.6190266336334,5.84168579126661,1.29432085173217));
#277=CARTESIAN_POINT('',(-3.64739538252454,5.70994815907241,1.38296580783418));
#278=CARTESIAN_POINT('',(-3.67489178980117,5.62135821086086,1.51471881425255));
#279=CARTESIAN_POINT('',(-3.68639594645747,5.58936468721072,1.67262142063996));
#280=CARTESIAN_POINT('',(-3.67494797576848,5.62118357438154,1.83104645439616));
#281=CARTESIAN_POINT('',(-3.64733318602955,5.7101450128376,1.96322992909454));
#282=CARTESIAN_POINT('',(-3.61900750104283,5.84190758740088,2.05166935900683));
#283=CARTESIAN_POINT('',(-3.60665101343868,5.99979709867206,2.0835997939997));
#284=CARTESIAN_POINT('',(-3.61896984791881,6.15795442886092,2.05178335581242));
#285=CARTESIAN_POINT('',(-3.64736635724058,6.28998038817557,1.96312027909648));
#286=CARTESIAN_POINT('',(-3.67492805722741,6.37874891873781,1.83107514624921));
#287=CARTESIAN_POINT('',(-3.68639494364381,6.41063332628024,1.67296849489812));
#288=CARTESIAN_POINT('',(-3.67491590426343,6.37871777297233,1.51477962064932));
#289=CARTESIAN_POINT('',(-3.64736322558896,6.28994526975926,1.38284436771768));
#290=CARTESIAN_POINT('',(-3.61902012277501,6.15822693975142,1.29430829356697));
#291=CARTESIAN_POINT('',(-3.60663364415356,6.00002181724549,1.26230573334427));
#292=CARTESIAN_POINT('',(-3.6190266336334,5.84168579126661,1.29432085173217));
#293=CARTESIAN_POINT('',(-3.61076355550377,6.,1.27297534644604));
#294=CARTESIAN_POINT('',(-1.44612112294777,5.84177306024859,1.29430829356696));
#295=CARTESIAN_POINT('',(-1.45850760156921,5.9999781827545,1.26230573334427));
#296=CARTESIAN_POINT('',(-1.44611461208937,6.15831420873339,1.29432085173217));
#297=CARTESIAN_POINT('',(-1.41774586319823,6.29005184092759,1.38296580783418));
#298=CARTESIAN_POINT('',(-1.3902494559216,6.37864178913913,1.51471881425255));
#299=CARTESIAN_POINT('',(-1.3787452992653,6.41063531278928,1.67262142063995));
#300=CARTESIAN_POINT('',(-1.39019326995429,6.37881642561846,1.83104645439617));
#301=CARTESIAN_POINT('',(-1.41780805969323,6.2898549871624,1.96322992909454));
#302=CARTESIAN_POINT('',(-1.44613374467994,6.15809241259912,2.05166935900683));
#303=CARTESIAN_POINT('',(-1.45849023228409,6.00020290132794,2.0835997939997));
#304=CARTESIAN_POINT('',(-1.44617139780396,5.84204557113908,2.05178335581242));
#305=CARTESIAN_POINT('',(-1.41777488848219,5.71001961182443,1.96312027909648));
#306=CARTESIAN_POINT('',(-1.39021318849536,5.62125108126219,1.8310751462492));
#307=CARTESIAN_POINT('',(-1.37874630207896,5.58936667371977,1.67296849489812));
#308=CARTESIAN_POINT('',(-1.39022534145935,5.62128222702767,1.51477962064932));
#309=CARTESIAN_POINT('',(-1.4177780201338,5.71005473024074,1.38284436771768));
#310=CARTESIAN_POINT('',(-1.44612112294777,5.84177306024859,1.29430829356696));
#311=CARTESIAN_POINT('',(-1.45850760156921,5.9999781827545,1.26230573334427));
#312=CARTESIAN_POINT('',(-1.44611461208937,6.15831420873339,1.29432085173217));
#313=CARTESIAN_POINT('',(-1.45437769021899,6.,1.27297534644604));
#314=CARTESIAN_POINT('',(-2.53257062286138,7.,1.67297534644603));
#315=CARTESIAN_POINT('',(-2.53257062286138,7.,0.522975346446035));
#316=CARTESIAN_POINT('',(-2.53257062286138,-2.5,1.67297534644603));
#317=CARTESIAN_POINT('',(-2.53257062286138,-2.5,0.522975346446035));
#318=CARTESIAN_POINT('',(-2.53257062286138,7.,1.67297534644603));
#319=CARTESIAN_POINT('',(-3.75788950197718,6.15822132602937,1.2944009589803));
#320=CARTESIAN_POINT('',(-3.74703824946694,5.99994799305623,1.26228692803693));
#321=CARTESIAN_POINT('',(-3.75785762690195,5.84198670174568,1.2943034075482));
#322=CARTESIAN_POINT('',(-3.79193025727077,5.66558130160075,1.41215801391479));
#323=CARTESIAN_POINT('',(-3.82181893722034,5.57855635888303,1.61958708256367));
#324=CARTESIAN_POINT('',(-3.8077723876377,5.62113130566506,1.83082055704714));
#325=CARTESIAN_POINT('',(-3.78314463732452,5.71003002052478,1.96318449780427));
#326=CARTESIAN_POINT('',(-3.75790243344058,5.8420973905884,2.05175476180507));
#327=CARTESIAN_POINT('',(-3.74704499578261,5.99980887230828,2.08357660540231));
#328=CARTESIAN_POINT('',(-3.75781778201542,6.15764238819277,2.05179067649615));
#329=CARTESIAN_POINT('',(-3.79182395782766,6.33426182210599,1.93417032196343));
#330=CARTESIAN_POINT('',(-3.82984726468418,6.44381413007739,1.67304161944739));
#331=CARTESIAN_POINT('',(-3.79186452350294,6.33429574651758,1.41198723289926));
#332=CARTESIAN_POINT('',(-3.75788950197718,6.15822132602937,1.2944009589803));
#333=CARTESIAN_POINT('',(-3.74703824946694,5.99994799305623,1.26228692803693));
#334=CARTESIAN_POINT('',(-3.75785762690195,5.84198670174568,1.2943034075482));
#335=CARTESIAN_POINT('',(-3.75065002112448,6.,1.27297534644604));
#336=CARTESIAN_POINT('',(-1.30725174374559,5.84177867397063,1.2944009589803));
#337=CARTESIAN_POINT('',(-1.31810299625583,6.00005200694376,1.26228692803693));
#338=CARTESIAN_POINT('',(-1.30728361882082,6.15801329825432,1.2943034075482));
#339=CARTESIAN_POINT('',(-1.273210988452,6.33441869839926,1.41215801391479));
#340=CARTESIAN_POINT('',(-1.24332230850243,6.42144364111697,1.61958708256367));
#341=CARTESIAN_POINT('',(-1.25736885808507,6.37886869433494,1.83082055704714));
#342=CARTESIAN_POINT('',(-1.28199660839825,6.28996997947522,1.96318449780427));
#343=CARTESIAN_POINT('',(-1.30723881228219,6.1579026094116,2.05175476180507));
#344=CARTESIAN_POINT('',(-1.31809624994016,6.00019112769172,2.08357660540231));
#345=CARTESIAN_POINT('',(-1.30732346370735,5.84235761180723,2.05179067649616));
#346=CARTESIAN_POINT('',(-1.27331728789511,5.66573817789401,1.93417032196343));
#347=CARTESIAN_POINT('',(-1.23529398103859,5.55618586992261,1.6730416194474));
#348=CARTESIAN_POINT('',(-1.27327672221983,5.66570425348241,1.41198723289926));
#349=CARTESIAN_POINT('',(-1.30725174374559,5.84177867397063,1.2944009589803));
#350=CARTESIAN_POINT('',(-1.31810299625583,6.00005200694376,1.26228692803693));
#351=CARTESIAN_POINT('',(-1.30728361882082,6.15801329825432,1.2943034075482));
#352=CARTESIAN_POINT('',(-1.31449122459829,6.,1.27297534644604));
#353=CARTESIAN_POINT('',(-2.53257062286138,7.,1.67297534644603));
#354=CARTESIAN_POINT('',(-2.53257062286138,7.,0.390899911663439));
#355=CARTESIAN_POINT('',(-2.53257062286138,-2.5,1.67297534644603));
#356=CARTESIAN_POINT('',(-2.53257062286138,-2.5,0.390899911663439));
#357=CARTESIAN_POINT('',(-2.53257062286138,7.,1.67297534644603));
#358=CARTESIAN_POINT('',(-2.53257062286138,-2.5,1.67297534644603));
#359=CARTESIAN_POINT('',(-17.1292338326808,6.,1.67297534644604));
#360=CARTESIAN_POINT('',(-17.1292338326808,6.,1.67297534644604));
#361=CARTESIAN_POINT('',(0.,0.,0.));
#362=CARTESIAN_POINT('',(-2.53257062286138,-9.5,1.67297534644603));
#363=CARTESIAN_POINT('',(-3.29086684600072,-8.65932079735941,1.29477837886474));
#364=CARTESIAN_POINT('',(-3.27251656255254,-8.49997067574858,1.26208398583545));
#365=CARTESIAN_POINT('',(-3.29085020652513,-8.34079649964627,1.29473775646967));
#366=CARTESIAN_POINT('',(-3.33073517179523,-8.21037800276641,1.3828473279042));
#367=CARTESIAN_POINT('',(-3.36842365798603,-8.12194052238298,1.51336443101884));
#368=CARTESIAN_POINT('',(-3.38438269983317,-8.08913841320627,1.67210440458486));
#369=CARTESIAN_POINT('',(-3.36862056066581,-8.12150941371814,1.83191950730418));
#370=CARTESIAN_POINT('',(-3.33079925435714,-8.21018111446566,1.96292487197392));
#371=CARTESIAN_POINT('',(-3.29097106788204,-8.34039527623711,2.05097472266675));
#372=CARTESIAN_POINT('',(-3.2725421249275,-8.49894892487219,2.08381439305367));
#373=CARTESIAN_POINT('',(-3.29064693697783,-8.65845504171608,2.05161381188544));
#374=CARTESIAN_POINT('',(-3.33067127880732,-8.78948616063104,1.96330923745846));
#375=CARTESIAN_POINT('',(-3.36842662498816,-8.87806400609758,1.83264622167281));
#376=CARTESIAN_POINT('',(-3.38436921007355,-8.91083146016439,1.67375248270428));
#377=CARTESIAN_POINT('',(-3.36867157667369,-8.87860661505006,1.51431700888614));
#378=CARTESIAN_POINT('',(-3.33078385854719,-8.78977991369593,1.38292280211826));
#379=CARTESIAN_POINT('',(-3.29086684600072,-8.65932079735941,1.29477837886474));
#380=CARTESIAN_POINT('',(-3.27251656255254,-8.49997067574858,1.26208398583545));
#381=CARTESIAN_POINT('',(-3.29085020652513,-8.34079649964627,1.29473775646967));
#382=CARTESIAN_POINT('',(-3.278630550456,-8.5,1.27297534644604));
#383=CARTESIAN_POINT('',(-1.77427439972205,-8.34067920264059,1.29477837886474));
#384=CARTESIAN_POINT('',(-1.79262468317022,-8.50002932425142,1.26208398583545));
#385=CARTESIAN_POINT('',(-1.77429103919764,-8.65920350035373,1.29473775646967));
#386=CARTESIAN_POINT('',(-1.73440607392754,-8.78962199723359,1.3828473279042));
#387=CARTESIAN_POINT('',(-1.69671758773674,-8.87805947761702,1.51336443101884));
#388=CARTESIAN_POINT('',(-1.6807585458896,-8.91086158679373,1.67210440458486));
#389=CARTESIAN_POINT('',(-1.69652068505696,-8.87849058628186,1.83191950730418));
#390=CARTESIAN_POINT('',(-1.73434199136563,-8.78981888553434,1.96292487197392));
#391=CARTESIAN_POINT('',(-1.77417017784073,-8.65960472376289,2.05097472266675));
#392=CARTESIAN_POINT('',(-1.79259912079527,-8.50105107512781,2.08381439305367));
#393=CARTESIAN_POINT('',(-1.77449430874494,-8.34154495828392,2.05161381188544));
#394=CARTESIAN_POINT('',(-1.73446996691545,-8.21051383936896,1.96330923745846));
#395=CARTESIAN_POINT('',(-1.69671462073461,-8.12193599390241,1.83264622167282));
#396=CARTESIAN_POINT('',(-1.68077203564922,-8.08916853983562,1.67375248270428));
#397=CARTESIAN_POINT('',(-1.69646966904908,-8.12139338494994,1.51431700888614));
#398=CARTESIAN_POINT('',(-1.73435738717558,-8.21022008630408,1.38292280211826));
#399=CARTESIAN_POINT('',(-1.77427439972205,-8.34067920264059,1.29477837886474));
#400=CARTESIAN_POINT('',(-1.79262468317022,-8.50002932425142,1.26208398583545));
#401=CARTESIAN_POINT('',(-1.77429103919764,-8.65920350035373,1.29473775646967));
#402=CARTESIAN_POINT('',(-1.78651069526677,-8.5,1.27297534644604));
#403=CARTESIAN_POINT('',(-2.53257062286138,-9.5,1.67297534644603));
#404=CARTESIAN_POINT('',(-2.53257062286138,-9.5,0.826449850337093));
#405=CARTESIAN_POINT('',(-2.53257062286138,0.,1.67297534644603));
#406=CARTESIAN_POINT('',(-2.53257062286138,0.,0.826449850337093));
#407=CARTESIAN_POINT('',(-2.53257062286138,-9.5,1.67297534644603));
#408=CARTESIAN_POINT('',(-3.45895088445525,-8.65907297877435,1.29461867589556));
#409=CARTESIAN_POINT('',(-3.44416765829246,-8.49988193495122,1.26218800381057));
#410=CARTESIAN_POINT('',(-3.45889305349023,-8.34139928142079,1.29448138753837));
#411=CARTESIAN_POINT('',(-3.49193102152556,-8.21011174879687,1.38290949104115));
#412=CARTESIAN_POINT('',(-3.5236566410104,-8.12159867788962,1.51417537077541));
#413=CARTESIAN_POINT('',(-3.53699667588163,-8.08928227761338,1.67235315931867));
#414=CARTESIAN_POINT('',(-3.52377965621461,-8.12127405269939,1.83129136129971));
#415=CARTESIAN_POINT('',(-3.49193618974264,-8.21007935731408,1.96303221298435));
#416=CARTESIAN_POINT('',(-3.45893402729451,-8.3412271902723,2.05136307814691));
#417=CARTESIAN_POINT('',(-3.44420756152782,-8.4993429910808,2.083670401662));
#418=CARTESIAN_POINT('',(-3.45875138325192,-8.65794556053315,2.05180490658971));
#419=CARTESIAN_POINT('',(-3.49186781644427,-8.78971835821527,1.96327590029958));
#420=CARTESIAN_POINT('',(-3.52366237430687,-8.87841688812829,1.83181828845821));
#421=CARTESIAN_POINT('',(-3.5369899650955,-8.91069956101301,1.67349173308194));
#422=CARTESIAN_POINT('',(-3.52380084433303,-8.87878322245318,1.51487715260046));
#423=CARTESIAN_POINT('',(-3.49201319906643,-8.7901245751269,1.38314979902696));
#424=CARTESIAN_POINT('',(-3.45895088445525,-8.65907297877435,1.29461867589556));
#425=CARTESIAN_POINT('',(-3.44416765829246,-8.49988193495122,1.26218800381057));
#426=CARTESIAN_POINT('',(-3.45889305349023,-8.34139928142079,1.29448138753837));
#427=CARTESIAN_POINT('',(-3.44908576185255,-8.5,1.27297534644604));
#428=CARTESIAN_POINT('',(-1.60619036126752,-8.34092702122565,1.29461867589556));
#429=CARTESIAN_POINT('',(-1.62097358743032,-8.50011806504879,1.26218800381057));
#430=CARTESIAN_POINT('',(-1.60624819223254,-8.65860071857921,1.29448138753837));
#431=CARTESIAN_POINT('',(-1.57321022419721,-8.78988825120313,1.38290949104115));
#432=CARTESIAN_POINT('',(-1.54148460471237,-8.87840132211037,1.51417537077541));
#433=CARTESIAN_POINT('',(-1.52814456984114,-8.91071772238662,1.67235315931867));
#434=CARTESIAN_POINT('',(-1.54136158950816,-8.87872594730062,1.83129136129971));
#435=CARTESIAN_POINT('',(-1.57320505598014,-8.78992064268593,1.96303221298435));
#436=CARTESIAN_POINT('',(-1.60620721842826,-8.6587728097277,2.05136307814691));
#437=CARTESIAN_POINT('',(-1.62093368419495,-8.5006570089192,2.083670401662));
#438=CARTESIAN_POINT('',(-1.60638986247085,-8.34205443946685,2.05180490658971));
#439=CARTESIAN_POINT('',(-1.5732734292785,-8.21028164178474,1.96327590029958));
#440=CARTESIAN_POINT('',(-1.5414788714159,-8.12158311187171,1.83181828845821));
#441=CARTESIAN_POINT('',(-1.52815128062727,-8.08930043898699,1.67349173308194));
#442=CARTESIAN_POINT('',(-1.54134040138974,-8.12121677754682,1.51487715260046));
#443=CARTESIAN_POINT('',(-1.57312804665634,-8.20987542487311,1.38314979902696));
#444=CARTESIAN_POINT('',(-1.60619036126752,-8.34092702122565,1.29461867589556));
#445=CARTESIAN_POINT('',(-1.62097358743032,-8.50011806504879,1.26218800381057));
#446=CARTESIAN_POINT('',(-1.60624819223254,-8.65860071857921,1.29448138753837));
#447=CARTESIAN_POINT('',(-1.61605548387022,-8.5,1.27297534644604));
#448=CARTESIAN_POINT('',(-2.53257062286138,-9.5,1.67297534644603));
#449=CARTESIAN_POINT('',(-2.53257062286138,-9.5,0.672975346446035));
#450=CARTESIAN_POINT('',(-2.53257062286138,0.,1.67297534644603));
#451=CARTESIAN_POINT('',(-2.53257062286138,0.,0.672975346446035));
#452=CARTESIAN_POINT('',(-2.53257062286138,-9.5,1.67297534644603));
#453=CARTESIAN_POINT('',(-2.53257062286138,0.,1.67297534644603));
#454=CARTESIAN_POINT('',(-17.1292338326808,-8.5,1.67297534644603));
#455=CARTESIAN_POINT('',(-17.1292338326808,-8.5,1.67297534644603));
#456=MECHANICAL_DESIGN_GEOMETRIC_PRESENTATION_REPRESENTATION('',(#184),
#458);
#457=MECHANICAL_DESIGN_GEOMETRIC_PRESENTATION_REPRESENTATION('',(#185),
#459);
#458=(
GEOMETRIC_REPRESENTATION_CONTEXT(3)
GLOBAL_UNCERTAINTY_ASSIGNED_CONTEXT((#460))
GLOBAL_UNIT_ASSIGNED_CONTEXT((#466,#464,#462))
REPRESENTATION_CONTEXT('Part 2','TOP_LEVEL_ASSEMBLY_PART')
);
#459=(
GEOMETRIC_REPRESENTATION_CONTEXT(3)
GLOBAL_UNCERTAINTY_ASSIGNED_CONTEXT((#461))
GLOBAL_UNIT_ASSIGNED_CONTEXT((#467,#465,#463))
REPRESENTATION_CONTEXT('Part 1','TOP_LEVEL_ASSEMBLY_PART')
);
#460=UNCERTAINTY_MEASURE_WITH_UNIT(LENGTH_MEASURE(0.002),#466,
'DISTANCE_ACCURACY_VALUE','Maximum Tolerance applied to model');
#461=UNCERTAINTY_MEASURE_WITH_UNIT(LENGTH_MEASURE(0.002),#467,
'DISTANCE_ACCURACY_VALUE','Maximum Tolerance applied to model');
#462=(
NAMED_UNIT(*)
SI_UNIT($,.STERADIAN.)
SOLID_ANGLE_UNIT()
);
#463=(
NAMED_UNIT(*)
SI_UNIT($,.STERADIAN.)
SOLID_ANGLE_UNIT()
);
#464=(
NAMED_UNIT(*)
PLANE_ANGLE_UNIT()
SI_UNIT($,.RADIAN.)
);
#465=(
NAMED_UNIT(*)
PLANE_ANGLE_UNIT()
SI_UNIT($,.RADIAN.)
);
#466=(
LENGTH_UNIT()
NAMED_UNIT(*)
SI_UNIT(.CENTI.,.METRE.)
);
#467=(
LENGTH_UNIT()
NAMED_UNIT(*)
SI_UNIT(.CENTI.,.METRE.)
);
#468=PRODUCT_DEFINITION_SHAPE('','',#470);
#469=PRODUCT_DEFINITION_SHAPE('','',#471);
#470=PRODUCT_DEFINITION('','',#474,#472);
#471=PRODUCT_DEFINITION('','',#475,#473);
#472=PRODUCT_DEFINITION_CONTEXT('',#486,'design');
#473=PRODUCT_DEFINITION_CONTEXT('',#487,'design');
#474=PRODUCT_DEFINITION_FORMATION_WITH_SPECIFIED_SOURCE('','',#478,
 .NOT_KNOWN.);
#475=PRODUCT_DEFINITION_FORMATION_WITH_SPECIFIED_SOURCE('','',#479,
 .NOT_KNOWN.);
#476=PRODUCT_RELATED_PRODUCT_CATEGORY('','',(#478));
#477=PRODUCT_RELATED_PRODUCT_CATEGORY('','',(#479));
#478=PRODUCT('Part 2','Part 2','Part 2',(#482));
#479=PRODUCT('Part 1','Part 1','Part 1',(#483));
#480=PRODUCT_CATEGORY('','');
#481=PRODUCT_CATEGORY('','');
#482=PRODUCT_CONTEXT('',#486,'mechanical');
#483=PRODUCT_CONTEXT('',#487,'mechanical');
#484=APPLICATION_PROTOCOL_DEFINITION('international standard',
'ap242_managed_model_based_3d_engineering',2020,#486);
#485=APPLICATION_PROTOCOL_DEFINITION('international standard',
'ap242_managed_model_based_3d_engineering',2020,#487);
#486=APPLICATION_CONTEXT('managed model based 3d engineering');
#487=APPLICATION_CONTEXT('managed model based 3d engineering');
ENDSEC;
END-ISO-10303-21;
