ISO-10303-21;
HEADER;
/* Generated by software containing ST-Developer
 * from STEP Tools, Inc. (www.steptools.com) 
 */
/* OPTION: using custom renumber hook */

FILE_DESCRIPTION(
/* description */ ('STEP AP242 Edition 2',
'CAx-IF Rec.Pracs.---Representation and Presentation of Product Manufa
cturing Information (PMI)---4.0---2014-10-13',
'CAx-IF Rec.Pracs.---3D Tessellated Geometry---0.4---2014-09-14','2;1',
'CAx-IF Rec.Pracs.---User Defined Attributes---1.5---2016-08-15'),
/* implementation_level */ '2;1');

FILE_NAME(
/* name */ 'upper pedal',
/* time_stamp */ '2026-05-03T07:53:47Z',
/* author */ (''),
/* organization */ (''),
/* preprocessor_version */ 'ST-DEVELOPER v20',
/* originating_system */ 'ONSHAPE BY PTC INC, 1.214',
/* authorisation */ '  ');

FILE_SCHEMA (('AP242_MANAGED_MODEL_BASED_3D_ENGINEERING_MIM_LF { 1 0 10303 442 3 1 4 }'));
ENDSEC;

DATA;
#10=SHAPE_REPRESENTATION_RELATIONSHIP('','',#379,#11);
#11=ADVANCED_BREP_SHAPE_REPRESENTATION('',(#377),#615);
#12=CYLINDRICAL_SURFACE('',#391,0.4);
#13=CYLINDRICAL_SURFACE('',#392,0.4);
#14=CYLINDRICAL_SURFACE('',#409,0.370659803379022);
#15=CYLINDRICAL_SURFACE('',#410,0.370659803379022);
#16=CYLINDRICAL_SURFACE('',#411,0.407110405247952);
#17=CYLINDRICAL_SURFACE('',#412,0.407110405247952);
#18=CYLINDRICAL_SURFACE('',#413,0.15);
#19=CIRCLE('',#382,0.4);
#20=CIRCLE('',#383,0.4);
#21=CIRCLE('',#386,0.4);
#22=CIRCLE('',#387,0.4);
#23=CIRCLE('',#394,0.407110405247952);
#24=CIRCLE('',#395,0.370659803379022);
#25=CIRCLE('',#398,0.407110405247952);
#26=CIRCLE('',#399,0.370659803379022);
#27=CIRCLE('',#401,0.15);
#28=CIRCLE('',#402,0.407110405247952);
#29=CIRCLE('',#403,0.370659803379022);
#30=CIRCLE('',#406,0.15);
#31=CIRCLE('',#407,0.407110405247952);
#32=CIRCLE('',#408,0.370659803379022);
#33=ORIENTED_EDGE('',*,*,#125,.T.);
#34=ORIENTED_EDGE('',*,*,#126,.T.);
#35=ORIENTED_EDGE('',*,*,#127,.T.);
#36=ORIENTED_EDGE('',*,*,#128,.T.);
#37=ORIENTED_EDGE('',*,*,#129,.T.);
#38=ORIENTED_EDGE('',*,*,#130,.F.);
#39=ORIENTED_EDGE('',*,*,#131,.T.);
#40=ORIENTED_EDGE('',*,*,#132,.T.);
#41=ORIENTED_EDGE('',*,*,#133,.T.);
#42=ORIENTED_EDGE('',*,*,#134,.T.);
#43=ORIENTED_EDGE('',*,*,#135,.T.);
#44=ORIENTED_EDGE('',*,*,#136,.T.);
#45=ORIENTED_EDGE('',*,*,#137,.T.);
#46=ORIENTED_EDGE('',*,*,#138,.T.);
#47=ORIENTED_EDGE('',*,*,#136,.F.);
#48=ORIENTED_EDGE('',*,*,#139,.F.);
#49=ORIENTED_EDGE('',*,*,#140,.F.);
#50=ORIENTED_EDGE('',*,*,#137,.F.);
#51=ORIENTED_EDGE('',*,*,#141,.F.);
#52=ORIENTED_EDGE('',*,*,#142,.F.);
#53=ORIENTED_EDGE('',*,*,#143,.F.);
#54=ORIENTED_EDGE('',*,*,#144,.F.);
#55=ORIENTED_EDGE('',*,*,#145,.F.);
#56=ORIENTED_EDGE('',*,*,#146,.T.);
#57=ORIENTED_EDGE('',*,*,#147,.T.);
#58=ORIENTED_EDGE('',*,*,#148,.F.);
#59=ORIENTED_EDGE('',*,*,#149,.T.);
#60=ORIENTED_EDGE('',*,*,#150,.F.);
#61=ORIENTED_EDGE('',*,*,#142,.T.);
#62=ORIENTED_EDGE('',*,*,#151,.T.);
#63=ORIENTED_EDGE('',*,*,#134,.F.);
#64=ORIENTED_EDGE('',*,*,#152,.F.);
#65=ORIENTED_EDGE('',*,*,#153,.T.);
#66=ORIENTED_EDGE('',*,*,#148,.T.);
#67=ORIENTED_EDGE('',*,*,#154,.T.);
#68=ORIENTED_EDGE('',*,*,#128,.F.);
#69=ORIENTED_EDGE('',*,*,#155,.F.);
#70=ORIENTED_EDGE('',*,*,#144,.T.);
#71=ORIENTED_EDGE('',*,*,#156,.T.);
#72=ORIENTED_EDGE('',*,*,#132,.F.);
#73=ORIENTED_EDGE('',*,*,#149,.F.);
#74=ORIENTED_EDGE('',*,*,#153,.F.);
#75=ORIENTED_EDGE('',*,*,#127,.F.);
#76=ORIENTED_EDGE('',*,*,#157,.F.);
#77=ORIENTED_EDGE('',*,*,#147,.F.);
#78=ORIENTED_EDGE('',*,*,#158,.F.);
#79=ORIENTED_EDGE('',*,*,#129,.F.);
#80=ORIENTED_EDGE('',*,*,#154,.F.);
#81=ORIENTED_EDGE('',*,*,#159,.F.);
#82=ORIENTED_EDGE('',*,*,#160,.F.);
#83=ORIENTED_EDGE('',*,*,#143,.T.);
#84=ORIENTED_EDGE('',*,*,#152,.T.);
#85=ORIENTED_EDGE('',*,*,#133,.F.);
#86=ORIENTED_EDGE('',*,*,#156,.F.);
#87=ORIENTED_EDGE('',*,*,#158,.T.);
#88=ORIENTED_EDGE('',*,*,#146,.F.);
#89=ORIENTED_EDGE('',*,*,#161,.F.);
#90=ORIENTED_EDGE('',*,*,#130,.T.);
#91=ORIENTED_EDGE('',*,*,#162,.F.);
#92=ORIENTED_EDGE('',*,*,#163,.F.);
#93=ORIENTED_EDGE('',*,*,#161,.T.);
#94=ORIENTED_EDGE('',*,*,#145,.T.);
#95=ORIENTED_EDGE('',*,*,#155,.T.);
#96=ORIENTED_EDGE('',*,*,#131,.F.);
#97=ORIENTED_EDGE('',*,*,#164,.F.);
#98=ORIENTED_EDGE('',*,*,#165,.F.);
#99=ORIENTED_EDGE('',*,*,#166,.F.);
#100=ORIENTED_EDGE('',*,*,#141,.T.);
#101=ORIENTED_EDGE('',*,*,#139,.T.);
#102=ORIENTED_EDGE('',*,*,#135,.F.);
#103=ORIENTED_EDGE('',*,*,#151,.F.);
#104=ORIENTED_EDGE('',*,*,#157,.T.);
#105=ORIENTED_EDGE('',*,*,#126,.F.);
#106=ORIENTED_EDGE('',*,*,#167,.F.);
#107=ORIENTED_EDGE('',*,*,#150,.T.);
#108=ORIENTED_EDGE('',*,*,#168,.F.);
#109=ORIENTED_EDGE('',*,*,#169,.F.);
#110=ORIENTED_EDGE('',*,*,#170,.F.);
#111=ORIENTED_EDGE('',*,*,#138,.F.);
#112=ORIENTED_EDGE('',*,*,#140,.T.);
#113=ORIENTED_EDGE('',*,*,#167,.T.);
#114=ORIENTED_EDGE('',*,*,#125,.F.);
#115=ORIENTED_EDGE('',*,*,#166,.T.);
#116=ORIENTED_EDGE('',*,*,#170,.T.);
#117=ORIENTED_EDGE('',*,*,#160,.T.);
#118=ORIENTED_EDGE('',*,*,#163,.T.);
#119=ORIENTED_EDGE('',*,*,#165,.T.);
#120=ORIENTED_EDGE('',*,*,#169,.T.);
#121=ORIENTED_EDGE('',*,*,#159,.T.);
#122=ORIENTED_EDGE('',*,*,#162,.T.);
#123=ORIENTED_EDGE('',*,*,#164,.T.);
#124=ORIENTED_EDGE('',*,*,#168,.T.);
#125=EDGE_CURVE('',#171,#172,#205,.T.);
#126=EDGE_CURVE('',#172,#173,#206,.T.);
#127=EDGE_CURVE('',#173,#174,#19,.T.);
#128=EDGE_CURVE('',#174,#175,#207,.T.);
#129=EDGE_CURVE('',#175,#176,#20,.T.);
#130=EDGE_CURVE('',#177,#176,#208,.T.);
#131=EDGE_CURVE('',#177,#178,#209,.T.);
#132=EDGE_CURVE('',#178,#179,#210,.T.);
#133=EDGE_CURVE('',#179,#180,#211,.T.);
#134=EDGE_CURVE('',#180,#181,#212,.T.);
#135=EDGE_CURVE('',#181,#182,#213,.T.);
#136=EDGE_CURVE('',#182,#171,#214,.T.);
#137=EDGE_CURVE('',#183,#184,#215,.T.);
#138=EDGE_CURVE('',#184,#171,#216,.T.);
#139=EDGE_CURVE('',#183,#182,#217,.T.);
#140=EDGE_CURVE('',#184,#185,#218,.T.);
#141=EDGE_CURVE('',#186,#183,#219,.T.);
#142=EDGE_CURVE('',#187,#186,#220,.T.);
#143=EDGE_CURVE('',#188,#187,#221,.T.);
#144=EDGE_CURVE('',#189,#188,#222,.T.);
#145=EDGE_CURVE('',#190,#189,#223,.T.);
#146=EDGE_CURVE('',#190,#191,#224,.T.);
#147=EDGE_CURVE('',#191,#192,#21,.F.);
#148=EDGE_CURVE('',#193,#192,#225,.T.);
#149=EDGE_CURVE('',#193,#194,#22,.F.);
#150=EDGE_CURVE('',#185,#194,#226,.T.);
#151=EDGE_CURVE('',#186,#181,#227,.T.);
#152=EDGE_CURVE('',#187,#180,#228,.T.);
#153=EDGE_CURVE('',#174,#193,#229,.F.);
#154=EDGE_CURVE('',#192,#175,#230,.T.);
#155=EDGE_CURVE('',#189,#178,#231,.T.);
#156=EDGE_CURVE('',#188,#179,#232,.T.);
#157=EDGE_CURVE('',#194,#173,#233,.T.);
#158=EDGE_CURVE('',#176,#191,#234,.F.);
#159=EDGE_CURVE('',#195,#195,#23,.T.);
#160=EDGE_CURVE('',#196,#196,#24,.T.);
#161=EDGE_CURVE('',#177,#190,#235,.F.);
#162=EDGE_CURVE('',#197,#197,#25,.T.);
#163=EDGE_CURVE('',#198,#198,#26,.T.);
#164=EDGE_CURVE('',#199,#199,#27,.T.);
#165=EDGE_CURVE('',#200,#200,#28,.T.);
#166=EDGE_CURVE('',#201,#201,#29,.T.);
#167=EDGE_CURVE('',#185,#172,#236,.T.);
#168=EDGE_CURVE('',#202,#202,#30,.T.);
#169=EDGE_CURVE('',#203,#203,#31,.T.);
#170=EDGE_CURVE('',#204,#204,#32,.T.);
#171=VERTEX_POINT('',#517);
#172=VERTEX_POINT('',#518);
#173=VERTEX_POINT('',#520);
#174=VERTEX_POINT('',#522);
#175=VERTEX_POINT('',#524);
#176=VERTEX_POINT('',#526);
#177=VERTEX_POINT('',#528);
#178=VERTEX_POINT('',#530);
#179=VERTEX_POINT('',#532);
#180=VERTEX_POINT('',#534);
#181=VERTEX_POINT('',#536);
#182=VERTEX_POINT('',#538);
#183=VERTEX_POINT('',#542);
#184=VERTEX_POINT('',#543);
#185=VERTEX_POINT('',#548);
#186=VERTEX_POINT('',#550);
#187=VERTEX_POINT('',#552);
#188=VERTEX_POINT('',#554);
#189=VERTEX_POINT('',#556);
#190=VERTEX_POINT('',#558);
#191=VERTEX_POINT('',#560);
#192=VERTEX_POINT('',#562);
#193=VERTEX_POINT('',#564);
#194=VERTEX_POINT('',#566);
#195=VERTEX_POINT('',#583);
#196=VERTEX_POINT('',#585);
#197=VERTEX_POINT('',#590);
#198=VERTEX_POINT('',#592);
#199=VERTEX_POINT('',#595);
#200=VERTEX_POINT('',#597);
#201=VERTEX_POINT('',#599);
#202=VERTEX_POINT('',#604);
#203=VERTEX_POINT('',#606);
#204=VERTEX_POINT('',#608);
#205=LINE('',#516,#237);
#206=LINE('',#519,#238);
#207=LINE('',#523,#239);
#208=LINE('',#527,#240);
#209=LINE('',#529,#241);
#210=LINE('',#531,#242);
#211=LINE('',#533,#243);
#212=LINE('',#535,#244);
#213=LINE('',#537,#245);
#214=LINE('',#539,#246);
#215=LINE('',#541,#247);
#216=LINE('',#544,#248);
#217=LINE('',#545,#249);
#218=LINE('',#547,#250);
#219=LINE('',#549,#251);
#220=LINE('',#551,#252);
#221=LINE('',#553,#253);
#222=LINE('',#555,#254);
#223=LINE('',#557,#255);
#224=LINE('',#559,#256);
#225=LINE('',#563,#257);
#226=LINE('',#567,#258);
#227=LINE('',#569,#259);
#228=LINE('',#570,#260);
#229=LINE('',#572,#261);
#230=LINE('',#573,#262);
#231=LINE('',#575,#263);
#232=LINE('',#576,#264);
#233=LINE('',#578,#265);
#234=LINE('',#580,#266);
#235=LINE('',#587,#267);
#236=LINE('',#601,#268);
#237=VECTOR('',#418,100.);
#238=VECTOR('',#419,100.);
#239=VECTOR('',#422,100.);
#240=VECTOR('',#425,100.);
#241=VECTOR('',#426,100.);
#242=VECTOR('',#427,100.);
#243=VECTOR('',#428,100.);
#244=VECTOR('',#429,100.);
#245=VECTOR('',#430,100.);
#246=VECTOR('',#431,100.);
#247=VECTOR('',#434,100.);
#248=VECTOR('',#435,100.);
#249=VECTOR('',#436,100.);
#250=VECTOR('',#439,100.);
#251=VECTOR('',#440,100.);
#252=VECTOR('',#441,100.);
#253=VECTOR('',#442,100.);
#254=VECTOR('',#443,100.);
#255=VECTOR('',#444,100.);
#256=VECTOR('',#445,100.);
#257=VECTOR('',#448,100.);
#258=VECTOR('',#451,100.);
#259=VECTOR('',#454,100.);
#260=VECTOR('',#455,100.);
#261=VECTOR('',#458,100.);
#262=VECTOR('',#459,100.);
#263=VECTOR('',#462,100.);
#264=VECTOR('',#463,100.);
#265=VECTOR('',#466,100.);
#266=VECTOR('',#469,100.);
#267=VECTOR('',#478,100.);
#268=VECTOR('',#495,100.);
#269=EDGE_LOOP('',(#33,#34,#35,#36,#37,#38,#39,#40,#41,#42,#43,#44));
#270=EDGE_LOOP('',(#45,#46,#47,#48));
#271=EDGE_LOOP('',(#49,#50,#51,#52,#53,#54,#55,#56,#57,#58,#59,#60));
#272=EDGE_LOOP('',(#61,#62,#63,#64));
#273=EDGE_LOOP('',(#65,#66,#67,#68));
#274=EDGE_LOOP('',(#69,#70,#71,#72));
#275=EDGE_LOOP('',(#73,#74,#75,#76));
#276=EDGE_LOOP('',(#77,#78,#79,#80));
#277=EDGE_LOOP('',(#81));
#278=EDGE_LOOP('',(#82));
#279=EDGE_LOOP('',(#83,#84,#85,#86));
#280=EDGE_LOOP('',(#87,#88,#89,#90));
#281=EDGE_LOOP('',(#91));
#282=EDGE_LOOP('',(#92));
#283=EDGE_LOOP('',(#93,#94,#95,#96));
#284=EDGE_LOOP('',(#97));
#285=EDGE_LOOP('',(#98));
#286=EDGE_LOOP('',(#99));
#287=EDGE_LOOP('',(#100,#101,#102,#103));
#288=EDGE_LOOP('',(#104,#105,#106,#107));
#289=EDGE_LOOP('',(#108));
#290=EDGE_LOOP('',(#109));
#291=EDGE_LOOP('',(#110));
#292=EDGE_LOOP('',(#111,#112,#113,#114));
#293=EDGE_LOOP('',(#115));
#294=EDGE_LOOP('',(#116));
#295=EDGE_LOOP('',(#117));
#296=EDGE_LOOP('',(#118));
#297=EDGE_LOOP('',(#119));
#298=EDGE_LOOP('',(#120));
#299=EDGE_LOOP('',(#121));
#300=EDGE_LOOP('',(#122));
#301=EDGE_LOOP('',(#123));
#302=EDGE_LOOP('',(#124));
#303=FACE_BOUND('',#269,.T.);
#304=FACE_BOUND('',#270,.T.);
#305=FACE_BOUND('',#271,.T.);
#306=FACE_BOUND('',#272,.T.);
#307=FACE_BOUND('',#273,.T.);
#308=FACE_BOUND('',#274,.T.);
#309=FACE_BOUND('',#275,.T.);
#310=FACE_BOUND('',#276,.T.);
#311=FACE_BOUND('',#277,.T.);
#312=FACE_BOUND('',#278,.T.);
#313=FACE_BOUND('',#279,.T.);
#314=FACE_BOUND('',#280,.T.);
#315=FACE_BOUND('',#281,.T.);
#316=FACE_BOUND('',#282,.T.);
#317=FACE_BOUND('',#283,.T.);
#318=FACE_BOUND('',#284,.T.);
#319=FACE_BOUND('',#285,.T.);
#320=FACE_BOUND('',#286,.T.);
#321=FACE_BOUND('',#287,.T.);
#322=FACE_BOUND('',#288,.T.);
#323=FACE_BOUND('',#289,.T.);
#324=FACE_BOUND('',#290,.T.);
#325=FACE_BOUND('',#291,.T.);
#326=FACE_BOUND('',#292,.T.);
#327=FACE_BOUND('',#293,.T.);
#328=FACE_BOUND('',#294,.T.);
#329=FACE_BOUND('',#295,.T.);
#330=FACE_BOUND('',#296,.T.);
#331=FACE_BOUND('',#297,.T.);
#332=FACE_BOUND('',#298,.T.);
#333=FACE_BOUND('',#299,.T.);
#334=FACE_BOUND('',#300,.T.);
#335=FACE_BOUND('',#301,.T.);
#336=FACE_BOUND('',#302,.T.);
#337=PLANE('',#381);
#338=PLANE('',#384);
#339=PLANE('',#385);
#340=PLANE('',#388);
#341=PLANE('',#389);
#342=PLANE('',#390);
#343=PLANE('',#393);
#344=PLANE('',#396);
#345=PLANE('',#397);
#346=PLANE('',#400);
#347=PLANE('',#404);
#348=PLANE('',#405);
#349=ADVANCED_FACE('',(#303),#337,.T.);
#350=ADVANCED_FACE('',(#304),#338,.T.);
#351=ADVANCED_FACE('',(#305),#339,.F.);
#352=ADVANCED_FACE('',(#306),#340,.T.);
#353=ADVANCED_FACE('',(#307),#341,.T.);
#354=ADVANCED_FACE('',(#308),#342,.T.);
#355=ADVANCED_FACE('',(#309),#12,.T.);
#356=ADVANCED_FACE('',(#310),#13,.T.);
#357=ADVANCED_FACE('',(#311,#312,#313),#343,.T.);
#358=ADVANCED_FACE('',(#314),#344,.F.);
#359=ADVANCED_FACE('',(#315,#316,#317),#345,.T.);
#360=ADVANCED_FACE('',(#318,#319,#320,#321),#346,.T.);
#361=ADVANCED_FACE('',(#322),#347,.F.);
#362=ADVANCED_FACE('',(#323,#324,#325,#326),#348,.T.);
#363=ADVANCED_FACE('',(#327,#328),#14,.F.);
#364=ADVANCED_FACE('',(#329,#330),#15,.F.);
#365=ADVANCED_FACE('',(#331,#332),#16,.F.);
#366=ADVANCED_FACE('',(#333,#334),#17,.F.);
#367=ADVANCED_FACE('',(#335,#336),#18,.F.);
#368=CLOSED_SHELL('',(#349,#350,#351,#352,#353,#354,#355,#356,#357,#358,
#359,#360,#361,#362,#363,#364,#365,#366,#367));
#369=STYLED_ITEM('',(#370),#377);
#370=PRESENTATION_STYLE_ASSIGNMENT((#371));
#371=SURFACE_STYLE_USAGE(.BOTH.,#372);
#372=SURFACE_SIDE_STYLE('',(#373));
#373=SURFACE_STYLE_FILL_AREA(#374);
#374=FILL_AREA_STYLE('',(#375));
#375=FILL_AREA_STYLE_COLOUR('',#376);
#376=COLOUR_RGB('',0.615686274509804,0.811764705882353,0.929411764705882);
#377=MANIFOLD_SOLID_BREP('Part 4',#368);
#378=SHAPE_DEFINITION_REPRESENTATION(#620,#379);
#379=SHAPE_REPRESENTATION('Part 4',(#380),#615);
#380=AXIS2_PLACEMENT_3D('',#514,#414,#415);
#381=AXIS2_PLACEMENT_3D('',#515,#416,#417);
#382=AXIS2_PLACEMENT_3D('',#521,#420,#421);
#383=AXIS2_PLACEMENT_3D('',#525,#423,#424);
#384=AXIS2_PLACEMENT_3D('',#540,#432,#433);
#385=AXIS2_PLACEMENT_3D('',#546,#437,#438);
#386=AXIS2_PLACEMENT_3D('',#561,#446,#447);
#387=AXIS2_PLACEMENT_3D('',#565,#449,#450);
#388=AXIS2_PLACEMENT_3D('',#568,#452,#453);
#389=AXIS2_PLACEMENT_3D('',#571,#456,#457);
#390=AXIS2_PLACEMENT_3D('',#574,#460,#461);
#391=AXIS2_PLACEMENT_3D('',#577,#464,#465);
#392=AXIS2_PLACEMENT_3D('',#579,#467,#468);
#393=AXIS2_PLACEMENT_3D('',#581,#470,#471);
#394=AXIS2_PLACEMENT_3D('',#582,#472,#473);
#395=AXIS2_PLACEMENT_3D('',#584,#474,#475);
#396=AXIS2_PLACEMENT_3D('',#586,#476,#477);
#397=AXIS2_PLACEMENT_3D('',#588,#479,#480);
#398=AXIS2_PLACEMENT_3D('',#589,#481,#482);
#399=AXIS2_PLACEMENT_3D('',#591,#483,#484);
#400=AXIS2_PLACEMENT_3D('',#593,#485,#486);
#401=AXIS2_PLACEMENT_3D('',#594,#487,#488);
#402=AXIS2_PLACEMENT_3D('',#596,#489,#490);
#403=AXIS2_PLACEMENT_3D('',#598,#491,#492);
#404=AXIS2_PLACEMENT_3D('',#600,#493,#494);
#405=AXIS2_PLACEMENT_3D('',#602,#496,#497);
#406=AXIS2_PLACEMENT_3D('',#603,#498,#499);
#407=AXIS2_PLACEMENT_3D('',#605,#500,#501);
#408=AXIS2_PLACEMENT_3D('',#607,#502,#503);
#409=AXIS2_PLACEMENT_3D('',#609,#504,#505);
#410=AXIS2_PLACEMENT_3D('',#610,#506,#507);
#411=AXIS2_PLACEMENT_3D('',#611,#508,#509);
#412=AXIS2_PLACEMENT_3D('',#612,#510,#511);
#413=AXIS2_PLACEMENT_3D('',#613,#512,#513);
#414=DIRECTION('',(0.,0.,1.));
#415=DIRECTION('',(1.,0.,0.));
#416=DIRECTION('',(0.,-1.,0.));
#417=DIRECTION('',(1.,0.,0.));
#418=DIRECTION('',(0.,0.,-1.));
#419=DIRECTION('',(-1.,0.,0.));
#420=DIRECTION('',(0.,-1.,0.));
#421=DIRECTION('',(0.,0.,-1.));
#422=DIRECTION('',(1.,0.,0.));
#423=DIRECTION('',(0.,-1.,0.));
#424=DIRECTION('',(0.,0.,-1.));
#425=DIRECTION('',(1.,0.,0.));
#426=DIRECTION('',(0.,0.,1.));
#427=DIRECTION('',(-1.,0.,0.));
#428=DIRECTION('',(4.33680868994202E-16,0.,-1.));
#429=DIRECTION('',(-1.,0.,-1.77920356510441E-16));
#430=DIRECTION('',(0.,0.,1.));
#431=DIRECTION('',(-1.,0.,0.));
#432=DIRECTION('',(0.,0.,1.));
#433=DIRECTION('',(1.,0.,0.));
#434=DIRECTION('',(-1.,0.,0.));
#435=DIRECTION('',(0.,-1.,0.));
#436=DIRECTION('',(0.,-1.,0.));
#437=DIRECTION('',(0.,-1.,0.));
#438=DIRECTION('',(1.,0.,0.));
#439=DIRECTION('',(0.,0.,-1.));
#440=DIRECTION('',(0.,0.,1.));
#441=DIRECTION('',(-1.,0.,-1.77920356510441E-16));
#442=DIRECTION('',(4.33680868994202E-16,0.,-1.));
#443=DIRECTION('',(-1.,0.,0.));
#444=DIRECTION('',(0.,0.,1.));
#445=DIRECTION('',(1.,0.,0.));
#446=DIRECTION('',(0.,-1.,0.));
#447=DIRECTION('',(0.,0.,-1.));
#448=DIRECTION('',(1.,0.,0.));
#449=DIRECTION('',(0.,-1.,0.));
#450=DIRECTION('',(0.,0.,-1.));
#451=DIRECTION('',(-1.,0.,0.));
#452=DIRECTION('',(-1.77920356510441E-16,0.,1.));
#453=DIRECTION('',(1.,0.,1.77920356510441E-16));
#454=DIRECTION('',(0.,-1.,0.));
#455=DIRECTION('',(0.,-1.,0.));
#456=DIRECTION('',(0.,0.,-1.));
#457=DIRECTION('',(-1.,0.,0.));
#458=DIRECTION('',(0.,-1.,0.));
#459=DIRECTION('',(0.,-1.,0.));
#460=DIRECTION('',(0.,0.,1.));
#461=DIRECTION('',(1.,0.,0.));
#462=DIRECTION('',(0.,-1.,0.));
#463=DIRECTION('',(0.,-1.,0.));
#464=DIRECTION('',(0.,-1.,0.));
#465=DIRECTION('',(0.,0.,-1.));
#466=DIRECTION('',(0.,-1.,0.));
#467=DIRECTION('',(0.,-1.,0.));
#468=DIRECTION('',(0.,0.,-1.));
#469=DIRECTION('',(0.,-1.,0.));
#470=DIRECTION('',(-1.,0.,-4.33680868994202E-16));
#471=DIRECTION('',(-4.33680868994202E-16,0.,1.));
#472=DIRECTION('',(-1.,0.,-4.33680868994202E-16));
#473=DIRECTION('',(-4.33680868994202E-16,0.,1.));
#474=DIRECTION('',(-1.,0.,-4.33680868994202E-16));
#475=DIRECTION('',(-4.33680868994202E-16,0.,1.));
#476=DIRECTION('',(0.,0.,-1.));
#477=DIRECTION('',(-1.,0.,0.));
#478=DIRECTION('',(0.,-1.,0.));
#479=DIRECTION('',(1.,0.,0.));
#480=DIRECTION('',(0.,0.,-1.));
#481=DIRECTION('',(1.,0.,0.));
#482=DIRECTION('',(0.,0.,-1.));
#483=DIRECTION('',(1.,0.,0.));
#484=DIRECTION('',(0.,0.,-1.));
#485=DIRECTION('',(1.,0.,0.));
#486=DIRECTION('',(0.,0.,-1.));
#487=DIRECTION('',(1.,0.,0.));
#488=DIRECTION('',(0.,0.,-1.));
#489=DIRECTION('',(1.,0.,0.));
#490=DIRECTION('',(0.,0.,-1.));
#491=DIRECTION('',(1.,0.,0.));
#492=DIRECTION('',(0.,0.,-1.));
#493=DIRECTION('',(0.,0.,-1.));
#494=DIRECTION('',(-1.,0.,0.));
#495=DIRECTION('',(0.,-1.,0.));
#496=DIRECTION('',(-1.,0.,0.));
#497=DIRECTION('',(0.,0.,1.));
#498=DIRECTION('',(-1.,0.,0.));
#499=DIRECTION('',(0.,0.,1.));
#500=DIRECTION('',(-1.,0.,0.));
#501=DIRECTION('',(0.,0.,1.));
#502=DIRECTION('',(-1.,0.,0.));
#503=DIRECTION('',(0.,0.,1.));
#504=DIRECTION('',(1.,0.,0.));
#505=DIRECTION('',(0.,0.,-1.));
#506=DIRECTION('',(1.,0.,0.));
#507=DIRECTION('',(0.,0.,-1.));
#508=DIRECTION('',(-1.,0.,0.));
#509=DIRECTION('',(0.,0.,1.));
#510=DIRECTION('',(-1.,0.,0.));
#511=DIRECTION('',(0.,0.,1.));
#512=DIRECTION('',(-1.,0.,0.));
#513=DIRECTION('',(0.,0.,1.));
#514=CARTESIAN_POINT('',(0.,0.,0.));
#515=CARTESIAN_POINT('',(3.15662759542465,-4.16155374778997,1.75));
#516=CARTESIAN_POINT('',(-12.5933724045753,-4.16155374778997,3.75));
#517=CARTESIAN_POINT('',(-12.5933724045753,-4.16155374778997,5.5));
#518=CARTESIAN_POINT('',(-12.5933724045753,-4.16155374778997,2.4));
#519=CARTESIAN_POINT('',(-12.5933724045753,-4.16155374778997,2.4));
#520=CARTESIAN_POINT('',(-13.0933724045754,-4.16155374778997,2.4));
#521=CARTESIAN_POINT('',(-12.6933724045754,-4.16155374778997,2.4));
#522=CARTESIAN_POINT('',(-12.6933724045754,-4.16155374778997,2.));
#523=CARTESIAN_POINT('',(3.15662759542465,-4.16155374778997,2.));
#524=CARTESIAN_POINT('',(-8.99337240457535,-4.16155374778997,2.));
#525=CARTESIAN_POINT('',(-8.99337240457535,-4.16155374778997,2.4));
#526=CARTESIAN_POINT('',(-8.59337240457535,-4.16155374778997,2.4));
#527=CARTESIAN_POINT('',(-9.09337240457535,-4.16155374778997,2.4));
#528=CARTESIAN_POINT('',(-9.09337240457535,-4.16155374778997,2.4));
#529=CARTESIAN_POINT('',(-9.09337240457535,-4.16155374778997,3.75));
#530=CARTESIAN_POINT('',(-9.09337240457535,-4.16155374778997,5.5));
#531=CARTESIAN_POINT('',(-8.74337240457535,-4.16155374778997,5.5));
#532=CARTESIAN_POINT('',(-9.39337240457535,-4.16155374778997,5.5));
#533=CARTESIAN_POINT('',(-9.39337240457535,-4.16155374778997,3.9));
#534=CARTESIAN_POINT('',(-9.39337240457535,-4.16155374778997,2.3));
#535=CARTESIAN_POINT('',(-10.8433724045753,-4.16155374778997,2.3));
#536=CARTESIAN_POINT('',(-12.2933724045753,-4.16155374778997,2.3));
#537=CARTESIAN_POINT('',(-12.2933724045753,-4.16155374778997,3.9));
#538=CARTESIAN_POINT('',(-12.2933724045753,-4.16155374778997,5.5));
#539=CARTESIAN_POINT('',(-12.9433724045754,-4.16155374778997,5.5));
#540=CARTESIAN_POINT('',(-12.9433724045754,17.83844625221,5.5));
#541=CARTESIAN_POINT('',(-12.9433724045754,14.83844625221,5.5));
#542=CARTESIAN_POINT('',(-12.2933724045753,14.83844625221,5.5));
#543=CARTESIAN_POINT('',(-12.5933724045753,14.83844625221,5.5));
#544=CARTESIAN_POINT('',(-12.5933724045753,17.83844625221,5.5));
#545=CARTESIAN_POINT('',(-12.2933724045753,17.83844625221,5.5));
#546=CARTESIAN_POINT('',(3.15662759542465,14.83844625221,1.75));
#547=CARTESIAN_POINT('',(-12.5933724045753,14.83844625221,3.75));
#548=CARTESIAN_POINT('',(-12.5933724045753,14.83844625221,2.4));
#549=CARTESIAN_POINT('',(-12.2933724045753,14.83844625221,3.9));
#550=CARTESIAN_POINT('',(-12.2933724045753,14.83844625221,2.3));
#551=CARTESIAN_POINT('',(-10.8433724045753,14.83844625221,2.3));
#552=CARTESIAN_POINT('',(-9.39337240457535,14.83844625221,2.3));
#553=CARTESIAN_POINT('',(-9.39337240457535,14.83844625221,3.9));
#554=CARTESIAN_POINT('',(-9.39337240457535,14.83844625221,5.5));
#555=CARTESIAN_POINT('',(-8.74337240457535,14.83844625221,5.5));
#556=CARTESIAN_POINT('',(-9.09337240457535,14.83844625221,5.5));
#557=CARTESIAN_POINT('',(-9.09337240457535,14.83844625221,3.75));
#558=CARTESIAN_POINT('',(-9.09337240457535,14.83844625221,2.4));
#559=CARTESIAN_POINT('',(-9.09337240457535,14.83844625221,2.4));
#560=CARTESIAN_POINT('',(-8.59337240457535,14.83844625221,2.4));
#561=CARTESIAN_POINT('',(-8.99337240457535,14.83844625221,2.4));
#562=CARTESIAN_POINT('',(-8.99337240457535,14.83844625221,2.));
#563=CARTESIAN_POINT('',(3.15662759542465,14.83844625221,2.));
#564=CARTESIAN_POINT('',(-12.6933724045754,14.83844625221,2.));
#565=CARTESIAN_POINT('',(-12.6933724045754,14.83844625221,2.4));
#566=CARTESIAN_POINT('',(-13.0933724045754,14.83844625221,2.4));
#567=CARTESIAN_POINT('',(-12.5933724045753,14.83844625221,2.4));
#568=CARTESIAN_POINT('',(-10.8433724045753,17.83844625221,2.3));
#569=CARTESIAN_POINT('',(-12.2933724045753,17.83844625221,2.3));
#570=CARTESIAN_POINT('',(-9.39337240457535,17.83844625221,2.3));
#571=CARTESIAN_POINT('',(3.15662759542465,17.83844625221,2.));
#572=CARTESIAN_POINT('',(-12.6933724045754,17.83844625221,2.));
#573=CARTESIAN_POINT('',(-8.99337240457535,17.83844625221,2.));
#574=CARTESIAN_POINT('',(-8.74337240457535,17.83844625221,5.5));
#575=CARTESIAN_POINT('',(-9.09337240457535,17.83844625221,5.5));
#576=CARTESIAN_POINT('',(-9.39337240457535,17.83844625221,5.5));
#577=CARTESIAN_POINT('',(-12.6933724045754,17.83844625221,2.4));
#578=CARTESIAN_POINT('',(-13.0933724045754,17.83844625221,2.4));
#579=CARTESIAN_POINT('',(-8.99337240457535,17.83844625221,2.4));
#580=CARTESIAN_POINT('',(-8.59337240457535,17.83844625221,2.4));
#581=CARTESIAN_POINT('',(-9.39337240457535,17.83844625221,3.9));
#582=CARTESIAN_POINT('',(-9.39337240457535,4.33844625221003,3.95));
#583=CARTESIAN_POINT('',(-9.39337240457535,4.33844625221003,4.35711040524795));
#584=CARTESIAN_POINT('',(-9.39337240457535,13.83844625221,4.5));
#585=CARTESIAN_POINT('',(-9.39337240457535,13.83844625221,4.87065980337902));
#586=CARTESIAN_POINT('',(-9.09337240457535,17.83844625221,2.4));
#587=CARTESIAN_POINT('',(-9.09337240457535,17.83844625221,2.4));
#588=CARTESIAN_POINT('',(-9.09337240457535,17.83844625221,3.75));
#589=CARTESIAN_POINT('',(-9.09337240457535,4.33844625221003,3.95));
#590=CARTESIAN_POINT('',(-9.09337240457535,4.33844625221003,3.54288959475205));
#591=CARTESIAN_POINT('',(-9.09337240457535,13.83844625221,4.5));
#592=CARTESIAN_POINT('',(-9.09337240457535,13.83844625221,4.12934019662098));
#593=CARTESIAN_POINT('',(-12.2933724045753,17.83844625221,3.9));
#594=CARTESIAN_POINT('',(-12.2933724045753,0.16163958935067,4.69751954078674));
#595=CARTESIAN_POINT('',(-12.2933724045753,0.16163958935067,4.54751954078674));
#596=CARTESIAN_POINT('',(-12.2933724045753,4.33844625221003,3.95));
#597=CARTESIAN_POINT('',(-12.2933724045753,4.33844625221003,3.54288959475205));
#598=CARTESIAN_POINT('',(-12.2933724045753,13.83844625221,4.5));
#599=CARTESIAN_POINT('',(-12.2933724045753,13.83844625221,4.12934019662098));
#600=CARTESIAN_POINT('',(-12.5933724045753,17.83844625221,2.4));
#601=CARTESIAN_POINT('',(-12.5933724045753,17.83844625221,2.4));
#602=CARTESIAN_POINT('',(-12.5933724045753,17.83844625221,3.75));
#603=CARTESIAN_POINT('',(-12.5933724045753,0.16163958935067,4.69751954078674));
#604=CARTESIAN_POINT('',(-12.5933724045753,0.16163958935067,4.84751954078674));
#605=CARTESIAN_POINT('',(-12.5933724045753,4.33844625221003,3.95));
#606=CARTESIAN_POINT('',(-12.5933724045753,4.33844625221003,4.35711040524795));
#607=CARTESIAN_POINT('',(-12.5933724045753,13.83844625221,4.5));
#608=CARTESIAN_POINT('',(-12.5933724045753,13.83844625221,4.87065980337902));
#609=CARTESIAN_POINT('',(-28.9312068294527,13.83844625221,4.5));
#610=CARTESIAN_POINT('',(-28.9312068294527,13.83844625221,4.5));
#611=CARTESIAN_POINT('',(7.24446202030202,4.33844625221003,3.95));
#612=CARTESIAN_POINT('',(7.24446202030202,4.33844625221003,3.95));
#613=CARTESIAN_POINT('',(-12.1433724045753,0.16163958935067,4.69751954078674));
#614=MECHANICAL_DESIGN_GEOMETRIC_PRESENTATION_REPRESENTATION('',(#369),
#615);
#615=(
GEOMETRIC_REPRESENTATION_CONTEXT(3)
GLOBAL_UNCERTAINTY_ASSIGNED_CONTEXT((#616))
GLOBAL_UNIT_ASSIGNED_CONTEXT((#619,#618,#617))
REPRESENTATION_CONTEXT('Part 4','TOP_LEVEL_ASSEMBLY_PART')
);
#616=UNCERTAINTY_MEASURE_WITH_UNIT(LENGTH_MEASURE(1.E-6),#619,
'DISTANCE_ACCURACY_VALUE','Maximum Tolerance applied to model');
#617=(
NAMED_UNIT(*)
SI_UNIT($,.STERADIAN.)
SOLID_ANGLE_UNIT()
);
#618=(
NAMED_UNIT(*)
PLANE_ANGLE_UNIT()
SI_UNIT($,.RADIAN.)
);
#619=(
LENGTH_UNIT()
NAMED_UNIT(*)
SI_UNIT(.CENTI.,.METRE.)
);
#620=PRODUCT_DEFINITION_SHAPE('','',#621);
#621=PRODUCT_DEFINITION('','',#623,#622);
#622=PRODUCT_DEFINITION_CONTEXT('',#629,'design');
#623=PRODUCT_DEFINITION_FORMATION_WITH_SPECIFIED_SOURCE('','',#625,
 .NOT_KNOWN.);
#624=PRODUCT_RELATED_PRODUCT_CATEGORY('','',(#625));
#625=PRODUCT('Part 4','Part 4','Part 4',(#627));
#626=PRODUCT_CATEGORY('','');
#627=PRODUCT_CONTEXT('',#629,'mechanical');
#628=APPLICATION_PROTOCOL_DEFINITION('international standard',
'ap242_managed_model_based_3d_engineering',2020,#629);
#629=APPLICATION_CONTEXT('managed model based 3d engineering');
ENDSEC;
END-ISO-10303-21;
